<svg width="200" height="200" viewBox="0 0 200 200" fill="none" xmlns="http://www.w3.org/2000/svg">
<path d="M100 80C111.046 80 120 88.9543 120 100C120 111.046 111.046 120 100 120C88.9543 120 80 111.046 80 100C80 88.9543 88.9543 80 100 80Z" fill="#888888"/>
<path fill-rule="evenodd" clip-rule="evenodd" d="M100 0C150.267 0 191.87 37.0893 198.939 85.3945C198.955 85.5039 198.972 85.6132 198.987 85.7227C199.024 85.9805 199.06 86.2386 199.095 86.4971C199.114 86.6428 199.133 86.7887 199.152 86.9346C199.179 87.1398 199.205 87.3452 199.23 87.5508C199.255 87.7463 199.279 87.9419 199.302 88.1377C199.324 88.3263 199.346 88.5151 199.367 88.7041C199.395 88.9499 199.421 89.196 199.447 89.4424C199.463 89.594 199.479 89.7457 199.494 89.8975C199.518 90.1358 199.541 90.3744 199.563 90.6133C199.627 91.2981 199.684 91.985 199.733 92.6738C199.752 92.9246 199.77 93.1755 199.786 93.4268C199.798 93.6076 199.809 93.7886 199.819 93.9697C199.832 94.1828 199.844 94.396 199.855 94.6094C199.867 94.8227 199.877 95.0363 199.887 95.25C199.895 95.4253 199.903 95.6008 199.91 95.7764C199.919 95.9966 199.928 96.2169 199.936 96.4375C199.942 96.6203 199.948 96.8033 199.953 96.9863C199.959 97.1929 199.966 97.3996 199.971 97.6064C199.976 97.8494 199.98 98.0926 199.984 98.3359C199.987 98.4872 199.99 98.6386 199.992 98.79C199.997 99.1905 199.999 99.5916 199.999 99.9932C199.999 99.9954 200 99.9977 200 100C200 100.516 199.995 101.031 199.987 101.545C199.985 101.665 199.983 101.785 199.98 101.904C199.973 102.324 199.962 102.742 199.949 103.16C199.947 103.246 199.944 103.331 199.941 103.417C199.888 105.015 199.795 106.604 199.667 108.183C199.66 108.265 199.654 108.347 199.647 108.43C195.367 159.713 152.389 200 100 200C49.3452 200 7.48782 162.337 0.902356 113.486L0.901379 113.485C0.887521 113.382 0.875875 113.279 0.862317 113.176C0.81441 112.812 0.768602 112.447 0.724621 112.082C0.708315 111.947 0.69058 111.811 0.674817 111.676C0.618346 111.19 0.565124 110.704 0.515637 110.216C0.498089 110.043 0.483474 109.87 0.466809 109.696C0.434308 109.359 0.402191 109.02 0.373059 108.682C0.355944 108.483 0.3392 108.283 0.323254 108.084C0.300106 107.795 0.278504 107.505 0.257824 107.215C0.243288 107.011 0.228167 106.807 0.214856 106.603C0.148729 105.588 0.0981576 104.569 0.062512 103.547C0.0580234 103.418 0.0547941 103.289 0.0507932 103.16C0.0376561 102.737 0.0264295 102.313 0.0185666 101.889C0.0168198 101.794 0.0151692 101.7 0.0136838 101.605C0.00527622 101.071 1.19576e-05 100.536 1.19576e-05 100C1.19576e-05 99.9697 -1.4947e-05 99.9394 1.19576e-05 99.9092C0.000328044 99.5559 0.0028747 99.203 0.0068479 98.8506C0.00944574 98.6199 0.0134329 98.3895 0.0175901 98.1592C0.0210209 97.9693 0.0238437 97.7795 0.0283323 97.5898C0.0332176 97.3833 0.0397744 97.1769 0.0459104 96.9707C0.0518457 96.7713 0.0583405 96.5721 0.0654416 96.373C0.0723403 96.1795 0.0799059 95.9862 0.0879026 95.793C0.0972105 95.5682 0.106409 95.3435 0.117199 95.1191C0.125889 94.9383 0.135871 94.7577 0.14552 94.5771C0.157504 94.353 0.170147 94.129 0.183606 93.9053C0.193456 93.7414 0.203241 93.5777 0.213879 93.4141C0.231875 93.1374 0.251255 92.861 0.271496 92.585C0.280711 92.4592 0.290138 92.3336 0.299817 92.208C0.320547 91.9391 0.34337 91.6706 0.366223 91.4023C0.420645 90.7632 0.4805 90.1258 0.546887 89.4902C0.578857 89.1842 0.610796 88.8784 0.64552 88.5732C0.655046 88.4895 0.66606 88.4059 0.675793 88.3223C0.712496 88.0068 0.749442 87.6916 0.789074 87.377C0.815843 87.1644 0.844959 86.9523 0.873059 86.7402C0.891135 86.6038 0.908145 86.4673 0.92677 86.3311C0.963355 86.0634 1.00233 85.7963 1.04103 85.5293C1.05821 85.4108 1.07519 85.2922 1.09279 85.1738C1.12776 84.9385 1.1636 84.7035 1.20021 84.4688C1.22546 84.3068 1.25133 84.1451 1.27736 83.9834C1.31276 83.7635 1.34794 83.5437 1.38478 83.3242C1.41175 83.1636 1.44005 83.0032 1.46779 82.8428C9.60373 35.7893 50.6216 0 100 0ZM27.957 108.244C26.2626 108.244 24.5843 108.302 22.9248 108.414C20.586 108.572 18.9114 110.692 19.2813 113.007C24.4656 145.432 48.7175 171.491 80.1777 179.327C82 179.781 83.8972 178.924 84.7002 177.227C87.4032 171.513 88.8886 165.292 88.8887 158.782C88.8887 156.122 88.6402 153.509 88.1621 150.96C87.8708 149.406 86.653 148.224 85.1436 147.755C69.3238 142.839 56.8704 130.279 52.1035 114.394C51.6863 113.003 50.664 111.852 49.2774 111.423C42.6415 109.367 35.4574 108.244 27.957 108.244ZM172.76 108.244C164.94 108.244 157.465 109.466 150.596 111.691C149.241 112.13 148.243 113.259 147.827 114.621C143.081 130.164 130.967 142.492 115.555 147.532C114.083 148.014 112.899 149.175 112.605 150.695C112.094 153.328 111.828 156.03 111.828 158.782C111.828 165.225 113.283 171.386 115.933 177.053C116.736 178.77 118.656 179.632 120.492 179.158C151.642 171.117 175.594 145.176 180.726 112.959C181.097 110.629 179.398 108.503 177.043 108.367C175.628 108.286 174.2 108.244 172.76 108.244ZM100 75C86.1929 75 75 86.1929 75 100C75 113.807 86.1929 125 100 125C113.807 125 125 113.807 125 100C125 86.1929 113.807 75 100 75ZM100 18.251C66.3482 18.251 37.4458 38.5847 24.9082 67.6357C23.5513 70.7801 26.5061 73.9013 29.834 73.0928C39.3934 70.7703 49.6507 68.9105 60.4385 67.584C61.5079 67.4525 62.4867 66.9253 63.2168 66.1328C72.3538 56.2143 85.4512 50 100 50C114.593 50 127.725 56.2531 136.865 66.2246C137.593 67.0187 138.571 67.5483 139.64 67.6826C150.432 69.0392 160.687 70.9306 170.235 73.2852C173.562 74.1055 176.528 70.9924 175.18 67.8428C162.69 38.6816 133.732 18.251 100 18.251Z" fill="#888888"/>
</svg>
