<svg xmlns="http://www.w3.org/2000/svg" width="300" height="100" fill="none" viewBox="0 0 300 100">
  <path stroke="#000" stroke-opacity=".25" stroke-width=".5" d="M289.718 84.48H10"/>
  <mask id="a" width="262" height="71" x="21.447" y="15.73" fill="#000" maskUnits="userSpaceOnUse">
    <path fill="#fff" d="M21.447 15.73h262v71h-262z"/>
    <path d="M57.167 84.9c-4.92 0-9.45-.84-13.59-2.52-4.14-1.68-7.77-4.02-10.89-7.02-3.06-3-5.46-6.51-7.2-10.53-1.74-4.08-2.61-8.46-2.61-13.14s.84-9 2.52-12.96c1.74-4.02 4.14-7.53 7.2-10.53 3.06-3 6.66-5.31 10.8-6.93 4.14-1.68 8.67-2.52 13.59-2.52s9.45.84 13.59 2.52c4.14 1.62 7.74 3.93 10.8 6.93 3.06 3 5.43 6.51 7.11 10.53 1.74 4.02 2.61 8.37 2.61 13.05 0 4.68-.87 9.03-2.61 13.05a32.708 32.708 0 0 1-7.11 10.62c-3.06 3-6.66 5.34-10.8 7.02-4.08 1.62-8.55 2.43-13.41 2.43Zm-.18-14.4c3.6 0 6.72-.78 9.36-2.34 2.64-1.56 4.68-3.75 6.12-6.57 1.44-2.82 2.16-6.12 2.16-9.9 0-2.76-.42-5.28-1.26-7.56-.78-2.28-1.95-4.23-3.51-5.85a15.823 15.823 0 0 0-5.58-3.87c-2.16-.9-4.59-1.35-7.29-1.35-3.6 0-6.72.78-9.36 2.34-2.64 1.5-4.68 3.66-6.12 6.48-1.44 2.82-2.16 6.09-2.16 9.81 0 2.88.39 5.49 1.17 7.83.84 2.28 2.04 4.26 3.6 5.94 1.56 1.62 3.42 2.88 5.58 3.78 2.16.84 4.59 1.26 7.29 1.26Zm63.047 14.22c-4.14 0-7.83-.81-11.07-2.43-3.18-1.68-5.7-3.99-7.56-6.93-1.8-3-2.7-6.39-2.7-10.17V39.72h15.66v25.47c0 1.2.24 2.25.72 3.15.48.9 1.14 1.59 1.98 2.07.84.48 1.83.72 2.97.72 1.68 0 3.03-.54 4.05-1.62 1.08-1.08 1.62-2.52 1.62-4.32V39.72h15.66v25.47c0 3.84-.9 7.23-2.7 10.17-1.8 2.94-4.32 5.25-7.56 6.93-3.18 1.62-6.87 2.43-11.07 2.43Zm37.152-.99V21.54h15.66v62.19h-15.66Zm-9.72-30.96V39.72h35.1v13.05h-35.1Zm46.925 30.96V36.48c0-3.6.78-6.84 2.34-9.72 1.56-2.94 3.81-5.28 6.75-7.02 3-1.8 6.57-2.7 10.71-2.7 1.92 0 3.69.24 5.31.72 1.68.48 3.36 1.23 5.04 2.25l-7.11 11.88a6.03 6.03 0 0 0-1.62-.63c-.48-.18-1.02-.27-1.62-.27-1.32 0-2.34.42-3.06 1.26-.72.78-1.08 1.83-1.08 3.15v48.33h-15.66Zm-9.36-30.96V39.72h45v13.05h-45Zm39.24 30.96V39.72h15.66v44.01h-15.66Zm7.83-46.89c-2.22 0-4.08-.75-5.58-2.25-1.44-1.5-2.16-3.36-2.16-5.58s.72-4.08 2.16-5.58c1.5-1.56 3.36-2.34 5.58-2.34 2.28 0 4.14.78 5.58 2.34 1.44 1.5 2.16 3.36 2.16 5.58s-.72 4.08-2.16 5.58c-1.44 1.5-3.3 2.25-5.58 2.25Zm24.662 46.89V21.54h15.66v62.19h-15.66Zm-9.72-30.96V39.72h35.1v13.05h-35.1Z"/>
  </mask>
  <path fill="#000" fill-opacity=".5" d="m43.577 82.38-.376.927.376-.927Zm-10.89-7.02-.7.714.007.007.693-.721Zm-7.2-10.53-.92.392.002.005.918-.397Zm-.09-26.1-.918-.397-.003.006.92.391Zm18-17.46.364.931.012-.004-.376-.927Zm27.18 0-.376.927.011.004.365-.931Zm17.91 17.46-.923.386.005.011.918-.397Zm0 26.1-.918-.397-.005.011.923.386Zm-7.11 10.62.7.714.007-.007-.707-.707Zm-10.8 7.02.369.93.007-.003-.376-.927Zm-4.23-14.31.509.86-.51-.86Zm6.12-6.57-.89-.455.89.455Zm.9-17.46-.946.324.003.01.004.012.939-.346Zm-3.51-5.85-.733.68.006.007.007.007.72-.694Zm-22.23-2.88.494.87.007-.005.008-.004-.51-.861Zm-6.12 6.48-.89-.455.89.455Zm-.99 17.64-.949.316.005.015.005.015.939-.346Zm3.6 5.94-.733.68.006.007.007.007.72-.694Zm5.58 3.78-.385.923.011.005.011.004.363-.932Zm7.47 14.66c-4.804 0-9.205-.82-13.214-2.447l-.752 1.854c4.27 1.733 8.93 2.593 13.966 2.593v-2Zm-13.214-2.447c-4.026-1.633-7.548-3.905-10.573-6.814l-1.386 1.442c3.214 3.09 6.953 5.5 11.207 7.226l.752-1.854Zm-10.566-6.807c-2.966-2.907-5.293-6.31-6.983-10.213l-1.835.794c1.79 4.136 4.263 7.754 7.418 10.847l1.4-1.428Zm-6.98-10.208c-1.685-3.95-2.53-8.195-2.53-12.748h-2c0 4.807.894 9.322 2.69 13.532l1.84-.784Zm-2.53-12.748c0-4.558.817-8.743 2.44-12.57l-1.84-.78c-1.738 4.093-2.6 8.548-2.6 13.35h2Zm2.438-12.563c1.69-3.904 4.016-7.306 6.982-10.213l-1.4-1.428c-3.155 3.092-5.628 6.71-7.418 10.847l1.835.794Zm6.982-10.213c2.96-2.902 6.445-5.14 10.464-6.713l-.729-1.862c-4.26 1.667-7.976 4.05-11.135 7.147l1.4 1.428Zm10.476-6.717c4.009-1.627 8.41-2.447 13.214-2.447v-2c-5.036 0-9.695.86-13.966 2.593l.752 1.854Zm13.214-2.447c4.804 0 9.205.82 13.214 2.447l.752-1.854c-4.271-1.733-8.93-2.593-13.966-2.593v2Zm13.225 2.451c4.02 1.573 7.504 3.81 10.465 6.713l1.4-1.428c-3.16-3.098-6.875-5.48-11.136-7.147l-.729 1.862Zm10.465 6.713c2.963 2.905 5.258 6.303 6.887 10.202l1.846-.772c-1.731-4.14-4.176-7.763-7.333-10.858l-1.4 1.428Zm6.892 10.213c1.682 3.886 2.528 8.1 2.528 12.653h2c0-4.807-.895-9.293-2.692-13.447l-1.836.794Zm2.528 12.653c0 4.553-.846 8.767-2.528 12.653l1.835.794c1.798-4.154 2.693-8.64 2.693-13.447h-2Zm-2.533 12.664a31.71 31.71 0 0 1-6.894 10.299l1.414 1.414a33.71 33.71 0 0 0 7.325-10.941l-1.845-.772Zm-6.887 10.292c-2.963 2.905-6.452 5.174-10.476 6.807l.752 1.854c4.255-1.727 7.967-4.138 11.124-7.233l-1.4-1.428Zm-10.47 6.805c-3.95 1.568-8.293 2.359-13.04 2.359v2c4.973 0 9.57-.83 13.779-2.5l-.738-1.86ZM56.988 71.5c3.747 0 7.05-.813 9.869-2.48l-1.018-1.72c-2.46 1.453-5.399 2.2-8.851 2.2v2Zm9.869-2.48c2.808-1.659 4.978-3.992 6.501-6.975l-1.78-.91c-1.358 2.657-3.268 4.704-5.739 6.164l1.018 1.722Zm6.501-6.975c1.525-2.986 2.27-6.447 2.27-10.355h-2c0 3.652-.695 6.79-2.05 9.445l1.78.91Zm2.27-10.355c0-2.862-.436-5.501-1.322-7.906l-1.877.692c.794 2.155 1.199 4.556 1.199 7.214h2Zm-1.314-7.884c-.824-2.408-2.067-4.487-3.736-6.22l-1.44 1.388c1.45 1.507 2.547 3.328 3.284 5.48l1.892-.648ZM70.59 37.6a16.823 16.823 0 0 0-5.929-4.113l-.769 1.846a14.823 14.823 0 0 1 5.232 3.627l1.466-1.36Zm-5.929-4.113c-2.299-.958-4.862-1.427-7.674-1.427v2c2.588 0 4.884.431 6.905 1.273l.77-1.846Zm-7.674-1.427c-3.748 0-7.05.813-9.869 2.48l1.017 1.72c2.461-1.453 5.4-2.2 8.852-2.2v-2Zm-9.854 2.47c-2.818 1.601-4.992 3.91-6.517 6.895l1.781.91c1.355-2.654 3.261-4.666 5.724-6.066l-.988-1.738Zm-6.517 6.895c-1.523 2.984-2.27 6.415-2.27 10.265h2c0-3.59.695-6.699 2.051-9.355l-1.78-.91Zm-2.27 10.265c0 2.97.403 5.689 1.222 8.146l1.898-.632c-.741-2.223-1.12-4.724-1.12-7.514h-2Zm1.232 8.176c.883 2.396 2.15 4.492 3.806 6.274l1.466-1.36c-1.465-1.578-2.598-3.442-3.395-5.606l-1.877.692Zm3.819 6.288c1.658 1.722 3.634 3.059 5.915 4.01l.77-1.847c-2.04-.85-3.784-2.033-5.245-3.55l-1.44 1.387Zm5.937 4.018c2.293.892 4.849 1.328 7.653 1.328v-2c-2.596 0-4.9-.404-6.928-1.192l-.725 1.864Zm59.63 12.118-.467.884.01.005.01.005.447-.894Zm-7.56-6.93-.858.514.006.01.007.01.845-.534Zm-2.7-35.64v-1h-1v1h1Zm15.66 0h1v-1h-1v1Zm9.72 29.79-.707-.707-.01.01-.01.01.727.687Zm1.62-29.79v-1h-1v1h1Zm15.66 0h1v-1h-1v1Zm-2.7 35.64.853.522-.853-.522Zm-7.56 6.93.454.891.006-.003-.46-.888Zm-11.07 1.43c-4.007 0-7.54-.783-10.623-2.324l-.894 1.788c3.397 1.7 7.244 2.536 11.517 2.536v-2Zm-10.603-2.314c-3.031-1.602-5.419-3.793-7.182-6.58l-1.69 1.069c1.956 3.092 4.609 5.52 7.938 7.28l.934-1.77Zm-7.17-6.56c-1.699-2.833-2.557-6.042-2.557-9.656h-2c0 3.946.942 7.517 2.842 10.684l1.715-1.028Zm-2.557-9.656V39.72h-2v25.47h2Zm-1-24.47h15.66v-2h-15.66v2Zm14.66-1v25.47h2V39.72h-2Zm0 25.47c0 1.335.268 2.552.838 3.62l1.764-.94c-.39-.732-.602-1.615-.602-2.68h-2Zm.838 3.62c.563 1.057 1.353 1.89 2.366 2.468l.992-1.736c-.667-.382-1.197-.93-1.594-1.673l-1.764.942Zm2.366 2.468c1.016.58 2.183.852 3.466.852v-2c-.997 0-1.81-.209-2.474-.588l-.992 1.736Zm3.466.852c1.915 0 3.542-.626 4.777-1.933l-1.454-1.374c-.806.853-1.879 1.307-3.323 1.307v2Zm4.757-1.913c1.301-1.3 1.913-3.013 1.913-5.027h-2c0 1.586-.468 2.754-1.327 3.613l1.414 1.414Zm1.913-5.027V39.72h-2v25.47h2Zm-1-24.47h15.66v-2h-15.66v2Zm14.66-1v25.47h2V39.72h-2Zm0 25.47c0 3.677-.86 6.883-2.553 9.648l1.706 1.044c1.907-3.115 2.847-6.69 2.847-10.692h-2Zm-2.553 9.648c-1.699 2.775-4.079 4.963-7.167 6.564l.92 1.776c3.392-1.759 6.052-4.191 7.953-7.296l-1.706-1.044Zm-7.161 6.56c-3.017 1.538-6.546 2.322-10.616 2.322v2c4.33 0 8.18-.836 11.524-2.539l-.908-1.782Zm26.536 2.332h-1v1h1v-1Zm0-62.19v-1h-1v1h1Zm15.66 0h1v-1h-1v1Zm0 62.19v1h1v-1h-1Zm-25.38-30.96h-1v1h1v-1Zm0-13.05v-1h-1v1h1Zm35.1 0h1v-1h-1v1Zm0 13.05v1h1v-1h-1Zm-24.38 30.96V21.54h-2v62.19h2Zm-1-61.19h15.66v-2h-15.66v2Zm14.66-1v62.19h2V21.54h-2Zm1 61.19h-15.66v2h15.66v-2Zm-24.38-29.96V39.72h-2v13.05h2Zm-1-12.05h35.1v-2h-35.1v2Zm34.1-1v13.05h2V39.72h-2Zm1 12.05h-35.1v2h35.1v-2Zm11.825 31.96h-1v1h1v-1Zm2.34-56.97.88.476.004-.007-.884-.469Zm6.75-7.02.51.86.005-.003-.515-.857Zm16.02-1.98-.284.959.01.002.274-.961Zm5.04 2.25.859.513.51-.852-.85-.516-.519.855Zm-7.11 11.88-.485.874.846.47.498-.83-.859-.514Zm-1.62-.63-.351.936.066.025.069.015.216-.976Zm-4.68.99.735.678.013-.013.012-.014-.76-.651Zm-1.08 51.48v1h1v-1h-1Zm-25.02-30.96h-1v1h1v-1Zm0-13.05v-1h-1v1h1Zm45 0h1v-1h-1v1Zm0 13.05v1h1v-1h-1Zm-5.76 30.96h-1v1h1v-1Zm0-44.01v-1h-1v1h1Zm15.66 0h1v-1h-1v1Zm0 44.01v1h1v-1h-1Zm-13.41-49.14-.721.692.007.008.007.007.707-.707Zm0-11.16-.72-.693h-.001l.721.693Zm11.16 0-.734.678.006.008.007.006.721-.692Zm0 11.16-.721-.693.721.693Zm-42.29 49.14V36.48h-2v47.25h2Zm0-47.25c0-3.45.747-6.524 2.22-9.244l-1.759-.952c-1.647 3.04-2.461 6.447-2.461 10.196h2Zm2.224-9.251c1.471-2.773 3.59-4.98 6.376-6.628l-1.019-1.722c-3.094 1.831-5.475 4.305-7.124 7.412l1.767.938Zm6.381-6.631c2.818-1.691 6.203-2.558 10.195-2.558v-2c-4.287 0-8.042.933-11.224 2.843l1.029 1.715Zm10.195-2.558c1.837 0 3.51.23 5.026.679l.569-1.918c-1.724-.51-3.591-.761-5.595-.761v2Zm5.036.681c1.584.453 3.182 1.164 4.795 2.144l1.038-1.71c-1.746-1.06-3.508-1.85-5.284-2.357l-.549 1.924Zm4.456.775-7.11 11.88 1.717 1.027 7.11-11.88-1.717-1.027Zm-5.766 11.52a7.014 7.014 0 0 0-1.889-.732l-.433 1.952c.435.097.885.27 1.351.528l.971-1.748Zm-1.754-.692a5.587 5.587 0 0 0-1.972-.334v2c.501 0 .919.075 1.269.206l.703-1.872Zm-1.972-.334c-1.549 0-2.872.504-3.819 1.61l1.519 1.3c.493-.575 1.21-.91 2.3-.91v-2Zm-3.794 1.582c-.93 1.007-1.346 2.32-1.346 3.828h2c0-1.133.305-1.919.815-2.472l-1.469-1.356Zm-1.346 3.828v48.33h2V35.4h-2Zm1 47.33h-15.66v2h15.66v-2Zm-24.02-29.96V39.72h-2v13.05h2Zm-1-12.05h45v-2h-45v2Zm44-1v13.05h2V39.72h-2Zm1 12.05h-45v2h45v-2Zm-4.76 31.96V39.72h-2v44.01h2Zm-1-43.01h15.66v-2h-15.66v2Zm14.66-1v44.01h2V39.72h-2Zm1 43.01h-15.66v2h15.66v-2Zm-7.83-46.89c-1.968 0-3.569-.654-4.872-1.957l-1.415 1.414c1.697 1.697 3.816 2.543 6.287 2.543v-2Zm-4.858-1.943c-1.248-1.3-1.882-2.906-1.882-4.887h-2c0 2.459.807 4.573 2.439 6.272l1.443-1.385Zm-1.882-4.887c0-1.981.634-3.587 1.882-4.888l-1.443-1.385c-1.632 1.7-2.439 3.814-2.439 6.273h2Zm1.881-4.887c1.306-1.358 2.904-2.033 4.859-2.033v-2c-2.484 0-4.606.885-6.3 2.647l1.441 1.386Zm4.859-2.033c2.024 0 3.61.68 4.846 2.018l1.469-1.356c-1.644-1.782-3.779-2.662-6.315-2.662v2Zm4.859 2.032c1.248 1.3 1.881 2.907 1.881 4.888h2c0-2.459-.806-4.573-2.438-6.273l-1.443 1.386Zm1.881 4.888c0 1.981-.633 3.587-1.881 4.887l1.443 1.386c1.632-1.7 2.438-3.814 2.438-6.273h-2Zm-1.881 4.887c-1.232 1.284-2.822 1.943-4.859 1.943v2c2.524 0 4.654-.841 6.302-2.558l-1.443-1.385Zm19.803 49.833h-1v1h1v-1Zm0-62.19v-1h-1v1h1Zm15.66 0h1v-1h-1v1Zm0 62.19v1h1v-1h-1Zm-25.38-30.96h-1v1h1v-1Zm0-13.05v-1h-1v1h1Zm35.1 0h1v-1h-1v1Zm0 13.05v1h1v-1h-1Zm-24.38 30.96V21.54h-2v62.19h2Zm-1-61.19h15.66v-2h-15.66v2Zm14.66-1v62.19h2V21.54h-2Zm1 61.19h-15.66v2h15.66v-2Zm-24.38-29.96V39.72h-2v13.05h2Zm-1-12.05h35.1v-2h-35.1v2Zm34.1-1v13.05h2V39.72h-2Zm1 12.05h-35.1v2h35.1v-2Z" mask="url(#a)"/>
  <path stroke="#000" stroke-opacity=".25" stroke-width=".5" d="M289.718 38.98H10m68.547-5.708H34.946m207.493 4.315h-20.114M78.547 70.258H34.946M91.877 7v86.731M74.383 7v86.731M97.95 7v86.731M142.109 7v86.731M146.72 7v86.731m9.718-80.827v74.924m99.576-74.924v74.924m-82.418-74.924v74.924m99.577-74.924v74.924M193.647 7v86.731m-68.7-69.173v54.558m-9.823-54.558v54.558M183.322 7v86.731M184.283 7v86.731M240.681 7v86.731M246.296 7v86.731M210.804 7v86.731M282.836 7v86.731M39.595 7v86.731M22.117 7v86.731M289.718 53.51H109.775m179.943-32.73H10"/>
  <circle cx="214" cy="36.5" r="20.25" stroke="#000" stroke-opacity=".25" stroke-width=".5"/>
  <circle cx="120.072" cy="65.505" r="5.375" stroke="#000" stroke-opacity=".25" stroke-width=".5"/>
  <circle cx="213.933" cy="34.799" r="3.534" stroke="#000" stroke-opacity=".25" stroke-width=".5"/>
</svg>
