<svg xmlns="http://www.w3.org/2000/svg" width="420" height="420" fill="none" viewBox="0 0 420 420">
  <path fill="#A5CEC2" d="M210 246.666v-72.703l-62.962 36.351L210 246.666Z"/>
  <path fill="#A5CEC2" d="M147.037 283.017v-72.704l62.962 36.352-62.962 36.352Z" opacity=".5"/>
  <path stroke="#A5CEC2" stroke-linecap="round" stroke-linejoin="round" stroke-width="2.519" d="m91.378 178.643 49.363 28.5" opacity=".5"/>
  <path fill="#A5CEC2" fill-rule="evenodd" d="M210.001 174.726v2.171l-1.241.716-57.342 33.106a3.778 3.778 0 0 0-1.889 3.272v69.318h-5.037v-69.318c0-3.15 1.68-6.06 4.407-7.634l57.342-33.106 2.181-1.259 1.579 2.734Z" clip-rule="evenodd"/>
  <path fill="#A5CEC2" d="M335.926 246.666v-72.703l-62.962 36.351 62.962 36.352Z"/>
  <path fill="#A5CEC2" d="M272.963 283.017v-72.704l62.962 36.352-62.962 36.352Z" opacity=".5"/>
  <path stroke="#A5CEC2" stroke-linecap="round" stroke-linejoin="round" stroke-width="2.519" d="m217.304 178.223 49.363 28.5" opacity=".5"/>
  <path stroke="#A5CEC2" stroke-linecap="square" stroke-linejoin="round" stroke-width="5.037" d="M272.963 280.79v-66.799c0-2.25 1.2-4.328 3.148-5.453l57.342-33.106"/>
  <path stroke="#A5CEC2" stroke-linecap="round" stroke-linejoin="round" stroke-width="5.037" d="m206.852 172.188-56.667-32.716a6.294 6.294 0 0 0-6.296 0l-56.667 32.716a6.298 6.298 0 0 0-3.148 5.453v65.433c0 2.25 1.2 4.328 3.148 5.453l56.667 32.716a6.294 6.294 0 0 0 6.296 0l56.667-32.716a6.294 6.294 0 0 1 6.296 0l56.667 32.716a6.294 6.294 0 0 0 6.296 0l56.667-32.716a6.296 6.296 0 0 0 3.148-5.453v-65.433c0-2.249-1.2-4.328-3.148-5.453l-56.667-32.716a6.294 6.294 0 0 0-6.296 0l-56.667 32.716a6.294 6.294 0 0 1-6.296 0Z"/>
  <path fill="#304F70" fill-rule="evenodd" d="M205.24 221.2a1.663 1.663 0 0 1-.001-1.765l2.914-4.668a1.307 1.307 0 0 1 2.193-.01l8.408 12.832c.327.529.49 1.017.49 1.465 0 .732-.286 1.404-.857 2.014a6.914 6.914 0 0 1-2.081 1.404c-.816.366-1.591.549-2.326.549-.449 0-.857-.122-1.224-.366a2.466 2.466 0 0 1-.918-.916L205.24 221.2Zm-4.368-21.368c.328.535.329 1.208.001 1.743l-2.703 4.407a1.547 1.547 0 0 1-2.596-.008l-8.219-12.752c-.367-.57-.551-1.14-.551-1.71 0-.691.266-1.322.796-1.892a5.596 5.596 0 0 1 1.959-1.343 5.973 5.973 0 0 1 2.326-.488c.612 0 1.142.163 1.591.488.408.285.755.692 1.04 1.221l6.356 10.334Zm-11.13 32.76c.816.368 1.591.551 2.325.551.449 0 .857-.122 1.225-.367.408-.245.714-.551.918-.918l11.598-18.576 12.884-20.046c.368-.571.551-1.142.551-1.713 0-.694-.265-1.326-.796-1.898a5.585 5.585 0 0 0-1.958-1.346 5.944 5.944 0 0 0-2.326-.49c-.612 0-1.142.163-1.591.49-.408.285-.755.693-1.041 1.224l-11.017 17.964-13.221 20.229c-.326.53-.489 1.02-.489 1.469 0 .734.285 1.407.857 2.02a6.909 6.909 0 0 0 2.081 1.407Zm-96.802.556c-.734 0-1.51-.183-2.326-.55a6.946 6.946 0 0 1-2.08-1.408c-.572-.612-.858-1.286-.858-2.02 0-.449.164-.939.49-1.469l10.589-17.26-10.222-17.199c-.367-.572-.55-1.143-.55-1.714 0-.694.265-1.326.795-1.897a5.58 5.58 0 0 1 1.959-1.347c.816-.326 1.591-.49 2.326-.49.653 0 1.183.164 1.591.49.449.286.796.694 1.04 1.224l8.325 14.996 8.385-14.996c.286-.53.632-.938 1.041-1.224.448-.326.979-.49 1.591-.49.775 0 1.55.164 2.326.49a5.575 5.575 0 0 1 1.958 1.347c.531.571.796 1.203.796 1.897 0 .571-.184 1.142-.551 1.714l-10.221 17.199 10.588 17.26c.327.53.49 1.02.49 1.469 0 .734-.286 1.408-.857 2.02-.571.571-1.265 1.04-2.081 1.408-.775.367-1.55.55-2.326.55-.449 0-.877-.122-1.285-.367a2.635 2.635 0 0 1-.857-.918l-8.997-15.73-8.937 15.73c-.203.367-.51.673-.918.918a2.157 2.157 0 0 1-1.224.367Zm-20.532.062c-2.693 0-5.12-.449-7.283-1.347-2.163-.938-3.897-2.428-5.203-4.468-1.265-2.081-1.897-4.835-1.897-8.263v-16.954c0-3.428.632-6.162 1.897-8.202 1.306-2.081 3.02-3.57 5.141-4.468 2.163-.938 4.611-1.408 7.345-1.408 2.693 0 5.121.47 7.284 1.408 2.203.898 3.937 2.387 5.202 4.468 1.265 2.04 1.898 4.774 1.898 8.202v16.954c0 3.428-.633 6.182-1.898 8.263-1.265 2.04-2.999 3.53-5.202 4.468-2.163.898-4.59 1.347-7.284 1.347Zm0-6.978c2 0 3.57-.571 4.713-1.714 1.143-1.142 1.714-2.938 1.714-5.386v-16.954c0-2.448-.571-4.244-1.714-5.386-1.142-1.143-2.713-1.714-4.713-1.714s-3.57.571-4.713 1.714c-1.101 1.142-1.652 2.938-1.652 5.386v16.954c0 2.448.55 4.244 1.652 5.386 1.143 1.143 2.714 1.714 4.713 1.714Zm-44.896 5.876c.653.49 1.51.734 2.57.734H43.12c2.285 0 4.345-.408 6.181-1.224 1.877-.857 3.346-2.224 4.407-4.101 1.102-1.917 1.653-4.468 1.653-7.65v-1.286c0-2.04-.265-3.693-.796-4.957-.53-1.306-1.265-2.347-2.203-3.122-.939-.816-2.04-1.449-3.305-1.897 1.591-.694 2.856-1.857 3.794-3.489.939-1.673 1.408-3.754 1.408-6.243 0-2.897-.592-5.121-1.775-6.672-1.183-1.55-2.713-2.611-4.59-3.183-1.877-.612-3.856-.918-5.937-.918H30.082c-.856 0-1.652.225-2.387.674-.734.408-1.101 1.04-1.101 1.897v39.662c0 .694.306 1.285.918 1.775Zm13.894-6.243H34.55v-14.139h6.855c1.877 0 3.346.49 4.407 1.469 1.06.939 1.591 2.612 1.591 5.019v.979c0 2.326-.53 4.02-1.591 5.08-1.061 1.061-2.53 1.592-4.407 1.592Zm0-20.382H34.55v-10.405h6.794c1.02 0 1.897.204 2.631.612.735.408 1.306 1 1.714 1.775.408.734.612 1.653.612 2.754 0 1.551-.408 2.816-1.224 3.795-.775.979-2 1.469-3.672 1.469Zm130.128 27.727c-2.693 0-5.121-.449-7.283-1.347-2.163-.938-3.897-2.428-5.203-4.468-1.265-2.081-1.897-4.835-1.897-8.263v-16.954c0-3.428.632-6.162 1.897-8.202 1.306-2.081 3.019-3.57 5.141-4.468 2.163-.938 4.611-1.408 7.345-1.408 2.693 0 5.121.47 7.284 1.408 2.203.898 3.937 2.387 5.202 4.468 1.265 2.04 1.898 4.774 1.898 8.202v16.954c0 3.428-.633 6.182-1.898 8.263-1.265 2.04-2.999 3.53-5.202 4.468-2.163.898-4.591 1.347-7.284 1.347Zm0-6.978c2 0 3.57-.571 4.713-1.714 1.143-1.142 1.714-2.938 1.714-5.386v-16.954c0-2.448-.571-4.244-1.714-5.386-1.143-1.143-2.713-1.714-4.713-1.714-1.999 0-3.57.571-4.713 1.714-1.102 1.142-1.652 2.938-1.652 5.386v16.954c0 2.448.55 4.244 1.652 5.386 1.143 1.143 2.714 1.714 4.713 1.714Zm-44.896 5.876c.653.49 1.51.734 2.57.734h13.037c2.286 0 4.346-.408 6.182-1.224 1.877-.857 3.346-2.224 4.407-4.101 1.102-1.917 1.653-4.468 1.653-7.65v-1.286c0-2.04-.265-3.692-.796-4.957-.53-1.306-1.265-2.347-2.203-3.122-.939-.816-2.041-1.449-3.305-1.897 1.591-.694 2.856-1.857 3.794-3.489.939-1.673 1.408-3.754 1.408-6.243 0-2.897-.592-5.121-1.775-6.672-1.183-1.55-2.713-2.611-4.59-3.182-1.877-.613-3.856-.919-5.937-.919h-11.875c-.856 0-1.652.225-2.387.674-.734.408-1.101 1.04-1.101 1.897v39.662c0 .694.306 1.285.918 1.775Zm13.894-6.243h-6.855v-14.139h6.855c1.877 0 3.346.49 4.407 1.469 1.06.939 1.591 2.612 1.591 5.019v.979c0 2.326-.531 4.02-1.591 5.081-1.061 1.06-2.53 1.591-4.407 1.591Zm0-20.382h-6.855v-10.405h6.793c1.021 0 1.898.204 2.632.612.735.408 1.306 1 1.714 1.775.408.735.612 1.653.612 2.754 0 1.551-.408 2.816-1.224 3.795-.775.979-1.999 1.469-3.672 1.469Zm225.939 27.359a6.325 6.325 0 0 1-2.754-.612c-.816-.448-1.225-1.101-1.225-1.958V190.61c0-.857.409-1.489 1.225-1.898a6.325 6.325 0 0 1 2.754-.612c.979 0 1.775.102 2.387.306.653.204 1.245.613 1.775 1.225.571.571 1.163 1.469 1.775 2.693l11.813 22.83V190.61c0-.898.408-1.53 1.224-1.898a6.325 6.325 0 0 1 2.754-.612c1.02 0 1.939.204 2.755.612.816.368 1.224 1 1.224 1.898v39.662c0 .857-.408 1.51-1.224 1.958-.816.408-1.735.612-2.755.612a6.347 6.347 0 0 1-2.632-.55c-.775-.368-1.407-1.021-1.897-1.959l-13.221-24.605v24.544c0 .857-.408 1.51-1.224 1.958-.816.408-1.734.612-2.754.612Zm-29.468-.979c2.162.898 4.59 1.347 7.283 1.347 2.693 0 5.121-.449 7.284-1.347 2.203-.938 3.937-2.428 5.202-4.468 1.265-2.081 1.898-4.835 1.898-8.263v-7.161c0-.735-.225-1.347-.674-1.836-.408-.531-1.02-.796-1.836-.796h-10.405c-.775 0-1.387.327-1.836.979a3.966 3.966 0 0 0-.612 2.143c0 .775.204 1.489.612 2.142.449.653 1.061.979 1.836.979h4.958v3.55c0 2.408-.571 4.203-1.714 5.386-1.142 1.143-2.713 1.714-4.713 1.714-1.999 0-3.57-.571-4.713-1.714-1.102-1.183-1.652-2.978-1.652-5.386v-16.954c0-2.408.55-4.183 1.652-5.325 1.143-1.183 2.714-1.775 4.713-1.775 1.795 0 3.122.306 3.979.918.897.612 1.509 1.387 1.836 2.326.367.898.571 1.836.612 2.815.041.939.449 1.592 1.224 1.959.775.367 1.693.551 2.754.551 1.347 0 2.346-.245 2.999-.735.653-.53.98-1.55.98-3.06 0-2.448-.633-4.55-1.898-6.304-1.265-1.755-2.999-3.101-5.202-4.04-2.163-.938-4.672-1.408-7.529-1.408-2.57 0-4.937.47-7.1 1.408-2.122.898-3.835 2.387-5.141 4.468-1.265 2.04-1.897 4.774-1.897 8.202v16.954c0 3.428.632 6.182 1.897 8.263 1.306 2.04 3.04 3.53 5.203 4.468Zm-15.546.979a6.325 6.325 0 0 1-2.754-.612c-.816-.448-1.224-1.101-1.224-1.958V190.61c0-.898.408-1.53 1.224-1.898a6.325 6.325 0 0 1 2.754-.612c1.02 0 1.938.204 2.754.612.817.368 1.225 1 1.225 1.898v39.662c0 .857-.408 1.51-1.225 1.958-.816.408-1.734.612-2.754.612Zm-28.794-.612c2.162.776 4.57 1.163 7.222 1.163 2.816 0 5.305-.489 7.467-1.469 2.204-1.02 3.938-2.509 5.203-4.468 1.265-1.999 1.897-4.447 1.897-7.345 0-2.285-.347-4.202-1.04-5.753-.694-1.591-1.632-2.917-2.816-3.978a18.525 18.525 0 0 0-3.917-2.693 38.71 38.71 0 0 0-4.162-2.02 72.366 72.366 0 0 1-3.856-1.714c-1.143-.571-2.081-1.224-2.816-1.959-.693-.734-1.04-1.632-1.04-2.693 0-1.02.265-1.856.796-2.509.53-.694 1.326-1.224 2.387-1.592 1.061-.367 2.305-.55 3.733-.55 1.714 0 3.061.204 4.04.612 1.02.367 1.836.754 2.448 1.163.653.367 1.306.55 1.959.55.734 0 1.326-.265 1.775-.795a4.643 4.643 0 0 0 1.04-1.775c.245-.653.367-1.204.367-1.653 0-1.02-.428-1.836-1.285-2.448-.816-.653-1.877-1.163-3.183-1.53a20.729 20.729 0 0 0-3.856-.735c-1.265-.163-2.366-.245-3.305-.245-1.754 0-3.509.225-5.264.674a14.594 14.594 0 0 0-4.835 2.081c-1.428.938-2.591 2.183-3.489 3.733-.857 1.551-1.285 3.469-1.285 5.754 0 2.081.347 3.835 1.041 5.263.734 1.429 1.672 2.632 2.815 3.612a20.213 20.213 0 0 0 3.856 2.509c1.428.694 2.836 1.347 4.223 1.959a48.346 48.346 0 0 1 3.856 1.897c1.184.653 2.122 1.428 2.816 2.326.693.898 1.04 1.999 1.04 3.305 0 1.224-.326 2.224-.979 2.999-.612.776-1.449 1.367-2.509 1.775-1.021.368-2.143.551-3.367.551-1.55 0-2.856-.224-3.917-.673-1.061-.49-1.959-1.041-2.693-1.653a42.797 42.797 0 0 0-1.959-1.652c-.571-.49-1.183-.735-1.836-.735s-1.244.245-1.775.735a4.992 4.992 0 0 0-1.285 1.713c-.286.653-.429 1.265-.429 1.837 0 1.183.612 2.366 1.836 3.55 1.265 1.142 2.959 2.101 5.081 2.876Zm-31.233.613a4.837 4.837 0 0 1-2.387-.613c-.734-.448-1.102-1.101-1.102-1.958v-39.601c0-.857.368-1.489 1.102-1.897a4.495 4.495 0 0 1 2.387-.674h21.79c.897 0 1.53.368 1.897 1.102.408.735.612 1.51.612 2.326 0 .979-.224 1.816-.673 2.51-.408.693-1.02 1.04-1.836 1.04h-17.322v12.241h9.304c.816 0 1.428.327 1.836.98.449.612.673 1.346.673 2.203 0 .694-.204 1.387-.612 2.081-.367.653-1 .979-1.897.979h-9.304v12.303h17.322c.816 0 1.428.347 1.836 1.04.449.694.673 1.531.673 2.51 0 .816-.204 1.591-.612 2.326-.367.734-1 1.102-1.897 1.102h-21.79Zm-35.686-.735c.652.49 1.509.734 2.57.734h10.834c2.734 0 5.182-.448 7.345-1.346 2.162-.939 3.876-2.428 5.141-4.468 1.306-2.081 1.959-4.835 1.959-8.263v-16.587c0-3.428-.653-6.162-1.959-8.202-1.265-2.081-2.979-3.57-5.141-4.468-2.163-.938-4.611-1.408-7.345-1.408h-10.834c-1.061 0-1.918.245-2.57.735-.613.49-.919 1.081-.919 1.775v39.723c0 .694.306 1.285.919 1.775Zm13.404-6.243h-6.366v-30.787h6.427c1.999 0 3.57.592 4.713 1.775 1.142 1.142 1.714 2.917 1.714 5.325v16.587c0 2.407-.572 4.203-1.714 5.386-1.143 1.143-2.734 1.714-4.774 1.714Z" clip-rule="evenodd"/>
  <path fill="#4D9395" fill-rule="evenodd" d="M56.787 109.4h2.64c.566 0 1.003-.176 1.312-.528.31-.352.464-.757.464-1.216 0-.309-.07-.597-.208-.864a1.592 1.592 0 0 0-.608-.64c-.266-.16-.586-.24-.96-.24h-2.64v3.488Zm2.368-5.088h-2.368V101.4h2.368c.48 0 .864.123 1.152.368.288.245.432.608.432 1.088 0 .48-.144.843-.432 1.088-.288.245-.672.368-1.152.368Zm.048-4.512h-4.256V111h4.4c.8 0 1.472-.144 2.016-.432.555-.299.97-.688 1.248-1.168.288-.48.432-1.008.432-1.584 0-.704-.197-1.317-.592-1.84a3.608 3.608 0 0 0-1.157-.983c.325-.214.588-.463.79-.745.33-.448.495-.965.495-1.552 0-.501-.122-.971-.368-1.408-.245-.437-.618-.795-1.12-1.072-.501-.277-1.13-.416-1.888-.416ZM70.74 111v-4.752h.475l3.83 4.752h2.32l-3.93-4.763a3.935 3.935 0 0 0 1.513-.389 2.92 2.92 0 0 0 1.232-1.12c.3-.48.448-1.045.448-1.696 0-.619-.149-1.168-.448-1.648a2.988 2.988 0 0 0-1.232-1.152c-.533-.288-1.152-.432-1.856-.432H68.9V111h1.84Zm2.256-6.272H70.74V101.4h2.272c.566 0 1.003.16 1.312.48.31.32.464.715.464 1.184 0 .523-.16.933-.48 1.232-.309.288-.746.432-1.312.432ZM81.537 111l4.608-11.2h1.28l4.576 11.2h-1.984l-.853-2.16H84.35l-.86 2.16h-1.953Zm5.23-8.225 1.765 4.465h-3.544l1.78-4.465ZM97.48 111V99.8h1.28l5.92 7.728V99.8h1.84V111h-1.28l-5.92-7.729V111h-1.84Zm17.308-1.68h2.368c.768 0 1.44-.165 2.016-.496a3.443 3.443 0 0 0 1.36-1.376c.331-.597.496-1.285.496-2.064 0-.768-.165-1.445-.496-2.032a3.548 3.548 0 0 0-1.376-1.376c-.576-.331-1.242-.496-2-.496h-2.368v7.84Zm2.416-9.52h-4.256V111h4.288c.8 0 1.547-.139 2.24-.416a5.654 5.654 0 0 0 1.808-1.184 5.565 5.565 0 0 0 1.2-1.792 5.624 5.624 0 0 0 .432-2.208c0-.8-.144-1.536-.432-2.208a5.26 5.26 0 0 0-1.216-1.776 5.31 5.31 0 0 0-1.808-1.184 5.818 5.818 0 0 0-2.256-.432Zm11.588 0h1.84V111h-1.84V99.8Zm8.266 0h1.28l5.92 7.728V99.8h1.84V111h-1.28l-5.92-7.729V111h-1.84V99.8Zm20.524 11.36a5.365 5.365 0 0 1-2.176-.448 5.664 5.664 0 0 1-1.792-1.232 6.147 6.147 0 0 1-1.216-1.84 5.9 5.9 0 0 1-.432-2.256c0-.8.144-1.547.432-2.24a5.95 5.95 0 0 1 1.216-1.824 5.472 5.472 0 0 1 1.824-1.232 5.757 5.757 0 0 1 2.272-.448c.886 0 1.707.17 2.464.512a5.134 5.134 0 0 1 1.904 1.456l-1.248 1.248a3.135 3.135 0 0 0-1.328-1.072 4.222 4.222 0 0 0-1.792-.384c-.768 0-1.445.171-2.032.512a3.452 3.452 0 0 0-1.344 1.392c-.32.597-.48 1.291-.48 2.08 0 .789.16 1.488.48 2.096a3.758 3.758 0 0 0 1.328 1.408c.555.341 1.184.512 1.888.512.747 0 1.387-.133 1.92-.4.544-.277.96-.683 1.248-1.216.181-.341.305-.731.372-1.168h-3.572v-1.68h5.536v.256c0 1.333-.24 2.443-.72 3.328-.469.885-1.114 1.547-1.936 1.984-.821.437-1.76.656-2.816.656Zm27.999 0c-.843 0-1.6-.192-2.272-.576a4.337 4.337 0 0 1-1.6-1.568c-.384-.672-.576-1.429-.576-2.272V99.8h1.84v6.928c0 .544.112 1.019.336 1.424.234.395.549.704.944.928.394.213.837.32 1.328.32.501 0 .944-.107 1.328-.32.384-.224.688-.533.912-.928.224-.405.336-.875.336-1.408V99.8h1.84v6.96c0 .843-.192 1.595-.576 2.256a4.258 4.258 0 0 1-1.568 1.568c-.662.384-1.419.576-2.272.576Zm10.727-11.36h1.84V111h-1.84V99.8Zm22.605 0h-1.84V111h1.84V99.8Zm7.706 0h-1.28V111h1.84v-7.729l5.92 7.729h1.28V99.8h-1.84v7.728l-5.92-7.728Zm15.453 0h-1.264V111h1.84v-4.8h5.12v-1.68h-5.12v-3.04h5.392V99.8h-5.968Zm14.554 10.912c.693.299 1.44.448 2.24.448.789 0 1.525-.149 2.208-.448a5.612 5.612 0 0 0 1.808-1.232 5.581 5.581 0 0 0 1.216-1.824 5.71 5.71 0 0 0 .448-2.256c0-.8-.149-1.547-.448-2.24a5.536 5.536 0 0 0-1.216-1.84 5.472 5.472 0 0 0-1.824-1.232 5.486 5.486 0 0 0-2.224-.448c-.8 0-1.547.15-2.24.448a5.509 5.509 0 0 0-1.808 1.232 5.95 5.95 0 0 0-1.216 1.824 5.78 5.78 0 0 0-.432 2.24c0 .8.144 1.552.432 2.256a5.992 5.992 0 0 0 1.232 1.84 5.804 5.804 0 0 0 1.824 1.232Zm4.192-1.824c-.565.341-1.227.512-1.984.512a4.016 4.016 0 0 1-1.536-.288 3.742 3.742 0 0 1-1.216-.832 3.887 3.887 0 0 1-.784-1.264 4.769 4.769 0 0 1-.272-1.632c0-.789.16-1.483.48-2.08a3.6 3.6 0 0 1 1.344-1.392c.576-.341 1.237-.512 1.984-.512.565 0 1.077.096 1.536.288a3.43 3.43 0 0 1 1.216.832c.341.352.603.773.784 1.264.192.48.288 1.013.288 1.6 0 .789-.165 1.488-.496 2.096a3.557 3.557 0 0 1-1.344 1.408Zm11.439-2.64V111h-1.84V99.8h4.192c.704 0 1.323.144 1.856.432a2.99 2.99 0 0 1 1.232 1.152c.299.48.448 1.029.448 1.648 0 .651-.149 1.216-.448 1.696-.288.48-.699.853-1.232 1.12-.445.222-.95.352-1.514.389l3.93 4.763h-2.32l-3.83-4.752h-.474Zm0-1.52h2.256c.565 0 1.003-.144 1.312-.432.32-.299.48-.709.48-1.232a1.64 1.64 0 0 0-.464-1.184c-.309-.32-.747-.48-1.312-.48h-2.272v3.328Zm13.268-4.928h-1.28V111h1.84v-7.172l3.04 4.996h1.28l3.04-4.996V111h1.84V99.8h-1.28l-4.24 6.979-4.24-6.98Zm21.245 0h-1.28l-4.608 11.2h1.952l.861-2.16h4.814l.853 2.16h1.984l-4.576-11.2Zm1.106 7.44-1.764-4.465-1.779 4.465h3.543Zm10.357-5.76V111h1.84v-9.52h3.648V99.8h-9.136v1.68h3.648Zm12.93-1.68h-1.84V111h1.84V99.8Zm9.338 10.912c.693.299 1.44.448 2.24.448.789 0 1.525-.149 2.208-.448a5.612 5.612 0 0 0 1.808-1.232 5.581 5.581 0 0 0 1.216-1.824 5.71 5.71 0 0 0 .448-2.256c0-.8-.149-1.547-.448-2.24a5.536 5.536 0 0 0-1.216-1.84 5.472 5.472 0 0 0-1.824-1.232 5.486 5.486 0 0 0-2.224-.448c-.8 0-1.547.15-2.24.448a5.509 5.509 0 0 0-1.808 1.232 5.95 5.95 0 0 0-1.216 1.824 5.78 5.78 0 0 0-.432 2.24c0 .8.144 1.552.432 2.256a5.992 5.992 0 0 0 1.232 1.84 5.804 5.804 0 0 0 1.824 1.232Zm4.192-1.824c-.565.341-1.227.512-1.984.512a4.016 4.016 0 0 1-1.536-.288 3.742 3.742 0 0 1-1.216-.832 3.887 3.887 0 0 1-.784-1.264 4.769 4.769 0 0 1-.272-1.632c0-.789.16-1.483.48-2.08a3.6 3.6 0 0 1 1.344-1.392c.576-.341 1.237-.512 1.984-.512.565 0 1.077.096 1.536.288a3.43 3.43 0 0 1 1.216.832c.341.352.603.773.784 1.264.192.48.288 1.013.288 1.6 0 .789-.165 1.488-.496 2.096a3.557 3.557 0 0 1-1.344 1.408Zm10.879-9.088h-1.28V111h1.84v-7.729l5.92 7.729h1.28V99.8h-1.84v7.728l-5.92-7.728ZM68.198 134l-4.528-11.2h2l3.186 8.173 3.214-8.173h1.968l-4.56 11.2h-1.28Zm11.445 0v-11.2h1.84V134h-1.84Zm11.166.16c-.885 0-1.637-.16-2.255-.48-.62-.32-1.174-.789-1.665-1.408l1.249-1.248c.309.448.677.8 1.103 1.056.427.245.971.368 1.633.368.618 0 1.109-.128 1.472-.384.373-.256.56-.608.56-1.056 0-.373-.097-.677-.288-.912a2.134 2.134 0 0 0-.768-.576 6.189 6.189 0 0 0-1.04-.416 30.35 30.35 0 0 1-1.136-.416 5.228 5.228 0 0 1-1.04-.592 2.644 2.644 0 0 1-.752-.912c-.193-.373-.288-.848-.288-1.424 0-.661.16-1.221.48-1.68a3.14 3.14 0 0 1 1.328-1.072 4.545 4.545 0 0 1 1.855-.368c.736 0 1.392.144 1.968.432.587.288 1.062.656 1.425 1.104l-1.249 1.248c-.32-.363-.655-.629-1.007-.8a2.49 2.49 0 0 0-1.184-.272c-.555 0-.992.112-1.313.336-.309.224-.464.539-.464.944 0 .341.096.619.288.832.192.203.443.379.752.528.32.139.667.272 1.04.4.384.128.763.272 1.136.432.385.16.731.368 1.04.624.32.245.577.565.769.96.192.395.288.891.288 1.488 0 1.003-.358 1.797-1.072 2.384-.705.587-1.66.88-2.865.88Zm14.279 0c-.843 0-1.6-.192-2.272-.576a4.337 4.337 0 0 1-1.6-1.568c-.384-.672-.576-1.429-.576-2.272V122.8h1.84v6.928c0 .544.112 1.019.336 1.424.234.395.549.704.944.928.394.213.837.32 1.328.32.501 0 .944-.107 1.328-.32.384-.224.688-.533.912-.928.224-.405.336-.875.336-1.408V122.8h1.84v6.96c0 .843-.192 1.595-.576 2.256a4.258 4.258 0 0 1-1.568 1.568c-.662.384-1.419.576-2.272.576Zm9.504-.16 4.608-11.2h1.28l4.576 11.2h-1.984l-.854-2.16h-4.813l-.861 2.16h-1.952Zm5.23-8.225 1.764 4.465h-3.543l1.779-4.465ZM130.533 134v-11.2h1.84v9.52h5.28V134h-7.12Zm26.962-.416c.672.384 1.43.576 2.272.576.854 0 1.611-.192 2.272-.576a4.25 4.25 0 0 0 1.568-1.568c.384-.661.576-1.413.576-2.256v-6.96h-1.84v6.944c0 .533-.112 1.003-.336 1.408a2.456 2.456 0 0 1-.912.928c-.384.213-.826.32-1.328.32-.49 0-.933-.107-1.328-.32a2.546 2.546 0 0 1-.944-.928c-.224-.405-.336-.88-.336-1.424V122.8h-1.84v6.944c0 .843.192 1.6.576 2.272a4.344 4.344 0 0 0 1.6 1.568Zm17.144-4.124 2.998 4.54h2.144l-3.932-5.826 3.74-5.374h-2.064l-2.848 4.159-2.928-4.159h-2.176l3.894 5.455-4.086 5.745h2.064l3.194-4.54Zm26.124 4.7c-.886 0-1.638-.16-2.256-.48-.619-.32-1.174-.789-1.664-1.408l1.248-1.248c.309.448.677.8 1.104 1.056.426.245.97.368 1.632.368.618 0 1.109-.128 1.472-.384.373-.256.56-.608.56-1.056 0-.373-.096-.677-.288-.912a2.134 2.134 0 0 0-.768-.576 6.21 6.21 0 0 0-1.04-.416 29.965 29.965 0 0 1-1.136-.416 5.212 5.212 0 0 1-1.04-.592 2.637 2.637 0 0 1-.752-.912c-.192-.373-.288-.848-.288-1.424 0-.661.16-1.221.48-1.68.33-.469.773-.827 1.328-1.072a4.542 4.542 0 0 1 1.856-.368c.736 0 1.392.144 1.968.432.586.288 1.061.656 1.424 1.104l-1.248 1.248c-.32-.363-.656-.629-1.008-.8a2.492 2.492 0 0 0-1.184-.272c-.555 0-.992.112-1.312.336-.31.224-.464.539-.464.944 0 .341.096.619.288.832.192.203.442.379.752.528.32.139.666.272 1.04.4.384.128.762.272 1.136.432.384.16.73.368 1.04.624.32.245.576.565.768.96.192.395.288.891.288 1.488 0 1.003-.358 1.797-1.072 2.384-.704.587-1.659.88-2.864.88Zm12.102-.16v-9.52h-3.648v-1.68h9.136v1.68h-3.648V134h-1.84Zm15.508.16c-.8 0-1.547-.149-2.24-.448a5.781 5.781 0 0 1-1.824-1.232 5.974 5.974 0 0 1-1.232-1.84 5.9 5.9 0 0 1-.432-2.256c0-.8.144-1.547.432-2.24a5.932 5.932 0 0 1 1.216-1.824 5.498 5.498 0 0 1 1.808-1.232 5.594 5.594 0 0 1 2.24-.448c.8 0 1.541.149 2.224.448a5.472 5.472 0 0 1 1.824 1.232 5.551 5.551 0 0 1 1.216 1.84c.298.693.448 1.44.448 2.24 0 .8-.15 1.552-.448 2.256a5.597 5.597 0 0 1-1.216 1.824 5.612 5.612 0 0 1-1.808 1.232 5.444 5.444 0 0 1-2.208.448Zm-.032-1.76c.757 0 1.418-.171 1.984-.512a3.557 3.557 0 0 0 1.344-1.408c.33-.608.496-1.307.496-2.096 0-.587-.096-1.12-.288-1.6a3.577 3.577 0 0 0-.784-1.264 3.44 3.44 0 0 0-1.216-.832 3.944 3.944 0 0 0-1.536-.288c-.747 0-1.408.171-1.984.512a3.586 3.586 0 0 0-1.344 1.392c-.32.597-.48 1.291-.48 2.08 0 .587.09 1.131.272 1.632.192.491.453.912.784 1.264.341.352.746.629 1.216.832.469.192.981.288 1.536.288Zm13.423 1.6v-4.752h.474l3.83 4.752h2.32l-3.93-4.763a3.936 3.936 0 0 0 1.514-.389c.533-.267.944-.64 1.232-1.12.299-.48.448-1.045.448-1.696 0-.619-.149-1.168-.448-1.648a2.99 2.99 0 0 0-1.232-1.152c-.533-.288-1.152-.432-1.856-.432h-4.192V134h1.84Zm2.256-6.272h-2.256V124.4h2.272c.565 0 1.003.16 1.312.48.309.32.464.715.464 1.184 0 .523-.16.933-.48 1.232-.309.288-.747.432-1.312.432ZM258.199 134v-4.944l4.096-6.256h-2.096l-2.912 4.58-2.912-4.58h-2.128l4.112 6.326V134h1.84Zm11.775 0v-9.52h-3.648v-1.68h9.136v1.68h-3.648V134h-1.84Zm11.09-11.2h7.456v1.68h-5.616v2.992h5.152v1.616h-5.152v3.232h5.696V134h-7.536v-11.2Zm13.438 0h1.84v9.52h5.28V134h-7.12v-11.2Zm12.797 0h1.84v9.52h5.28V134h-7.12v-11.2Zm12.797 0h1.84V134h-1.84v-11.2Zm8.265 0h1.28l5.92 7.728V122.8h1.84V134h-1.28l-5.92-7.729V134h-1.84v-11.2Zm20.525 11.36a5.365 5.365 0 0 1-2.176-.448 5.653 5.653 0 0 1-1.792-1.232 6.147 6.147 0 0 1-1.216-1.84 5.9 5.9 0 0 1-.432-2.256c0-.8.144-1.547.432-2.24a5.95 5.95 0 0 1 1.216-1.824 5.472 5.472 0 0 1 1.824-1.232 5.75 5.75 0 0 1 2.272-.448c.885 0 1.707.171 2.464.512a5.142 5.142 0 0 1 1.904 1.456l-1.248 1.248a3.14 3.14 0 0 0-1.328-1.072 4.225 4.225 0 0 0-1.792-.384c-.768 0-1.445.171-2.032.512a3.452 3.452 0 0 0-1.344 1.392c-.32.597-.48 1.291-.48 2.08 0 .789.16 1.488.48 2.096a3.75 3.75 0 0 0 1.328 1.408c.555.341 1.184.512 1.888.512.747 0 1.387-.133 1.92-.4.544-.277.96-.683 1.248-1.216.181-.341.305-.731.372-1.168h-3.572v-1.68h5.536v.256c0 1.333-.24 2.443-.72 3.328-.469.885-1.115 1.547-1.936 1.984-.821.437-1.76.656-2.816.656ZM101.155 316.343c.067-3.014.533-5.889 1.398-8.623.228-.735.595-1.267 1.102-1.596.532-.355 1.267-.532 2.204-.532.507 0 .861.063 1.064.19.203.126.304.367.304.722 0 .405-.19 1.317-.57 2.736a58.654 58.654 0 0 0-.608 2.66c-.152.76-.279 1.697-.38 2.812.836-2.179 1.773-3.952 2.812-5.32 1.039-1.368 2.052-2.344 3.04-2.926 1.013-.583 1.938-.874 2.774-.874 1.647 0 2.47.823 2.47 2.47 0 .988-.279 2.774-.836 5.358-.481 2.204-.722 3.66-.722 4.37 0 1.013.367 1.52 1.102 1.52.507 0 1.102-.304 1.786-.912.387-.346.841-.804 1.363-1.375a12.097 12.097 0 0 1-.106-1.627c0-1.748.368-3.37 1.102-4.864.735-1.52 1.748-2.724 3.04-3.61 1.318-.887 2.8-1.33 4.446-1.33 1.47 0 2.648.443 3.534 1.33.887.861 1.33 2.039 1.33 3.534 0 1.748-.633 3.255-1.9 4.522-1.241 1.241-3.369 2.229-6.384 2.964.608 1.165 1.634 1.748 3.078 1.748 1.039 0 1.888-.241 2.546-.722.684-.482 1.47-1.292 2.356-2.432.304-.38.646-.57 1.026-.57.33 0 .583.152.76.456.203.304.304.722.304 1.254 0 .912-.215 1.697-.646 2.356a7.356 7.356 0 0 1-2.812 2.546c-1.14.608-2.508.912-4.104.912-2.432 0-4.319-.722-5.662-2.166a7.082 7.082 0 0 1-.611-.771 15.254 15.254 0 0 1-2.014 1.645c-1.241.861-2.66 1.292-4.256 1.292-1.292 0-2.267-.368-2.926-1.102-.659-.76-.988-1.85-.988-3.268 0-.71.177-1.976.532-3.8.329-1.596.494-2.698.494-3.306 0-.406-.139-.608-.418-.608-.329 0-.798.43-1.406 1.292-.583.836-1.191 1.95-1.824 3.344a27.263 27.263 0 0 0-1.482 4.408c-.279 1.19-.608 2.001-.988 2.432-.355.405-.925.608-1.71.608-.963 0-1.647-.507-2.052-1.52a6.516 6.516 0 0 1-.274-.991c-.471.422-.96.815-1.467 1.181-1.241.886-2.495 1.33-3.762 1.33-1.647 0-2.85-.583-3.61-1.748-.735-1.166-1.102-2.711-1.102-4.636 0-.988.101-2.204.304-3.648.228-1.444.52-2.863.874-4.256-2.533 0-5.535.114-9.006.342-.557 3.546-.836 6.852-.836 9.918a75 75 0 0 0 .38 7.372c.279 2.584.684 3.876 1.216 3.876.253 0 .52-.444.798-1.33.279-.887.507-2.103.684-3.648.177-1.546.266-3.256.266-5.13a70.05 70.05 0 0 0-.342-6.65c-.05-.71.063-1.229.342-1.558.304-.355.747-.532 1.33-.532.532 0 .925.139 1.178.418.253.278.405.747.456 1.406.127 1.849.19 4.053.19 6.612 0 4.129-.507 7.663-1.52 10.602-.988 2.938-2.533 4.408-4.636 4.408-1.799 0-3.09-1.305-3.876-3.914-.785-2.584-1.178-6.473-1.178-11.666 0-3.066.24-6.346.722-9.842a5.06 5.06 0 0 1-.684.038c-.785 0-1.317-.14-1.596-.418-.253-.279-.38-.71-.38-1.292 0-.634.165-1.14.494-1.52.355-.38 1.013-.608 1.976-.684.177-.026.456-.038.836-.038.684-3.42 1.558-6.524 2.622-9.31 1.064-2.787 2.28-4.991 3.648-6.612 1.368-1.647 2.812-2.47 4.332-2.47 1.19 0 2.103.468 2.736 1.406.659.912.988 2.09.988 3.534 0 5.092-2.052 9.424-6.156 12.996 3.09-.127 5.586-.19 7.486-.19.71 0 1.292.139 1.748.418.456.253.684.76.684 1.52 0 .506-.089 1.279-.266 2.318a66.882 66.882 0 0 1-.532 3.116c-.456 2.153-.684 3.572-.684 4.256 0 .76.101 1.342.304 1.748.203.405.545.608 1.026.608.43 0 .975-.292 1.634-.874.517-.459 1.214-1.157 2.091-2.093ZM87.056 295.18c.937-2.635 1.71-3.952 2.318-3.952.557 0 .836.747.836 2.242 0 1.19-.215 2.495-.646 3.914-.405 1.393-1.039 2.748-1.9 4.066a11.551 11.551 0 0 1-3.154 3.306c.76-3.75 1.609-6.942 2.546-9.576Zm7.296 7.182c.532.481 1.33.722 2.394.722 1.09 0 1.963-.292 2.622-.874.659-.608.988-1.419.988-2.432 0-.836-.291-1.482-.874-1.938-.583-.456-1.343-.684-2.28-.684-1.039 0-1.913.304-2.622.912-.684.582-1.026 1.317-1.026 2.204 0 .886.266 1.583.798 2.09Zm30.548 8.588c.659-1.09 1.457-1.634 2.394-1.634.456 0 .811.152 1.064.456.279.278.418.658.418 1.14 0 .937-.43 1.76-1.292 2.47-.861.709-2.039 1.241-3.534 1.596v-.076c0-1.546.317-2.863.95-3.952Zm40.231 5.6c.037-1.045.172-2.317.408-3.814a43.123 43.123 0 0 1 1.14-5.016c.228-.811.532-1.368.912-1.672.38-.304.988-.456 1.824-.456 1.292 0 1.938.43 1.938 1.292 0 .633-.241 2.102-.722 4.408-.608 2.786-.912 4.674-.912 5.662 0 .76.101 1.342.304 1.748.202.405.544.608 1.026.608.456 0 1.026-.317 1.71-.95a21.35 21.35 0 0 0 1.259-1.295 12.246 12.246 0 0 1 1.404-5.507c.938-1.824 2.179-3.281 3.724-4.37 1.571-1.115 3.23-1.672 4.978-1.672.558 0 .925.114 1.102.342.203.202.368.582.494 1.14a8.142 8.142 0 0 1 1.672-.152c.634 0 1.077.101 1.33.304.279.177.418.544.418 1.102 0 .304-.012.544-.038.722-.101.785-.418 2.774-.95 5.966-.101.608-.215 1.279-.342 2.014-.101.709-.215 1.469-.342 2.28a82.21 82.21 0 0 1 4.836-3.509c.065-.87.185-1.866.362-2.989a43.123 43.123 0 0 1 1.14-5.016c.228-.811.532-1.368.912-1.672.38-.304.988-.456 1.824-.456 1.292 0 1.938.43 1.938 1.292 0 .633-.241 2.102-.722 4.408-.608 2.786-.912 4.674-.912 5.662 0 .76.101 1.342.304 1.748.202.405.544.608 1.026.608.456 0 1.026-.317 1.71-.95.684-.634 1.596-1.634 2.736-3.002.195-.228.406-.383.633-.464a25.908 25.908 0 0 1-.098-2.31c0-1.115.038-2.242.114-3.382h-1.482c-.76 0-1.279-.14-1.558-.418-.253-.279-.38-.722-.38-1.33 0-1.419.57-2.128 1.71-2.128h2.166c.431-2.787 1.09-5.333 1.976-7.638.887-2.306 1.951-4.142 3.192-5.51 1.267-1.368 2.622-2.052 4.066-2.052 1.064 0 1.9.468 2.508 1.406.608.937.912 2.115.912 3.534 0 3.926-1.646 7.346-4.94 10.26h4.256c.406 0 .697.088.874.266.178.177.266.506.266.988 0 1.748-1.431 2.622-4.294 2.622h-4.636a80.388 80.388 0 0 0-.076 2.964c0 2.634.304 4.484.912 5.548.634 1.064 1.622 1.596 2.964 1.596 1.09 0 2.052-.33 2.888-.988.447-.352.937-.798 1.47-1.338.046-1.911.513-3.72 1.402-5.426.938-1.824 2.179-3.281 3.724-4.37 1.571-1.115 3.23-1.672 4.978-1.672.558 0 .925.114 1.102.342.203.202.368.582.494 1.14a8.872 8.872 0 0 1 1.672-.152c1.242 0 1.862.443 1.862 1.33 0 .532-.19 1.798-.57 3.8-.582 2.913-.874 4.94-.874 6.08 0 .38.089.684.266.912a.975.975 0 0 0 .76.342c.482 0 1.064-.304 1.748-.912.583-.54 1.341-1.356 2.273-2.447a23.004 23.004 0 0 1-.231-3.367c0-3.091.393-6.612 1.178-10.564.811-3.952 1.989-7.347 3.534-10.184 1.571-2.838 3.433-4.256 5.586-4.256 1.216 0 2.166.57 2.85 1.71.709 1.114 1.064 2.723 1.064 4.826 0 3.014-.836 6.51-2.508 10.488-1.647 3.977-3.901 7.904-6.764 11.78.177 1.038.494 1.786.95 2.242.456.456 1.077.684 1.862.684.431 0 .912-.127 1.444-.38a6.065 6.065 0 0 0 1.52-.988c.279-.254.557-.38.836-.38.304 0 .545.177.722.532.203.329.304.734.304 1.216 0 1.064-.38 1.912-1.14 2.546-1.317 1.089-2.812 1.634-4.484 1.634-2.407 0-4.167-1.001-5.282-3.002-.122-.221-.237-.45-.345-.685a18.267 18.267 0 0 1-2.533 2.357c-1.165.886-2.292 1.33-3.382 1.33-.836 0-1.608-.279-2.318-.836-.684-.583-1.203-1.368-1.558-2.356-1.317 2.128-2.976 3.192-4.978 3.192-1.57 0-2.824-.57-3.762-1.71a5.584 5.584 0 0 1-.543-.79c-.505.444-1.028.847-1.569 1.208-1.292.861-2.774 1.292-4.446 1.292-3.392 0-5.671-1.567-6.837-4.699a2.585 2.585 0 0 1-.082.101c-2.508 3.065-4.852 4.598-7.03 4.598-1.647 0-2.85-.583-3.61-1.748a6.653 6.653 0 0 1-.815-1.985 290.183 290.183 0 0 0-3.395 2.327l-2.432 1.634c-.962 5.244-2.229 9.36-3.8 12.35-1.545 3.014-3.521 4.522-5.928 4.522-1.292 0-2.343-.406-3.154-1.216-.81-.786-1.216-1.824-1.216-3.116 0-1.799.71-3.737 2.128-5.814 1.419-2.052 4.079-4.586 7.98-7.6l.228-1.482a4.49 4.49 0 0 1-1.71 1.596c-.684.354-1.368.532-2.052.532-1.57 0-2.824-.57-3.762-1.71a5.68 5.68 0 0 1-.528-.765c-1.776 1.65-3.463 2.475-5.061 2.475-1.647 0-2.85-.583-3.61-1.748a5.967 5.967 0 0 1-.48-.94 18.16 18.16 0 0 1-1.635 1.358c-1.241.886-2.47 1.33-3.686 1.33-1.925 0-3.395-1.128-4.408-3.382-1.064 1.342-2.001 2.242-2.812 2.698-.785.456-1.71.684-2.774.684-1.545 0-2.825-.57-3.838-1.71-.988-1.166-1.482-2.673-1.482-4.522 0-2.027.431-3.902 1.292-5.624.861-1.748 2.039-3.167 3.534-4.256a10.335 10.335 0 0 1 5.092-1.976c.481-4.915 1.393-9.108 2.736-12.578 1.368-3.496 3.154-5.244 5.358-5.244 1.089 0 1.989.494 2.698 1.482.735.988 1.102 2.482 1.102 4.484 0 2.837-.697 6.156-2.09 9.956-1.393 3.8-3.255 7.701-5.586 11.704.101 1.469.317 2.52.646 3.154.355.633.798.95 1.33.95.684 0 1.381-.304 2.09-.912.492-.422 1.098-1.037 1.821-1.848Zm-3.873-22.662c.481-1.723.963-2.584 1.444-2.584.228 0 .418.266.57.798.177.532.266 1.279.266 2.242 0 3.749-1.419 8.714-4.256 14.896.152-3.015.393-5.903.722-8.664.355-2.762.773-4.991 1.254-6.688Zm-8.056 25.194c-.481.38-.963.57-1.444.57-1.267 0-1.9-.925-1.9-2.774 0-1.748.456-3.332 1.368-4.75.937-1.444 2.103-2.382 3.496-2.812a89.579 89.579 0 0 0-.076 2.964c0 1.697.127 3.23.38 4.598-.735 1.064-1.343 1.798-1.824 2.204Zm14.541-16.72c.532.481 1.33.722 2.394.722 1.089 0 1.963-.292 2.622-.874.658-.608.988-1.419.988-2.432 0-.836-.292-1.482-.874-1.938-.583-.456-1.343-.684-2.28-.684-1.039 0-1.913.304-2.622.912-.684.582-1.026 1.317-1.026 2.204 0 .886.266 1.583.798 2.09Zm14.481 16.226c-.532.709-1.089 1.064-1.672 1.064-.557 0-1-.19-1.33-.57-.304-.38-.456-.963-.456-1.748 0-1.419.266-2.762.798-4.028.532-1.267 1.242-2.28 2.128-3.04.887-.786 1.85-1.191 2.888-1.216l-1.216 6.498c-.228 1.317-.608 2.33-1.14 3.04Zm-2.698 16.036c-.785 1.52-1.494 2.28-2.128 2.28-.38 0-.658-.14-.836-.418-.152-.279-.228-.634-.228-1.064 0-1.014.431-2.192 1.292-3.534.862-1.343 2.268-2.85 4.218-4.522-.734 3.318-1.507 5.738-2.318 7.258Zm15.344-32.262c.532.481 1.33.722 2.394.722 1.089 0 1.963-.292 2.622-.874.658-.608.988-1.419.988-2.432 0-.836-.292-1.482-.874-1.938-.583-.456-1.343-.684-2.28-.684-1.039 0-1.913.304-2.622.912-.684.582-1.026 1.317-1.026 2.204 0 .886.266 1.583.798 2.09Zm15.773-7.144c.482-.963.912-1.444 1.292-1.444.558 0 .836.747.836 2.242 0 1.317-.38 2.786-1.14 4.408-.734 1.596-1.849 3.04-3.344 4.332.279-2.052.621-3.914 1.026-5.586.431-1.698.874-3.015 1.33-3.952Zm13.55 23.446c-.506.658-1.038.988-1.596.988-.557 0-1-.19-1.33-.57-.304-.38-.456-.963-.456-1.748 0-1.419.266-2.762.798-4.028.532-1.267 1.242-2.28 2.128-3.04.912-.786 1.9-1.191 2.964-1.216l-1.406 6.992c-.228 1.089-.595 1.963-1.102 2.622Zm17.964-24.168c.735-2.103 1.393-3.154 1.976-3.154.709 0 1.064.962 1.064 2.888 0 2.457-.532 5.18-1.596 8.17-1.064 2.964-2.495 5.928-4.294 8.892.051-2.863.355-5.852.912-8.968.557-3.116 1.203-5.726 1.938-7.828Zm33.913 21.346a12.19 12.19 0 0 1-.005-.332c0-1.926.368-3.636 1.102-5.13.735-1.52 1.748-2.698 3.04-3.534a7.571 7.571 0 0 1 4.294-1.292c1.926 0 3.471.671 4.636 2.014 1.191 1.317 1.888 2.951 2.09 4.902a18.734 18.734 0 0 0 2.418-.334c.171-.615.394-1.201.667-1.756.735-1.52 1.748-2.698 3.04-3.534a7.57 7.57 0 0 1 4.294-1.292c1.925 0 3.471.671 4.636 2.014 1.191 1.317 1.887 2.951 2.09 4.902.925-.059 1.988-.225 3.188-.499.052-.113.106-.225.162-.337.862-1.748 2.04-3.167 3.534-4.256a10.339 10.339 0 0 1 5.092-1.976c.482-4.915 1.394-9.108 2.736-12.578 1.368-3.496 3.154-5.244 5.358-5.244 1.09 0 1.989.494 2.698 1.482.735.988 1.102 2.482 1.102 4.484 0 2.837-.696 6.156-2.09 9.956-1.393 3.8-3.255 7.701-5.586 11.704.102 1.469.317 2.52.646 3.154.355.633.798.95 1.33.95.684 0 1.381-.304 2.09-.912.256-.22.544-.492.862-.817 1.28-1.595 2.255-2.919 2.925-3.971.456-.735.912-1.609 1.368-2.622a145.423 145.423 0 0 0 1.862-4.142c.481-1.115 1.482-1.672 3.002-1.672.709 0 1.203.063 1.482.19.279.126.418.329.418.608 0 .152-.051.392-.152.722a5.522 5.522 0 0 1-.418.988c-.456.912-.684 1.684-.684 2.318 0 .38.127.798.38 1.254.279.456.697 1.026 1.254 1.71.811 1.064 1.419 1.976 1.824 2.736.431.734.646 1.545.646 2.432a6.435 6.435 0 0 1-.76 3.04 5.924 5.924 0 0 1-2.052 2.28c-.887.582-1.9.874-3.04.874-1.317 0-2.331-.304-3.04-.912-.684-.608-1.026-1.292-1.026-2.052 0-.659.241-1.229.722-1.71.481-.482 1.191-.722 2.128-.722.329 0 .709.038 1.14.114l1.026.114a4.672 4.672 0 0 0-.456-1.862 8.046 8.046 0 0 0-.988-1.672 20.24 20.24 0 0 0-1.14-1.444c-.785 1.494-1.571 2.736-2.356 3.724-.115.149-.232.298-.35.445-.1.2-.219.381-.359.543a18.864 18.864 0 0 1-3.42 3.268c-1.241.886-2.47 1.33-3.686 1.33-1.925 0-3.394-1.128-4.408-3.382-1.064 1.342-2.001 2.242-2.812 2.698-.785.456-1.71.684-2.774.684-1.545 0-2.824-.57-3.838-1.71-.988-1.166-1.482-2.673-1.482-4.522 0-.353.013-.701.04-1.045-.769.13-1.57.212-2.402.247-.481 2.128-1.431 3.838-2.85 5.13-1.419 1.266-3.027 1.9-4.826 1.9-1.52 0-2.825-.368-3.914-1.102-1.064-.735-1.875-1.71-2.432-2.926a9.213 9.213 0 0 1-.812-3.234 19.46 19.46 0 0 1-2.311.232c-.481 2.128-1.431 3.838-2.85 5.13-1.418 1.266-3.027 1.9-4.826 1.9-1.52 0-2.824-.368-3.914-1.102-1.062-.734-1.872-1.707-2.429-2.92a314.47 314.47 0 0 0-3.822 2.616l-2.432 1.634c-.963 5.244-2.23 9.36-3.8 12.35-1.546 3.014-3.522 4.522-5.928 4.522-1.292 0-2.344-.406-3.154-1.216-.811-.786-1.216-1.824-1.216-3.116 0-1.799.709-3.737 2.128-5.814 1.418-2.052 4.078-4.586 7.98-7.6l.228-1.482a4.505 4.505 0 0 1-1.71 1.596c-.684.354-1.368.532-2.052.532-1.571 0-2.825-.57-3.762-1.71-.938-1.14-1.406-2.635-1.406-4.484 0-2.027.468-3.94 1.406-5.738.937-1.824 2.178-3.281 3.724-4.37 1.57-1.115 3.23-1.672 4.978-1.672.557 0 .924.114 1.102.342.202.202.367.582.494 1.14a8.128 8.128 0 0 1 1.672-.152c.633 0 1.076.101 1.33.304.278.177.418.544.418 1.102 0 .304-.013.544-.038.722-.102.785-.418 2.774-.95 5.966-.102.608-.216 1.279-.342 2.014-.102.709-.216 1.469-.342 2.28a82.452 82.452 0 0 1 4.66-3.392Zm-9.904 2.746c-.532.709-1.09 1.064-1.672 1.064-.558 0-1.001-.19-1.33-.57-.304-.38-.456-.963-.456-1.748 0-1.419.266-2.762.798-4.028.532-1.267 1.241-2.28 2.128-3.04.886-.786 1.849-1.191 2.888-1.216l-1.216 6.498c-.228 1.317-.608 2.33-1.14 3.04Zm-2.698 16.036c-.786 1.52-1.495 2.28-2.128 2.28-.38 0-.659-.14-.836-.418-.152-.279-.228-.634-.228-1.064 0-1.014.43-2.192 1.292-3.534.861-1.343 2.267-2.85 4.218-4.522-.735 3.318-1.508 5.738-2.318 7.258Zm22.173-16.15c-.582.658-1.279.988-2.09.988-.734 0-1.38-.368-1.938-1.102-.532-.735-.798-1.799-.798-3.192 0-1.774.33-3.142.988-4.104.684-.988 1.533-1.482 2.546-1.482h.19c-.076.405-.114.81-.114 1.216 0 .962.203 1.874.608 2.736a5.4 5.4 0 0 0 1.824 2.09c-.202 1.241-.608 2.191-1.216 2.85Zm17.145 0c-.583.658-1.279.988-2.09.988-.735 0-1.381-.368-1.938-1.102-.532-.735-.798-1.799-.798-3.192 0-1.774.329-3.142.988-4.104.684-.988 1.533-1.482 2.546-1.482h.19c-.076.405-.114.81-.114 1.216 0 .962.203 1.874.608 2.736a5.4 5.4 0 0 0 1.824 2.09c-.203 1.241-.608 2.191-1.216 2.85Zm23.794-24.586c.482-1.723.963-2.584 1.444-2.584.228 0 .418.266.57.798.178.532.266 1.279.266 2.242 0 3.749-1.418 8.714-4.256 14.896.152-3.015.393-5.903.722-8.664.355-2.762.773-4.991 1.254-6.688Zm-8.056 25.194c-.481.38-.962.57-1.444.57-1.266 0-1.9-.925-1.9-2.774 0-1.748.456-3.332 1.368-4.75.938-1.444 2.103-2.382 3.496-2.812a92.515 92.515 0 0 0-.076 2.964c0 1.697.127 3.23.38 4.598-.734 1.064-1.342 1.798-1.824 2.204Z" clip-rule="evenodd"/>
  <path fill="#304F70" d="M153.732 276.904v-1.128h5.172v1.128h-5.172Zm14.015 2.496V271h.96l3.492 5.748h-.624l3.492-5.748h.96v8.4h-1.38v-5.976l.312.084-2.592 4.26h-.96l-2.592-4.26.312-.084v5.976h-1.38Zm11.878 0 3.456-8.4h.96l3.432 8.4h-1.488l-2.688-6.804h.504l-2.712 6.804h-1.464Zm1.704-1.62v-1.2h4.452v1.2h-4.452Zm14.728 1.62-3.888-4.38 3.804-4.02h1.764l-4.2 4.368v-.756l4.32 4.788h-1.8Zm-5.076 0V271h1.38v8.4h-1.38Zm10.251 0V271h1.38v8.4h-1.38Zm.948 0v-1.26h4.704v1.26h-4.704Zm0-3.684v-1.212h4.296v1.212h-4.296Zm0-3.456V271h4.644v1.26h-4.644Zm9.478 3.576v-1.14h2.124c.424 0 .752-.108.984-.324.24-.224.36-.532.36-.924 0-.352-.116-.648-.348-.888-.232-.24-.56-.36-.984-.36h-2.136V271h2.196c.528 0 .992.108 1.392.324.4.208.708.496.924.864.224.36.336.772.336 1.236 0 .488-.112.912-.336 1.272-.216.36-.524.64-.924.84-.4.2-.864.3-1.392.3h-2.196Zm-.948 3.564V271h1.38v8.4h-1.38Zm4.608 0-2.94-3.648 1.284-.468 3.396 4.116h-1.74Zm7.257.12c-.664 0-1.228-.12-1.692-.36a3.863 3.863 0 0 1-1.248-1.056l.936-.936c.232.336.508.6.828.792.32.184.728.276 1.224.276.464 0 .832-.096 1.104-.288a.91.91 0 0 0 .42-.792c0-.28-.072-.508-.216-.684a1.606 1.606 0 0 0-.576-.432 4.661 4.661 0 0 0-.78-.312c-.28-.096-.564-.2-.852-.312-.28-.12-.54-.268-.78-.444a1.979 1.979 0 0 1-.564-.684c-.144-.28-.216-.636-.216-1.068 0-.496.12-.916.36-1.26.248-.352.58-.62.996-.804.416-.184.88-.276 1.392-.276.552 0 1.044.108 1.476.324.44.216.796.492 1.068.828l-.936.936a2.448 2.448 0 0 0-.756-.6 1.865 1.865 0 0 0-.888-.204c-.416 0-.744.084-.984.252a.824.824 0 0 0-.348.708c0 .256.072.464.216.624.144.152.332.284.564.396.24.104.5.204.78.3.288.096.572.204.852.324.288.12.548.276.78.468.24.184.432.424.576.72.144.296.216.668.216 1.116 0 .752-.268 1.348-.804 1.788-.528.44-1.244.66-2.148.66Zm15.395 0a4.2 4.2 0 0 1-1.68-.336 4.347 4.347 0 0 1-1.368-.924c-.392-.4-.7-.86-.924-1.38a4.425 4.425 0 0 1-.324-1.692c0-.6.108-1.16.324-1.68.224-.52.528-.976.912-1.368a4.2 4.2 0 0 1 3.036-1.26c.6 0 1.156.112 1.668.336.52.216.976.524 1.368.924.392.392.696.852.912 1.38a4.2 4.2 0 0 1 .336 1.68c0 .6-.112 1.164-.336 1.692-.216.52-.52.976-.912 1.368-.384.392-.836.7-1.356.924a4.086 4.086 0 0 1-1.656.336Zm-.024-1.32c.568 0 1.064-.128 1.488-.384a2.668 2.668 0 0 0 1.008-1.056c.248-.456.372-.98.372-1.572 0-.44-.072-.84-.216-1.2a2.674 2.674 0 0 0-.588-.948 2.576 2.576 0 0 0-.912-.624 2.956 2.956 0 0 0-1.152-.216c-.56 0-1.056.128-1.488.384-.424.248-.76.596-1.008 1.044-.24.448-.36.968-.36 1.56 0 .44.068.848.204 1.224.144.368.34.684.588.948.256.264.56.472.912.624.352.144.736.216 1.152.216Zm8.087 1.2V271h1.38v8.4h-1.38Zm.948-3.6v-1.26h4.272v1.26h-4.272Zm0-3.54V271h4.476v1.26h-4.476Zm12.754 4.644v-1.128h5.172v1.128h-5.172Z" opacity=".75"/>
  <path fill="#304F70" fill-rule="evenodd" d="M337.859 93c.87 0 1.328-1.027.741-1.668-32.126-35.065-78.295-57.052-129.599-57.052-51.304 0-97.473 21.987-129.598 57.052-.588.641-.13 1.668.74 1.668.283 0 .553-.12.745-.328C112.647 58.012 158.286 36.28 209 36.28s96.355 21.732 128.114 56.392c.191.209.461.328.744.328ZM57.501 124.93a1.004 1.004 0 0 0-.801-1.495.993.993 0 0 0-.937.503 174.532 174.532 0 0 0-19.353 52.88.996.996 0 0 0 .98 1.182c.483 0 .896-.344.987-.818A172.557 172.557 0 0 1 57.5 124.93ZM380.611 178c-.482 0-.896-.344-.986-.818a172.567 172.567 0 0 0-19.315-52.589 1.005 1.005 0 0 1 .8-1.498.997.997 0 0 1 .935.501 174.533 174.533 0 0 1 19.547 53.222.997.997 0 0 1-.981 1.182ZM38.57 243.813a1.007 1.007 0 0 0-.986-.813.996.996 0 0 0-.98 1.188c5.36 27.175 16.983 52.099 33.304 73.206.21.271.544.414.885.38.782-.079 1.17-.992.689-1.614-16.128-20.861-27.615-45.493-32.912-72.347Zm311.47 70.24c-.786-.055-1.2-.959-.735-1.595 14.667-20.051 25.14-43.363 30.128-68.646.092-.471.505-.812.985-.812a.996.996 0 0 1 .979 1.188c-5.045 25.584-15.643 49.174-30.486 69.462a.993.993 0 0 1-.871.403ZM90.002 336.96c.265-.007.52.091.714.271 31.014 28.846 72.589 46.489 118.285 46.489 48.843 0 92.978-20.157 124.54-52.606.184-.19.435-.3.699-.306.897-.023 1.371 1.046.746 1.689-31.927 32.829-76.574 53.223-125.985 53.223-46.228 0-88.286-17.851-119.659-47.036-.656-.611-.236-1.702.66-1.724Z" clip-rule="evenodd"/>
  <path fill="#A5CEC2" fill-rule="evenodd" d="M329.076 93a.499.499 0 0 0 .358-.848C298.846 60.897 256.188 41.5 209.001 41.5c-47.188 0-89.845 19.397-120.433 50.652a.499.499 0 1 0 .717.697C119.692 61.78 162.095 42.5 209.001 42.5c46.906 0 89.309 19.28 119.716 50.349a.502.502 0 0 0 .359.151ZM58.214 136.977a.502.502 0 0 0-.427-.72.499.499 0 0 0-.471.28 167.274 167.274 0 0 0-13.665 40.868.499.499 0 1 0 .982.19 166.27 166.27 0 0 1 13.581-40.618ZM373.861 178a.501.501 0 0 1-.492-.405 166.276 166.276 0 0 0-13.689-40.839.502.502 0 0 1 .427-.721.498.498 0 0 1 .471.28 167.264 167.264 0 0 1 13.773 41.09.5.5 0 0 1-.49.595Zm-329.03 65.403a.5.5 0 1 0-.98.195c4.642 22.94 13.943 44.19 26.874 62.72a.501.501 0 0 0 .818-.576c-12.852-18.417-22.097-39.538-26.711-62.339Zm302.018 63.15a.5.5 0 0 1-.406-.788c12.86-18.423 22.111-39.552 26.727-62.362a.5.5 0 1 1 .981.195c-4.644 22.95-13.951 44.208-26.89 62.742a.497.497 0 0 1-.412.213Zm-253.497 24.81a.501.501 0 0 1 .35.138C123.733 360.009 164.324 377.5 209 377.5c45.587 0 86.92-18.211 117.122-47.755a.499.499 0 1 1 .702.711C296.442 360.179 254.86 378.5 209 378.5c-44.945 0-85.78-17.597-115.99-46.277a.498.498 0 0 1 .34-.86Z" clip-rule="evenodd"/>
</svg>
