<svg fill="none" height="420" viewBox="0 0 420 420" width="420" xmlns="http://www.w3.org/2000/svg" xmlns:xlink="http://www.w3.org/1999/xlink"><filter id="a" color-interpolation-filters="sRGB" filterUnits="userSpaceOnUse" height="151.644" width="263.2" x="77.3994" y="133.916"><feFlood flood-opacity="0" result="BackgroundImageFix"/><feBlend in="SourceGraphic" in2="BackgroundImageFix" mode="normal" result="shape"/><feColorMatrix in="SourceAlpha" result="hardAlpha" type="matrix" values="0 0 0 0 0 0 0 0 0 0 0 0 0 0 0 0 0 0 127 0"/><feOffset dy=".5"/><feComposite in2="hardAlpha" k2="-1" k3="1" operator="arithmetic"/><feColorMatrix type="matrix" values="0 0 0 0 0.577236 0 0 0 0 0.512195 0 0 0 0 0.422764 0 0 0 0.5 0"/><feBlend in2="shape" mode="normal" result="effect1_innerShadow_451_58451"/></filter><g filter="url(#a)"><path clip-rule="evenodd" d="m148.439 135.052c-2.623-1.514-5.856-1.514-8.48 0l-58.3196 33.671c-2.6237 1.515-4.24 4.315-4.24 7.344v67.342c0 3.03 1.6163 5.829 4.24 7.344l58.3196 33.671c2.624 1.515 5.857 1.515 8.48 0l58.32-33.671c1.386-.8 3.094-.8 4.48 0l58.32 33.671c2.624 1.515 5.857 1.515 8.48 0l58.32-33.671c2.624-1.515 4.24-4.314 4.24-7.344v-67.342c0-3.029-1.616-5.829-4.24-7.344l-58.32-33.671c-2.623-1.514-5.856-1.514-8.48 0l-58.32 33.671c-1.386.801-3.094.801-4.48 0zm-6.48 3.464c1.386-.8 3.094-.8 4.48 0l58.32 33.671c2.624 1.515 5.857 1.515 8.48.001l58.32-33.672c1.386-.8 3.094-.8 4.48 0l58.32 33.671c1.386.801 2.24 2.28 2.24 3.88v67.342c0 .8-.213 1.569-.599 2.239l-59.907-34.588c.2-.36.497-.667.867-.881l53.848-31.089c.957-.552 1.285-1.776.732-2.732-.552-.957-1.775-1.285-2.732-.732l-53.848 31.089c-1.955 1.129-3.16 3.215-3.16 5.473v68.902c-.081-.041-.161-.084-.241-.13l-58.32-33.671c-1.76-1.016-3.794-1.351-5.734-1.003l-60.965-35.198c.199-.326.478-.604.821-.801l53.848-31.089c.956-.553 1.284-1.776.732-2.732-.553-.957-1.776-1.285-2.732-.732l-53.848 31.089c-1.956 1.129-3.16 3.215-3.16 5.473v68.794c-.082-.041-.162-.084-.242-.13l-58.3196-33.671c-1.3861-.8-2.24-2.279-2.24-3.88v-67.342c0-1.6.8539-3.079 2.24-3.88zm69.04 40.024c0-1.104-.895-2-2-2-1.104 0-2 .896-2 2v62.484c0 1.104.896 2 2 2 1.105 0 2-.896 2-2zm-124.5849-2.18c.5507-.957 1.7734-1.287 2.7309-.736l49.572 28.512c.957.551 1.287 1.773.736 2.731-.55.957-1.773 1.287-2.73.736l-49.5724-28.512c-.9574-.551-1.2872-1.773-.7365-2.731zm132.3279-.736c-.958-.551-2.181-.221-2.731.737-.551.957-.221 2.18.736 2.73l49.572 28.512c.958.551 2.18.221 2.731-.736.551-.958.221-2.18-.736-2.731z" fill="#a0927d" fill-opacity=".5" fill-rule="evenodd"/></g><path clip-rule="evenodd" d="m329.302 91.3054c.624.6322.173 1.6946-.715 1.6946-.271 0-.53-.1088-.72-.3014-30.28-30.6823-72.353-49.6986-118.867-49.6986s-88.586 19.0163-118.867 49.6986c-.19.1926-.4491.3014-.7196.3014-.888 0-1.3392-1.0624-.7154-1.6946 30.644-31.0565 73.225-50.3054 120.302-50.3054s89.658 19.2489 120.302 50.3054zm-270.6762 42.6946c.7452 0 1.2275.788.8944 1.455-6.5119 13.032-11.3696 27.036-14.298 41.735-.0937.47-.5056.81-.9851.81-.6286 0-1.1019-.573-.9792-1.189 2.9642-14.885 7.8835-29.066 14.4789-42.263.1683-.336.5127-.548.889-.548zm314.1522 43.19c.094.47.506.81.985.81.629 0 1.102-.573.979-1.189-2.964-14.885-7.883-29.066-14.479-42.263-.168-.336-.512-.548-.889-.548-.745 0-1.227.788-.894 1.455 6.512 13.032 11.37 27.036 14.298 41.735zm-328.3386 65.81c.4772 0 .8879.337.984.805 4.3802 21.306 12.8186 41.132 24.4717 58.633.4432.666-.0312 1.562-.8309 1.562-.3319 0-.642-.165-.8259-.441-11.8-17.718-20.3438-37.791-24.7768-59.364-.127-.618.3468-1.195.9779-1.195zm303.6656 59.438c-.443.666.031 1.562.831 1.562.332 0 .642-.165.826-.441 11.8-17.718 20.344-37.791 24.777-59.364.127-.618-.347-1.195-.978-1.195-.477 0-.888.337-.984.805-4.38 21.306-12.819 41.132-24.472 58.633zm-253.9128 28.84c-.188-.178-.4369-.278-.6958-.278-.9049 0-1.3487 1.096-.6918 1.718 30.2874 28.687 71.1864 46.282 116.1954 46.282s85.909-17.595 116.196-46.282c.657-.622.213-1.718-.692-1.718-.259 0-.508.1-.696.278-29.927 28.34-70.338 45.722-114.808 45.722s-84.881-17.382-114.8078-45.722zm6.9638-14.935c.067-3.014.533-5.889 1.397-8.623.228-.735.596-1.267 1.102-1.596.532-.355 1.267-.532 2.204-.532.507 0 .862.063 1.064.19.203.126.304.367.304.722 0 .405-.19 1.317-.57 2.736-.253 1.013-.456 1.9-.608 2.66s-.278 1.697-.38 2.812c.836-2.179 1.774-3.952 2.812-5.32 1.039-1.368 2.052-2.344 3.04-2.926 1.014-.583 1.938-.874 2.774-.874 1.647 0 2.47.823 2.47 2.47 0 .988-.278 2.774-.836 5.358-.481 2.204-.722 3.66-.722 4.37 0 1.013.368 1.52 1.102 1.52.507 0 1.102-.304 1.786-.912.387-.345.841-.804 1.364-1.375-.071-.516-.106-1.058-.106-1.627 0-1.748.367-3.37 1.102-4.864.734-1.52 1.748-2.724 3.04-3.61 1.317-.887 2.799-1.33 4.446-1.33 1.469 0 2.647.443 3.534 1.33.886.861 1.33 2.039 1.33 3.534 0 1.748-.634 3.255-1.9 4.522-1.242 1.241-3.37 2.229-6.384 2.964.608 1.165 1.634 1.748 3.078 1.748 1.038 0 1.887-.241 2.546-.722.684-.482 1.469-1.292 2.356-2.432.304-.38.646-.57 1.026-.57.329 0 .582.152.76.456.202.304.304.722.304 1.254 0 .912-.216 1.697-.646 2.356-.71 1.089-1.647 1.938-2.812 2.546-1.14.608-2.508.912-4.104.912-2.432 0-4.32-.722-5.662-2.166-.222-.243-.426-.5-.611-.771-.645.622-1.316 1.17-2.015 1.645-1.241.861-2.66 1.292-4.256 1.292-1.292 0-2.267-.368-2.926-1.102-.658-.76-.988-1.85-.988-3.268 0-.71.178-1.976.532-3.8.33-1.596.494-2.698.494-3.306 0-.406-.139-.608-.418-.608-.329 0-.798.43-1.406 1.292-.582.836-1.19 1.95-1.824 3.344-.608 1.393-1.102 2.862-1.482 4.408-.278 1.19-.608 2.001-.988 2.432-.354.405-.924.608-1.71.608-.962 0-1.646-.507-2.052-1.52-.106-.283-.197-.613-.274-.991-.47.422-.959.816-1.4666 1.181-1.2414.886-2.4954 1.33-3.762 1.33-1.6467 0-2.85-.583-3.61-1.748-.7347-1.166-1.102-2.711-1.102-4.636 0-.988.1013-2.204.304-3.648.228-1.444.5193-2.863.874-4.256-2.5334 0-5.5354.114-9.006.342-.5574 3.546-.836 6.852-.836 9.918 0 2.356.1266 4.813.38 7.372.2786 2.584.684 3.876 1.216 3.876.2533 0 .5193-.444.798-1.33.2786-.887.5066-2.103.684-3.648.1773-1.546.266-3.256.266-5.13 0-2.052-.114-4.269-.342-6.65-.0507-.71.0633-1.229.342-1.558.304-.355.7473-.532 1.33-.532.532 0 .9246.139 1.178.418.2533.278.4053.747.456 1.406.1266 1.849.19 4.053.19 6.612 0 4.129-.5067 7.663-1.52 10.602-.988 2.938-2.5334 4.408-4.636 4.408-1.7987 0-3.0907-1.305-3.876-3.914-.7854-2.584-1.178-6.473-1.178-11.666 0-3.066.2406-6.346.722-9.842-.1774.025-.4054.038-.684.038-.7854 0-1.3174-.14-1.596-.418-.2534-.279-.38-.71-.38-1.292 0-.634.1646-1.14.494-1.52.3546-.38 1.0133-.608 1.976-.684.1773-.026.456-.038.836-.038.684-3.42 1.558-6.524 2.622-9.31 1.064-2.787 2.28-4.991 3.648-6.612 1.368-1.647 2.812-2.47 4.332-2.47 1.1906 0 2.1026.468 2.736 1.406.6586.912.988 2.09.988 3.534 0 5.092-2.052 9.424-6.156 12.996 3.0906-.127 5.586-.19 7.486-.19.7093 0 1.292.139 1.748.418.456.253.684.76.684 1.52 0 .506-.0887 1.279-.266 2.318-.152 1.038-.3294 2.077-.532 3.116-.456 2.153-.684 3.572-.684 4.256 0 .76.1013 1.342.304 1.748.2026.405.5446.608 1.026.608.4306 0 .9753-.292 1.634-.874.5165-.459 1.2136-1.157 2.0916-2.093zm-14.0996-21.163c.9373-2.635 1.71-3.952 2.318-3.952.5573 0 .836.747.836 2.242 0 1.19-.2154 2.495-.646 3.914-.4054 1.393-1.0387 2.748-1.9 4.066-.836 1.317-1.8874 2.419-3.154 3.306.76-3.75 1.6086-6.942 2.546-9.576zm7.296 7.182c.532.481 1.33.722 2.394.722 1.0893 0 1.9633-.292 2.622-.874.6586-.608.9876-1.419.9876-2.432 0-.836-.291-1.482-.8736-1.938-.5827-.456-1.3427-.684-2.28-.684-1.0387 0-1.9127.304-2.622.912-.684.582-1.026 1.317-1.026 2.204 0 .886.266 1.583.798 2.09zm30.5486 8.588c.658-1.09 1.456-1.634 2.394-1.634.456 0 .81.152 1.064.456.278.278.418.658.418 1.14 0 .937-.431 1.76-1.292 2.47-.862.709-2.04 1.241-3.534 1.596v-.076c0-1.546.316-2.863.95-3.952zm40.23 5.601c.037-1.046.173-2.318.408-3.815.304-1.799.684-3.471 1.14-5.016.228-.811.532-1.368.912-1.672s.988-.456 1.824-.456c1.292 0 1.938.43 1.938 1.292 0 .633-.241 2.102-.722 4.408-.608 2.786-.912 4.674-.912 5.662 0 .76.101 1.342.304 1.748.203.405.545.608 1.026.608.456 0 1.026-.317 1.71-.95.358-.331.778-.763 1.26-1.295.034-1.941.502-3.777 1.404-5.507.937-1.824 2.178-3.281 3.724-4.37 1.57-1.115 3.23-1.672 4.978-1.672.557 0 .924.114 1.102.342.202.202.367.582.494 1.14.481-.102 1.038-.152 1.672-.152.633 0 1.076.101 1.33.304.278.177.418.544.418 1.102 0 .304-.013.544-.038.722-.102.785-.418 2.774-.95 5.966-.102.608-.216 1.279-.342 2.014-.102.709-.216 1.469-.342 2.28 1.667-1.299 3.279-2.469 4.835-3.509.065-.87.186-1.866.362-2.989.304-1.799.684-3.471 1.14-5.016.228-.811.532-1.368.912-1.672s.988-.456 1.824-.456c1.292 0 1.938.43 1.938 1.292 0 .633-.241 2.102-.722 4.408-.608 2.786-.912 4.674-.912 5.662 0 .76.101 1.342.304 1.748.203.405.545.608 1.026.608.456 0 1.026-.317 1.71-.95.684-.634 1.596-1.634 2.736-3.002.195-.228.406-.383.633-.464-.065-.724-.097-1.494-.097-2.31 0-1.115.038-2.242.114-3.382h-1.482c-.76 0-1.28-.14-1.558-.418-.254-.279-.38-.722-.38-1.33 0-1.419.57-2.128 1.71-2.128h2.166c.43-2.787 1.089-5.333 1.976-7.638.886-2.306 1.95-4.142 3.192-5.51 1.266-1.368 2.622-2.052 4.066-2.052 1.064 0 1.9.468 2.508 1.406.608.937.912 2.115.912 3.534 0 3.926-1.647 7.346-4.94 10.26h4.256c.405 0 .696.088.874.266.177.177.266.506.266.988 0 1.748-1.432 2.622-4.294 2.622h-4.636c-.051 1.266-.076 2.254-.076 2.964 0 2.634.304 4.484.912 5.548.633 1.064 1.621 1.596 2.964 1.596 1.089 0 2.052-.33 2.888-.988.446-.352.936-.798 1.469-1.337.046-1.912.513-3.721 1.403-5.427.937-1.824 2.178-3.281 3.724-4.37 1.57-1.115 3.23-1.672 4.978-1.672.557 0 .924.114 1.102.342.202.202.367.582.494 1.14.532-.102 1.089-.152 1.672-.152 1.241 0 1.862.443 1.862 1.33 0 .532-.19 1.798-.57 3.8-.583 2.913-.874 4.94-.874 6.08 0 .38.088.684.266.912.202.228.456.342.76.342.481 0 1.064-.304 1.748-.912.583-.54 1.34-1.356 2.273-2.447-.155-1.038-.232-2.161-.232-3.367 0-3.091.393-6.612 1.178-10.564.811-3.952 1.989-7.347 3.534-10.184 1.571-2.838 3.433-4.256 5.586-4.256 1.216 0 2.166.57 2.85 1.71.71 1.114 1.064 2.723 1.064 4.826 0 3.014-.836 6.51-2.508 10.488-1.646 3.977-3.901 7.904-6.764 11.78.178 1.038.494 1.786.95 2.242s1.077.684 1.862.684c.431 0 .912-.127 1.444-.38.558-.254 1.064-.583 1.52-.988.279-.254.558-.38.836-.38.304 0 .545.177.722.532.203.329.304.734.304 1.216 0 1.064-.38 1.912-1.14 2.546-1.317 1.089-2.812 1.634-4.484 1.634-2.406 0-4.167-1.001-5.282-3.002-.121-.221-.236-.449-.345-.685-.808.901-1.652 1.687-2.532 2.357-1.166.886-2.293 1.33-3.382 1.33-.836 0-1.609-.279-2.318-.836-.684-.583-1.204-1.368-1.558-2.356-1.318 2.128-2.977 3.192-4.978 3.192-1.571 0-2.825-.57-3.762-1.71-.203-.247-.384-.51-.543-.79-.505.445-1.029.847-1.569 1.208-1.292.861-2.774 1.292-4.446 1.292-3.393 0-5.672-1.567-6.837-4.699-.027.034-.054.068-.083.101-2.508 3.065-4.851 4.598-7.03 4.598-1.647 0-2.85-.583-3.61-1.748-.359-.571-.631-1.232-.815-1.984-1.479 1.002-2.611 1.777-3.394 2.326l-2.432 1.634c-.963 5.244-2.23 9.36-3.8 12.35-1.546 3.014-3.522 4.522-5.928 4.522-1.292 0-2.344-.406-3.154-1.216-.811-.786-1.216-1.824-1.216-3.116 0-1.799.709-3.737 2.128-5.814 1.418-2.052 4.078-4.586 7.98-7.6l.228-1.482c-.431.684-1.001 1.216-1.71 1.596-.684.354-1.368.532-2.052.532-1.571 0-2.825-.57-3.762-1.71-.197-.24-.373-.495-.529-.765-1.775 1.65-3.462 2.475-5.061 2.475-1.647 0-2.85-.583-3.61-1.748-.183-.29-.343-.603-.48-.94-.524.489-1.069.942-1.634 1.358-1.242.886-2.47 1.33-3.686 1.33-1.926 0-3.395-1.128-4.408-3.382-1.064 1.342-2.002 2.242-2.812 2.698-.786.456-1.71.684-2.774.684-1.546 0-2.825-.57-3.839-1.71-.987-1.166-1.481-2.673-1.481-4.522 0-2.027.43-3.902 1.292-5.624.861-1.748 2.039-3.167 3.534-4.256 1.52-1.115 3.217-1.774 5.092-1.976.481-4.915 1.393-9.108 2.736-12.578 1.368-3.496 3.154-5.244 5.357-5.244 1.09 0 1.989.494 2.699 1.482.734.988 1.102 2.482 1.102 4.484 0 2.837-.697 6.156-2.09 9.956-1.394 3.8-3.256 7.701-5.586 11.704.101 1.469.316 2.52.646 3.154.354.633.798.95 1.33.95.684 0 1.38-.304 2.09-.912.491-.421 1.098-1.037 1.82-1.847zm-3.873-22.663c.482-1.723.963-2.584 1.444-2.584.229 0 .418.266.571.798.177.532.265 1.279.265 2.242 0 3.749-1.418 8.714-4.255 14.896.152-3.015.392-5.903.722-8.664.354-2.762.772-4.991 1.253-6.688zm-8.055 25.194c-.482.38-.963.57-1.444.57-1.267 0-1.9-.925-1.9-2.774 0-1.748.456-3.332 1.368-4.75.937-1.444 2.102-2.382 3.496-2.812-.051 1.368-.077 2.356-.077 2.964 0 1.697.127 3.23.381 4.598-.735 1.064-1.343 1.798-1.824 2.204zm14.54-16.72c.532.481 1.33.722 2.394.722 1.089 0 1.963-.292 2.622-.874.659-.608.988-1.419.988-2.432 0-.836-.291-1.482-.874-1.938s-1.343-.684-2.28-.684c-1.039 0-1.913.304-2.622.912-.684.582-1.026 1.317-1.026 2.204 0 .886.266 1.583.798 2.09zm14.482 16.226c-.532.709-1.09 1.064-1.672 1.064-.558 0-1.001-.19-1.33-.57-.304-.38-.456-.963-.456-1.748 0-1.419.266-2.762.798-4.028.532-1.267 1.241-2.28 2.128-3.04.886-.786 1.849-1.191 2.888-1.216l-1.216 6.498c-.228 1.317-.608 2.33-1.14 3.04zm-2.698 16.036c-.786 1.52-1.495 2.28-2.128 2.28-.38 0-.659-.14-.836-.418-.152-.279-.228-.634-.228-1.064 0-1.014.43-2.192 1.292-3.534.861-1.343 2.267-2.85 4.218-4.522-.735 3.318-1.508 5.738-2.318 7.258zm15.343-32.262c.532.481 1.33.722 2.394.722 1.089 0 1.963-.292 2.622-.874.659-.608.988-1.419.988-2.432 0-.836-.291-1.482-.874-1.938s-1.343-.684-2.28-.684c-1.039 0-1.913.304-2.622.912-.684.582-1.026 1.317-1.026 2.204 0 .886.266 1.583.798 2.09zm15.774-7.144c.481-.963.912-1.444 1.292-1.444.557 0 .836.747.836 2.242 0 1.317-.38 2.786-1.14 4.408-.735 1.596-1.85 3.04-3.344 4.332.278-2.052.62-3.914 1.026-5.586.43-1.698.874-3.015 1.33-3.952zm13.55 23.446c-.507.658-1.039.988-1.596.988-.558 0-1.001-.19-1.33-.57-.304-.38-.456-.963-.456-1.748 0-1.419.266-2.762.798-4.028.532-1.267 1.241-2.28 2.128-3.04.912-.786 1.9-1.191 2.964-1.216l-1.406 6.992c-.228 1.089-.596 1.963-1.102 2.622zm17.963-24.168c.735-2.103 1.394-3.154 1.976-3.154.71 0 1.064.962 1.064 2.888 0 2.457-.532 5.18-1.596 8.17-1.064 2.964-2.495 5.928-4.294 8.892.051-2.863.355-5.852.912-8.968.558-3.116 1.204-5.726 1.938-7.828zm33.914 21.346c-.004-.11-.005-.221-.005-.332 0-1.926.367-3.636 1.102-5.13.734-1.52 1.748-2.698 3.04-3.534 1.292-.862 2.723-1.292 4.294-1.292 1.925 0 3.47.671 4.636 2.014 1.19 1.317 1.887 2.951 2.09 4.902.722-.046 1.528-.158 2.417-.334.172-.615.394-1.201.667-1.756.735-1.52 1.748-2.698 3.04-3.534 1.292-.862 2.724-1.292 4.294-1.292 1.926 0 3.471.671 4.636 2.014 1.191 1.317 1.888 2.951 2.09 4.902.925-.059 1.988-.225 3.188-.498.053-.114.107-.226.163-.338.861-1.748 2.039-3.167 3.534-4.256 1.52-1.115 3.217-1.774 5.092-1.976.481-4.915 1.393-9.108 2.736-12.578 1.368-3.496 3.154-5.244 5.358-5.244 1.089 0 1.988.494 2.698 1.482.734.988 1.102 2.482 1.102 4.484 0 2.837-.697 6.156-2.09 9.956-1.394 3.8-3.256 7.701-5.586 11.704.101 1.469.316 2.52.646 3.154.354.633.798.95 1.33.95.684 0 1.38-.304 2.09-.912.256-.22.543-.492.862-.817 1.28-1.595 2.255-2.919 2.924-3.971.456-.735.912-1.609 1.368-2.622.482-1.014 1.102-2.394 1.862-4.142.482-1.115 1.482-1.672 3.002-1.672.71 0 1.204.063 1.482.19.279.126.418.329.418.608 0 .152-.05.392-.152.722-.101.329-.24.658-.418.988-.456.912-.684 1.684-.684 2.318 0 .38.127.798.38 1.254.279.456.697 1.026 1.254 1.71.811 1.064 1.419 1.976 1.824 2.736.431.734.646 1.545.646 2.432 0 1.064-.253 2.077-.76 3.04-.481.937-1.165 1.697-2.052 2.28-.886.582-1.9.874-3.04.874-1.317 0-2.33-.304-3.04-.912-.684-.608-1.026-1.292-1.026-2.052 0-.659.241-1.229.722-1.71.482-.482 1.191-.722 2.128-.722.33 0 .71.038 1.14.114l1.026.114c-.025-.659-.177-1.28-.456-1.862-.253-.583-.582-1.14-.988-1.672-.405-.558-.785-1.039-1.14-1.444-.785 1.494-1.57 2.736-2.356 3.724-.115.149-.232.298-.35.445-.099.2-.219.381-.358.543-1.039 1.266-2.179 2.356-3.42 3.268-1.242.886-2.47 1.33-3.686 1.33-1.926 0-3.395-1.128-4.408-3.382-1.064 1.342-2.002 2.242-2.812 2.698-.786.456-1.71.684-2.774.684-1.546 0-2.825-.57-3.838-1.71-.988-1.166-1.482-2.673-1.482-4.522 0-.353.013-.701.039-1.045-.769.13-1.57.212-2.402.247-.481 2.128-1.431 3.838-2.85 5.13-1.418 1.266-3.027 1.9-4.826 1.9-1.52 0-2.824-.368-3.914-1.102-1.064-.735-1.874-1.71-2.432-2.926-.462-1.008-.732-2.086-.811-3.234-.741.121-1.512.198-2.311.232-.482 2.128-1.432 3.838-2.85 5.13-1.419 1.266-3.028 1.9-4.826 1.9-1.52 0-2.825-.368-3.914-1.102-1.063-.734-1.872-1.707-2.429-2.92-1.692 1.144-2.966 2.016-3.823 2.616l-2.432 1.634c-.963 5.244-2.229 9.36-3.8 12.35-1.545 3.014-3.521 4.522-5.928 4.522-1.292 0-2.343-.406-3.154-1.216-.811-.786-1.216-1.824-1.216-3.116 0-1.799.709-3.737 2.128-5.814 1.419-2.052 4.079-4.586 7.98-7.6l.228-1.482c-.431.684-1.001 1.216-1.71 1.596-.684.354-1.368.532-2.052.532-1.571 0-2.825-.57-3.762-1.71s-1.406-2.635-1.406-4.484c0-2.027.469-3.94 1.406-5.738.937-1.824 2.179-3.281 3.724-4.37 1.571-1.115 3.23-1.672 4.978-1.672.557 0 .925.114 1.102.342.203.202.367.582.494 1.14.481-.102 1.039-.152 1.672-.152s1.077.101 1.33.304c.279.177.418.544.418 1.102 0 .304-.013.544-.038.722-.101.785-.418 2.774-.95 5.966-.101.608-.215 1.279-.342 2.014-.101.709-.215 1.469-.342 2.28 1.605-1.251 3.159-2.381 4.661-3.392zm-9.905 2.746c-.532.709-1.089 1.064-1.672 1.064-.557 0-1.001-.19-1.33-.57-.304-.38-.456-.963-.456-1.748 0-1.419.266-2.762.798-4.028.532-1.267 1.241-2.28 2.128-3.04.887-.786 1.849-1.191 2.888-1.216l-1.216 6.498c-.228 1.317-.608 2.33-1.14 3.04zm-2.698 16.036c-.785 1.52-1.495 2.28-2.128 2.28-.38 0-.659-.14-.836-.418-.152-.279-.228-.634-.228-1.064 0-1.014.431-2.192 1.292-3.534.861-1.343 2.267-2.85 4.218-4.522-.735 3.318-1.507 5.738-2.318 7.258zm22.174-16.15c-.583.658-1.28.988-2.09.988-.735 0-1.381-.368-1.938-1.102-.532-.735-.798-1.799-.798-3.192 0-1.774.329-3.142.988-4.104.684-.988 1.532-1.482 2.546-1.482h.19c-.076.405-.114.81-.114 1.216 0 .962.202 1.874.608 2.736.43.861 1.038 1.558 1.824 2.09-.203 1.241-.608 2.191-1.216 2.85zm17.144 0c-.582.658-1.279.988-2.09.988-.734 0-1.38-.368-1.938-1.102-.532-.735-.798-1.799-.798-3.192 0-1.774.33-3.142.988-4.104.684-.988 1.533-1.482 2.546-1.482h.19c-.076.405-.114.81-.114 1.216 0 .962.203 1.874.608 2.736.431.861 1.039 1.558 1.824 2.09-.202 1.241-.608 2.191-1.216 2.85zm23.795-24.586c.481-1.723.962-2.584 1.444-2.584.228 0 .418.266.57.798.177.532.266 1.279.266 2.242 0 3.749-1.419 8.714-4.256 14.896.152-3.015.392-5.903.722-8.664.354-2.762.772-4.991 1.254-6.688zm-8.056 25.194c-.482.38-.963.57-1.444.57-1.267 0-1.9-.925-1.9-2.774 0-1.748.456-3.332 1.368-4.75.937-1.444 2.102-2.382 3.496-2.812-.051 1.368-.076 2.356-.076 2.964 0 1.697.126 3.23.38 4.598-.735 1.064-1.343 1.798-1.824 2.204zm-185.349-41.01v-1.504h6.896v1.504zm18.687 3.328v-11.2h1.28l4.24 6.979 4.24-6.979h1.28v11.2h-1.84v-7.172l-3.04 4.996h-1.28l-3.04-4.996v7.172zm15.837 0 4.608-11.2h1.28l4.576 11.2h-1.984l-.853-2.16h-4.814l-.861 2.16zm5.231-8.225 1.764 4.465h-3.544zm16.678 8.225-4.928-5.552v5.552h-1.84v-11.2h1.84v5.089l4.816-5.089h2.352l-5.13 5.336 5.29 5.864zm6.901 0v-11.2h1.264.576 5.616v1.68h-5.616v2.992h5.152v1.616h-5.152v3.232h5.696v1.68h-5.696-.576zm14.478 0v-4.752h.474l3.83 4.752h2.32l-3.93-4.763c.564-.037 1.068-.167 1.514-.389.533-.267.944-.64 1.232-1.12.298-.48.448-1.045.448-1.696 0-.619-.15-1.168-.448-1.648-.288-.491-.699-.875-1.232-1.152-.534-.288-1.152-.432-1.856-.432h-2.352-.576-1.264v11.2zm2.256-6.272h-2.256v-3.328h2.272c.565 0 1.002.16 1.312.48.309.32.464.715.464 1.184 0 .523-.16.933-.48 1.232-.31.288-.747.432-1.312.432zm11.724 6.432c-.886 0-1.638-.16-2.256-.48-.619-.32-1.174-.789-1.664-1.408l1.248-1.248c.309.448.677.8 1.104 1.056.426.245.97.368 1.632.368.618 0 1.109-.128 1.472-.384.373-.256.56-.608.56-1.056 0-.373-.096-.677-.288-.912s-.448-.427-.768-.576c-.31-.16-.656-.299-1.04-.416-.374-.128-.752-.267-1.136-.416-.374-.16-.72-.357-1.04-.592-.31-.235-.56-.539-.752-.912s-.288-.848-.288-1.424c0-.661.16-1.221.48-1.68.33-.469.773-.827 1.328-1.072.554-.245 1.173-.368 1.856-.368.736 0 1.392.144 1.968.432.586.288 1.061.656 1.424 1.104l-1.248 1.248c-.32-.363-.656-.629-1.008-.8-.342-.181-.736-.272-1.184-.272-.555 0-.992.112-1.312.336-.31.224-.464.539-.464.944 0 .341.096.619.288.832.192.203.442.379.752.528.32.139.666.272 1.04.4.384.128.762.272 1.136.432.384.16.73.368 1.04.624.32.245.576.565.768.96s.288.891.288 1.488c0 1.003-.358 1.797-1.072 2.384-.704.587-1.659.88-2.864.88zm20.525 0c-.8 0-1.546-.149-2.24-.448-.693-.299-1.301-.709-1.824-1.232-.522-.533-.933-1.147-1.232-1.84-.288-.704-.432-1.456-.432-2.256s.144-1.547.432-2.24c.299-.693.704-1.301 1.216-1.824.523-.533 1.126-.944 1.808-1.232.694-.299 1.44-.448 2.24-.448s1.542.149 2.224.448c.694.288 1.302.699 1.824 1.232.523.523.928 1.136 1.216 1.84.299.693.448 1.44.448 2.24s-.149 1.552-.448 2.256c-.288.693-.693 1.301-1.216 1.824-.512.523-1.114.933-1.808 1.232-.682.299-1.418.448-2.208.448zm-.032-1.76c.758 0 1.419-.171 1.984-.512.576-.341 1.024-.811 1.344-1.408.331-.608.496-1.307.496-2.096 0-.587-.096-1.12-.288-1.6-.181-.491-.442-.912-.784-1.264-.341-.363-.746-.64-1.216-.832-.458-.192-.97-.288-1.536-.288-.746 0-1.408.171-1.984.512-.565.331-1.013.795-1.344 1.392-.32.597-.48 1.291-.48 2.08 0 .587.091 1.131.272 1.632.192.491.454.912.784 1.264.342.352.747.629 1.216.832.47.192.982.288 1.536.288zm10.784-9.6h1.263.577 5.392v1.68h-5.392v3.04h5.119v1.68h-5.119v4.8h-1.84zm18.269 7.872v-1.504h6.896v1.504zm-183.8996-45.474c.8161.367 1.5914.55 2.3259.55.4488 0 .8569-.122 1.2241-.367.4081-.245.7141-.551.9181-.918l8.9365-15.73 8.997 15.73c.204.367.49.673.857.918.408.245.836.367 1.285.367.776 0 1.551-.183 2.326-.55.816-.368 1.51-.837 2.081-1.408.571-.612.857-1.286.857-2.02 0-.449-.163-.938-.49-1.469l-10.588-17.26 10.221-17.199c.367-.572.551-1.143.551-1.714 0-.694-.265-1.326-.796-1.897-.53-.572-1.183-1.021-1.958-1.347-.776-.326-1.551-.49-2.326-.49-.612 0-1.143.164-1.591.49-.409.286-.755.694-1.041 1.224l-8.385 14.996-8.3244-14.996c-.2448-.53-.5917-.938-1.0405-1.224-.4081-.326-.9385-.49-1.5914-.49-.7345 0-1.5098.164-2.3258.49-.7753.326-1.4282.775-1.9587 1.347-.5304.571-.7956 1.203-.7956 1.897 0 .571.1836 1.142.5508 1.714l10.2215 17.199-10.5887 17.26c-.3265.531-.4897 1.02-.4897 1.469 0 .734.2857 1.408.8569 2.02.5713.571 1.265 1.04 2.081 1.408zm-18.2062.612c-2.6931 0-5.121-.449-7.2836-1.347-2.1627-.938-3.8968-2.428-5.2026-4.468-1.2649-2.081-1.8974-4.835-1.8974-8.263v-16.954c0-3.428.6325-6.162 1.8974-8.202 1.3058-2.081 3.0195-3.57 5.1414-4.468 2.1626-.938 4.6109-1.408 7.3448-1.408 2.6931 0 5.1209.47 7.2836 1.408 2.2034.898 3.9376 2.387 5.2025 4.468 1.265 2.04 1.8974 4.774 1.8974 8.202v16.954c0 3.428-.6324 6.182-1.8974 8.263-1.2649 2.04-2.9991 3.53-5.2025 4.468-2.1627.898-4.5905 1.347-7.2836 1.347zm0-6.978c1.9994 0 3.5704-.571 4.7129-1.714 1.1425-1.142 1.7138-2.938 1.7138-5.386v-16.954c0-2.448-.5713-4.244-1.7138-5.386-1.1425-1.143-2.7135-1.714-4.7129-1.714s-3.5704.571-4.7129 1.714c-1.1018 1.142-1.6526 2.938-1.6526 5.386v16.954c0 2.448.5508 4.244 1.6526 5.386 1.1425 1.143 2.7135 1.714 4.7129 1.714zm-44.8964 5.876c.6529.49 1.5098.734 2.5707.734h13.037c2.2851 0 4.3457-.408 6.1819-1.224 1.877-.857 3.346-2.224 4.4069-4.101 1.1017-1.917 1.6526-4.468 1.6526-7.65v-1.286c0-2.04-.2653-3.693-.7957-4.957-.5305-1.306-1.265-2.347-2.2035-3.122-.9385-.816-2.0402-1.449-3.3051-1.897 1.5914-.694 2.8563-1.857 3.7948-3.489.9385-1.673 1.4077-3.754 1.4077-6.243 0-2.897-.5916-5.121-1.7749-6.672-1.1834-1.55-2.7135-2.611-4.5905-3.183-1.877-.612-3.8561-.918-5.9371-.918h-11.8741c-.8569 0-1.6526.225-2.387.674-.7345.408-1.1017 1.04-1.1017 1.897v39.662c0 .694.306 1.285.918 1.775zm13.894-6.243h-6.8552v-14.139h6.8552c1.877 0 3.3459.49 4.4068 1.469 1.0609.939 1.5914 2.612 1.5914 5.019v.979c0 2.326-.5305 4.02-1.5914 5.08-1.0609 1.061-2.5298 1.592-4.4068 1.592zm0-20.382h-6.8552v-10.405h6.794c1.0201 0 1.8974.204 2.6318.612.7345.408 1.3058 1 1.7138 1.775.4081.734.6121 1.653.6121 2.754 0 1.551-.4081 2.816-1.2241 3.795-.7753.979-1.9995 1.469-3.6724 1.469zm148.3362 27.109c.816.368 1.591.551 2.325.551.449 0 .857-.122 1.225-.367.408-.245.714-.551.918-.918l11.598-18.576 12.884-20.046c.368-.571.551-1.142.551-1.713 0-.694-.265-1.326-.796-1.898-.53-.571-1.183-1.02-1.958-1.346-.775-.327-1.551-.49-2.326-.49-.612 0-1.142.163-1.591.49-.408.285-.755.693-1.041 1.224l-11.017 17.964-13.221 20.229c-.326.53-.489 1.02-.489 1.469 0 .734.285 1.408.857 2.02.571.571 1.264 1.04 2.081 1.407zm15.498-11.392c-.338-.54-.339-1.225-.001-1.765l2.914-4.668c.512-.797 1.674-.802 2.193-.01l8.408 12.832c.327.529.49 1.017.49 1.465 0 .732-.286 1.404-.857 2.014-.571.57-1.265 1.038-2.081 1.404s-1.591.549-2.326.549c-.449 0-.857-.122-1.224-.366-.408-.244-.714-.549-.918-.916zm-4.368-21.368c.328.535.329 1.208.001 1.743l-2.703 4.407c-.613.938-1.989.934-2.596-.008l-8.219-12.752c-.367-.57-.551-1.14-.551-1.71 0-.691.266-1.322.796-1.892.531-.57 1.183-1.017 1.959-1.343.775-.325 1.55-.488 2.326-.488.612 0 1.142.163 1.591.488.408.285.755.692 1.04 1.221zm-29.338 33.378c-2.693 0-5.121-.449-7.283-1.347-2.163-.938-3.897-2.428-5.203-4.468-1.265-2.081-1.897-4.835-1.897-8.263v-16.954c0-3.428.632-6.162 1.897-8.202 1.306-2.081 3.019-3.57 5.141-4.468 2.163-.938 4.611-1.408 7.345-1.408 2.693 0 5.121.47 7.284 1.408 2.203.898 3.937 2.387 5.202 4.468 1.265 2.04 1.898 4.774 1.898 8.202v16.954c0 3.428-.633 6.182-1.898 8.263-1.265 2.04-2.999 3.53-5.202 4.468-2.163.898-4.591 1.347-7.284 1.347zm0-6.978c2 0 3.57-.571 4.713-1.714 1.143-1.142 1.714-2.938 1.714-5.386v-16.954c0-2.448-.571-4.244-1.714-5.386-1.143-1.143-2.713-1.714-4.713-1.714-1.999 0-3.57.571-4.713 1.714-1.102 1.142-1.652 2.938-1.652 5.386v16.954c0 2.448.55 4.244 1.652 5.386 1.143 1.143 2.714 1.714 4.713 1.714zm-44.896 5.876c.653.49 1.51.734 2.57.734h13.037c2.286 0 4.346-.408 6.182-1.224 1.877-.857 3.346-2.224 4.407-4.101 1.102-1.917 1.653-4.468 1.653-7.65v-1.286c0-2.04-.265-3.692-.796-4.957-.53-1.306-1.265-2.347-2.203-3.122-.939-.816-2.041-1.449-3.305-1.897 1.591-.694 2.856-1.857 3.794-3.489.939-1.673 1.408-3.754 1.408-6.243 0-2.897-.592-5.121-1.775-6.672-1.183-1.55-2.713-2.611-4.59-3.182-1.877-.613-3.856-.919-5.937-.919h-11.875c-.856 0-1.652.225-2.387.674-.734.408-1.101 1.04-1.101 1.897v39.662c0 .694.306 1.285.918 1.775zm13.894-6.243h-6.855v-14.139h6.855c1.877 0 3.346.49 4.407 1.469 1.06.939 1.591 2.612 1.591 5.019v.979c0 2.326-.531 4.02-1.591 5.081-1.061 1.06-2.53 1.591-4.407 1.591zm0-20.382h-6.855v-10.405h6.793c1.021 0 1.898.204 2.632.612.735.408 1.306 1 1.714 1.775.408.735.612 1.653.612 2.754 0 1.551-.408 2.816-1.224 3.795-.775.979-1.999 1.469-3.672 1.469zm225.939 27.359c-.979 0-1.897-.204-2.754-.612-.816-.448-1.225-1.101-1.225-1.958v-39.662c0-.857.409-1.489 1.225-1.898.857-.408 1.775-.612 2.754-.612s1.775.102 2.387.306c.653.204 1.245.613 1.775 1.225.571.571 1.163 1.469 1.775 2.693l11.813 22.83v-24.544c0-.898.408-1.53 1.224-1.898.857-.408 1.775-.612 2.754-.612 1.02 0 1.939.204 2.755.612.816.368 1.224 1 1.224 1.898v39.662c0 .857-.408 1.51-1.224 1.958-.816.408-1.735.612-2.755.612-.938 0-1.815-.183-2.632-.55-.775-.368-1.407-1.021-1.897-1.959l-13.221-24.605v24.544c0 .857-.408 1.51-1.224 1.958-.816.408-1.734.612-2.754.612zm-29.468-.979c2.162.898 4.59 1.347 7.283 1.347s5.121-.449 7.284-1.347c2.203-.938 3.937-2.428 5.202-4.468 1.265-2.081 1.898-4.835 1.898-8.263v-7.161c0-.734-.225-1.347-.674-1.836-.408-.531-1.02-.796-1.836-.796h-10.405c-.775 0-1.387.327-1.836.979-.408.653-.612 1.367-.612 2.143 0 .775.204 1.489.612 2.142.449.653 1.061.979 1.836.979h4.958v3.55c0 2.408-.571 4.203-1.714 5.386-1.142 1.143-2.713 1.714-4.713 1.714-1.999 0-3.57-.571-4.713-1.714-1.102-1.183-1.652-2.978-1.652-5.386v-16.954c0-2.408.55-4.183 1.652-5.325 1.143-1.183 2.714-1.775 4.713-1.775 1.795 0 3.122.306 3.979.918.897.612 1.509 1.387 1.836 2.326.367.898.571 1.836.612 2.815.041.939.449 1.592 1.224 1.959s1.693.551 2.754.551c1.347 0 2.346-.245 2.999-.735.653-.53.98-1.55.98-3.06 0-2.448-.633-4.55-1.898-6.304-1.265-1.755-2.999-3.101-5.202-4.04-2.163-.938-4.672-1.408-7.529-1.408-2.57 0-4.937.47-7.1 1.408-2.122.898-3.835 2.387-5.141 4.468-1.265 2.04-1.897 4.774-1.897 8.202v16.954c0 3.428.632 6.182 1.897 8.263 1.306 2.04 3.04 3.53 5.203 4.468zm-15.546.979c-.979 0-1.897-.204-2.754-.612-.816-.448-1.224-1.101-1.224-1.958v-39.662c0-.898.408-1.53 1.224-1.898.857-.408 1.775-.612 2.754-.612 1.02 0 1.938.204 2.754.612.817.368 1.225 1 1.225 1.898v39.662c0 .857-.408 1.51-1.225 1.958-.816.408-1.734.612-2.754.612zm-28.794-.612c2.162.776 4.57 1.163 7.222 1.163 2.816 0 5.305-.489 7.467-1.469 2.204-1.02 3.938-2.509 5.203-4.468 1.265-1.999 1.897-4.447 1.897-7.345 0-2.285-.347-4.202-1.04-5.753-.694-1.591-1.632-2.917-2.816-3.978-1.183-1.061-2.489-1.959-3.917-2.693-1.387-.776-2.775-1.449-4.162-2.02-1.387-.572-2.673-1.143-3.856-1.714-1.143-.571-2.081-1.224-2.816-1.959-.693-.734-1.04-1.632-1.04-2.693 0-1.02.265-1.856.796-2.509.53-.694 1.326-1.224 2.387-1.592 1.061-.367 2.305-.55 3.733-.55 1.714 0 3.061.204 4.04.612 1.02.367 1.836.754 2.448 1.163.653.367 1.306.55 1.959.55.734 0 1.326-.265 1.775-.795.489-.531.836-1.122 1.04-1.775.245-.653.367-1.204.367-1.653 0-1.02-.428-1.836-1.285-2.448-.816-.653-1.877-1.163-3.183-1.53-1.265-.368-2.55-.612-3.856-.735-1.265-.163-2.366-.245-3.305-.245-1.754 0-3.509.225-5.264.674-1.754.408-3.366 1.101-4.835 2.081-1.428.938-2.591 2.183-3.489 3.733-.857 1.551-1.285 3.469-1.285 5.754 0 2.081.347 3.835 1.041 5.263.734 1.429 1.672 2.632 2.815 3.612 1.183.979 2.469 1.815 3.856 2.509 1.428.694 2.836 1.347 4.223 1.959 1.388.612 2.673 1.244 3.856 1.897 1.184.653 2.122 1.428 2.816 2.326.693.898 1.04 1.999 1.04 3.305 0 1.224-.326 2.224-.979 2.999-.612.776-1.449 1.367-2.509 1.775-1.021.368-2.143.551-3.367.551-1.55 0-2.856-.224-3.917-.673-1.061-.49-1.959-1.041-2.693-1.653-.735-.653-1.387-1.203-1.959-1.652-.571-.49-1.183-.735-1.836-.735s-1.244.245-1.775.735c-.53.449-.959 1.02-1.285 1.713-.286.653-.429 1.265-.429 1.837 0 1.183.612 2.366 1.836 3.55 1.265 1.142 2.959 2.101 5.081 2.876zm-31.233.613c-.857 0-1.652-.204-2.387-.613-.734-.448-1.102-1.101-1.102-1.958v-39.601c0-.857.368-1.489 1.102-1.897.735-.449 1.53-.674 2.387-.674h21.79c.897 0 1.53.368 1.897 1.102.408.735.612 1.51.612 2.326 0 .979-.224 1.816-.673 2.51-.408.693-1.02 1.04-1.836 1.04h-17.322v12.241h9.304c.816 0 1.428.327 1.836.98.449.612.673 1.346.673 2.203 0 .694-.204 1.387-.612 2.081-.367.653-1 .979-1.897.979h-9.304v12.303h17.322c.816 0 1.428.347 1.836 1.04.449.694.673 1.531.673 2.51 0 .816-.204 1.591-.612 2.326-.367.734-1 1.102-1.897 1.102zm-35.686-.735c.652.49 1.509.734 2.57.734h10.834c2.734 0 5.182-.448 7.345-1.346 2.162-.939 3.876-2.428 5.141-4.468 1.306-2.081 1.959-4.835 1.959-8.263v-16.587c0-3.428-.653-6.162-1.959-8.202-1.265-2.081-2.979-3.57-5.141-4.468-2.163-.938-4.611-1.408-7.345-1.408h-10.834c-1.061 0-1.918.245-2.57.735-.613.49-.919 1.081-.919 1.775v39.723c0 .694.306 1.285.919 1.775zm13.404-6.243h-6.366v-30.787h6.427c1.999 0 3.57.592 4.713 1.775 1.142 1.142 1.714 2.917 1.714 5.325v16.587c0 2.407-.572 4.203-1.714 5.386-1.143 1.143-2.734 1.714-4.774 1.714zm-182.3604-116.465h2.64c.5654 0 1.0027-.176 1.312-.528.3094-.352.464-.757.464-1.216 0-.309-.0693-.597-.208-.864-.1386-.267-.3413-.48-.608-.64-.2666-.16-.5866-.24-.96-.24h-2.64zm2.368-5.088h-2.368v-2.912h2.368c.48 0 .864.123 1.152.368s.432.608.432 1.088-.144.843-.432 1.088-.672.368-1.152.368zm.048-4.512h-2.416-.576-1.264v11.2h1.264.576 2.56c.8 0 1.472-.144 2.016-.432.5547-.299.9707-.688 1.248-1.168.288-.48.432-1.008.432-1.584 0-.704-.1973-1.317-.592-1.84-.2977-.394-.6835-.722-1.1573-.983.3245-.214.5876-.463.7893-.745.3307-.448.496-.965.496-1.552 0-.501-.1226-.971-.368-1.408-.2453-.437-.6186-.795-1.12-1.072-.5013-.2773-1.1306-.416-1.888-.416zm11.5372 11.2v-4.752h.4742l3.8298 4.752h2.32l-3.9298-4.763c.564-.037 1.0686-.166 1.5138-.389.5333-.267.944-.64 1.232-1.12.2986-.48.448-1.045.448-1.696 0-.619-.1494-1.168-.448-1.648-.288-.491-.6987-.875-1.232-1.152-.5334-.288-1.152-.432-1.856-.432h-2.352-.576-1.264v11.2zm2.256-6.272h-2.256v-3.328h2.272c.5653 0 1.0026.16 1.312.48.3093.32.464.715.464 1.184 0 .523-.16.933-.48 1.232-.3094.288-.7467.432-1.312.432zm8.5407 6.272 4.608-11.2h1.28l4.576 11.2h-1.984l-.8533-2.16h-4.8137l-.861 2.16zm5.2305-8.225 1.7641 4.465h-3.5439zm10.7109 8.225v-11.2h1.28l5.9201 7.729v-7.729h1.84v11.2h-1.28l-5.9201-7.729v7.729zm17.3091-1.68h2.368c.768 0 1.44-.165 2.016-.496.586-.331 1.04-.789 1.36-1.376.33-.597.496-1.285.496-2.064 0-.768-.166-1.445-.496-2.032-.331-.587-.79-1.045-1.376-1.376-.576-.331-1.243-.496-2-.496h-2.368zm2.416-9.52h-2.416-.576-1.264v11.2h1.264.576 2.448c.8 0 1.546-.139 2.24-.416.693-.288 1.296-.683 1.808-1.184.512-.512.912-1.109 1.2-1.792s.432-1.419.432-2.208c0-.8-.144-1.536-.432-2.208-.288-.683-.694-1.275-1.216-1.776-.512-.512-1.115-.907-1.808-1.184-.694-.288-1.446-.432-2.256-.432zm11.587 0h1.84v11.2h-1.84zm8.266 11.2v-11.2h1.28l5.92 7.729v-7.729h1.84v11.2h-1.28l-5.92-7.729v7.729zm20.525.16c-.768 0-1.494-.149-2.176-.448-.683-.299-1.28-.709-1.792-1.232-.512-.533-.918-1.147-1.216-1.84-.288-.704-.432-1.456-.432-2.256s.144-1.547.432-2.24c.298-.693.704-1.301 1.216-1.824.522-.533 1.13-.944 1.824-1.232.704-.2987 1.461-.448 2.272-.448.885 0 1.706.1707 2.464.512.757.341 1.392.827 1.904 1.456l-1.248 1.248c-.331-.469-.774-.827-1.328-1.072-.555-.256-1.152-.384-1.792-.384-.768 0-1.446.171-2.032.512-.576.331-1.024.795-1.344 1.392s-.48 1.291-.48 2.08.16 1.488.48 2.096c.33.597.773 1.067 1.328 1.408.554.341 1.184.512 1.888.512.746 0 1.386-.133 1.92-.4.544-.277.96-.683 1.248-1.216.18-.341.304-.73.372-1.168h-3.572v-1.68h5.536v.256c0 1.333-.24 2.443-.72 3.328-.47.885-1.115 1.547-1.936 1.984-.822.437-1.76.656-2.816.656zm25.726-.576c.672.384 1.429.576 2.272.576.853 0 1.611-.192 2.272-.576s1.184-.907 1.568-1.568.576-1.413.576-2.256v-6.96h-1.84v6.944c0 .533-.112 1.003-.336 1.408-.224.395-.528.704-.912.928-.384.213-.827.32-1.328.32-.491 0-.933-.107-1.328-.32-.395-.224-.709-.533-.944-.928-.224-.405-.336-.88-.336-1.424v-6.928h-1.84v6.944c0 .843.192 1.6.576 2.272.395.661.928 1.184 1.6 1.568zm14.839-10.784h-1.84v11.2h1.84zm18.926 0h1.84v11.2h-1.84zm8.265 0h1.28l5.92 7.729v-7.729h1.84v11.2h-1.28l-5.92-7.729v7.729h-1.84zm15.469 0h1.264.576 5.392v1.68h-5.392v3.04h5.12v1.68h-5.12v4.8h-1.84zm18.058 11.36c-.8 0-1.546-.149-2.24-.448-.693-.299-1.301-.709-1.824-1.232-.522-.533-.933-1.147-1.232-1.84-.288-.704-.432-1.456-.432-2.256s.144-1.547.432-2.24c.299-.693.704-1.301 1.216-1.824.523-.533 1.126-.944 1.808-1.232.694-.2987 1.44-.448 2.24-.448s1.542.1493 2.224.448c.694.288 1.302.699 1.824 1.232.523.523.928 1.136 1.216 1.84.299.693.448 1.44.448 2.24s-.149 1.552-.448 2.256c-.288.693-.693 1.301-1.216 1.824-.512.523-1.114.933-1.808 1.232-.682.299-1.418.448-2.208.448zm-.032-1.76c.758 0 1.419-.171 1.984-.512.576-.341 1.024-.811 1.344-1.408.331-.608.496-1.307.496-2.096 0-.587-.096-1.12-.288-1.6-.181-.491-.442-.912-.784-1.264-.341-.363-.746-.64-1.216-.832-.458-.192-.97-.288-1.536-.288-.746 0-1.408.171-1.984.512-.565.331-1.013.795-1.344 1.392-.32.597-.48 1.291-.48 2.08 0 .587.091 1.131.272 1.632.192.491.454.912.784 1.264.342.352.747.629 1.216.832.47.192.982.288 1.536.288zm13.423 1.6v-4.752h.475l3.829 4.752h2.32l-3.929-4.763c.564-.037 1.068-.166 1.513-.389.534-.267.944-.64 1.232-1.12.299-.48.448-1.045.448-1.696 0-.619-.149-1.168-.448-1.648-.288-.491-.698-.875-1.232-1.152-.533-.288-1.152-.432-1.856-.432h-2.352-.576-1.264v11.2zm2.256-6.272h-2.256v-3.328h2.272c.566 0 1.003.16 1.312.48.31.32.464.715.464 1.184 0 .523-.16.933-.48 1.232-.309.288-.746.432-1.312.432zm9.733 6.272v-11.2h1.28l4.24 6.979 4.24-6.979h1.28v11.2h-1.84v-7.172l-3.04 4.996h-1.28l-3.04-4.996v7.172zm16.636 0 4.608-11.2h1.28l4.576 11.2h-1.984l-.853-2.16h-4.814l-.861 2.16zm5.231-8.225 1.764 4.465h-3.544zm12.12 8.225v-9.52h-3.648v-1.68h9.136v1.68h-3.648v9.52zm11.091-11.2h1.84v11.2h-1.84zm13.417 11.36c-.8 0-1.546-.149-2.24-.448-.693-.299-1.301-.709-1.824-1.232-.522-.533-.933-1.147-1.232-1.84-.288-.704-.432-1.456-.432-2.256s.144-1.547.432-2.24c.299-.693.704-1.301 1.216-1.824.523-.533 1.126-.944 1.808-1.232.694-.2987 1.44-.448 2.24-.448s1.542.1493 2.224.448c.694.288 1.302.699 1.824 1.232.523.523.928 1.136 1.216 1.84.299.693.448 1.44.448 2.24s-.149 1.552-.448 2.256c-.288.693-.693 1.301-1.216 1.824-.512.523-1.114.933-1.808 1.232-.682.299-1.418.448-2.208.448zm-.032-1.76c.758 0 1.419-.171 1.984-.512.576-.341 1.024-.811 1.344-1.408.331-.608.496-1.307.496-2.096 0-.587-.096-1.12-.288-1.6-.181-.491-.442-.912-.784-1.264-.341-.363-.746-.64-1.216-.832-.458-.192-.97-.288-1.536-.288-.746 0-1.408.171-1.984.512-.565.331-1.013.795-1.344 1.392-.32.597-.48 1.291-.48 2.08 0 .587.091 1.131.272 1.632.192.491.454.912.784 1.264.342.352.747.629 1.216.832.47.192.982.288 1.536.288zm11.583-9.6h1.28l5.92 7.729v-7.729h1.84v11.2h-1.28l-5.92-7.729v7.729h-1.84zm-290.6207 23 4.528 11.2h1.28l4.56-11.2h-1.968l-3.2144 8.173-3.1856-8.173zm15.9726 0v11.2h1.84v-11.2zm8.9109 10.88c.6187.32 1.3707.48 2.256.48 1.2054 0 2.16-.293 2.864-.88.7147-.587 1.072-1.381 1.072-2.384 0-.597-.096-1.093-.288-1.488s-.448-.715-.768-.96c-.3093-.256-.656-.464-1.04-.624-.3733-.16-.752-.304-1.136-.432-.3733-.128-.72-.261-1.04-.4-.3093-.149-.56-.325-.752-.528-.192-.213-.288-.491-.288-.832 0-.405.1547-.72.464-.944.32-.224.7574-.336 1.312-.336.448 0 .8427.091 1.184.272.352.171.688.437 1.008.8l1.248-1.248c-.3627-.448-.8373-.816-1.424-1.104-.576-.288-1.232-.432-1.968-.432-.6827 0-1.3013.123-1.856.368s-.9973.603-1.328 1.072c-.32.459-.48 1.019-.48 1.68 0 .576.096 1.051.288 1.424s.4427.677.752.912c.32.235.6667.432 1.04.592.384.149.7627.288 1.136.416.384.117.7307.256 1.04.416.32.149.576.341.768.576s.288.539.288.912c0 .448-.1867.8-.56 1.056-.3627.256-.8533.384-1.472.384-.6613 0-1.2053-.123-1.632-.368-.4267-.256-.7946-.608-1.104-1.056l-1.248 1.248c.4907.619 1.0454 1.088 1.664 1.408zm14.2622-.096c.672.384 1.429.576 2.272.576.853 0 1.611-.192 2.272-.576s1.184-.907 1.568-1.568.576-1.413.576-2.256v-6.96h-1.84v6.944c0 .533-.112 1.003-.336 1.408-.224.395-.528.704-.912.928-.384.213-.827.32-1.328.32-.491 0-.933-.107-1.328-.32-.395-.224-.709-.533-.944-.928-.224-.405-.336-.88-.336-1.424v-6.928h-1.84v6.944c0 .843.192 1.6.576 2.272.395.661.928 1.184 1.6 1.568zm16.384-10.784-4.608 11.2h1.952l.861-2.16h4.814l.853 2.16h1.984l-4.576-11.2zm2.387 7.44-1.764-4.465-1.78 4.465zm8.947-7.44v11.2h1.264.576 5.28v-1.68h-5.28v-9.52zm29.234 11.36c-.843 0-1.6-.192-2.272-.576s-1.206-.907-1.6-1.568c-.384-.672-.576-1.429-.576-2.272v-6.944h1.84v6.928c0 .544.112 1.019.336 1.424.234.395.549.704.944.928.394.213.837.32 1.328.32.501 0 .944-.107 1.328-.32.384-.224.688-.533.912-.928.224-.405.336-.875.336-1.408v-6.944h1.84v6.96c0 .843-.192 1.595-.576 2.256s-.907 1.184-1.568 1.568c-.662.384-1.419.576-2.272.576zm17.869-.16-2.997-4.54-3.195 4.54h-2.064l4.086-5.745-3.894-5.455h2.176l2.929 4.159 2.847-4.159h2.064l-3.74 5.374 3.932 5.826zm20.87-.32c.619.32 1.371.48 2.256.48 1.205 0 2.16-.293 2.864-.88.715-.587 1.072-1.381 1.072-2.384 0-.597-.096-1.093-.288-1.488s-.448-.715-.768-.96c-.309-.256-.656-.464-1.04-.624-.373-.16-.752-.304-1.136-.432-.373-.128-.72-.261-1.04-.4-.309-.149-.56-.325-.752-.528-.192-.213-.288-.491-.288-.832 0-.405.155-.72.464-.944.32-.224.757-.336 1.312-.336.448 0 .843.091 1.184.272.352.171.688.437 1.008.8l1.248-1.248c-.363-.448-.837-.816-1.424-1.104-.576-.288-1.232-.432-1.968-.432-.683 0-1.301.123-1.856.368s-.997.603-1.328 1.072c-.32.459-.48 1.019-.48 1.68 0 .576.096 1.051.288 1.424s.443.677.752.912c.32.235.667.432 1.04.592.384.149.763.288 1.136.416.384.117.731.256 1.04.416.32.149.576.341.768.576s.288.539.288.912c0 .448-.187.8-.56 1.056-.363.256-.853.384-1.472.384-.661 0-1.205-.123-1.632-.368-.427-.256-.795-.608-1.104-1.056l-1.248 1.248c.491.619 1.045 1.088 1.664 1.408zm14.358-9.2v9.52h1.84v-9.52h3.648v-1.68h-9.136v1.68zm13.268 9.232c.693.299 1.44.448 2.24.448.789 0 1.525-.149 2.208-.448.693-.299 1.296-.709 1.808-1.232.523-.523.928-1.131 1.216-1.824.299-.704.448-1.456.448-2.256s-.149-1.547-.448-2.24c-.288-.704-.693-1.317-1.216-1.84-.523-.533-1.131-.944-1.824-1.232-.683-.299-1.424-.448-2.224-.448s-1.547.149-2.24.448c-.683.288-1.285.699-1.808 1.232-.512.523-.917 1.131-1.216 1.824-.288.693-.432 1.44-.432 2.24s.144 1.552.432 2.256c.299.693.709 1.307 1.232 1.84.523.523 1.131.933 1.824 1.232zm4.192-1.824c-.565.341-1.227.512-1.984.512-.555 0-1.067-.096-1.536-.288-.469-.203-.875-.48-1.216-.832-.331-.352-.592-.773-.784-1.264-.181-.501-.272-1.045-.272-1.632 0-.789.16-1.483.48-2.08.331-.597.779-1.061 1.344-1.392.576-.341 1.237-.512 1.984-.512.565 0 1.077.096 1.536.288.469.192.875.469 1.216.832.341.352.603.773.784 1.264.192.48.288 1.013.288 1.6 0 .789-.165 1.488-.496 2.096-.32.597-.768 1.067-1.344 1.408zm11.439-2.64v4.752h-1.84v-11.2h1.264.576 2.352c.704 0 1.323.144 1.856.432.534.277.944.661 1.232 1.152.299.48.448 1.029.448 1.648 0 .651-.149 1.216-.448 1.696-.288.48-.698.853-1.232 1.12-.445.223-.95.352-1.514.389l3.93 4.763h-2.32l-3.83-4.752zm0-1.52h2.256c.566 0 1.003-.144 1.312-.432.32-.299.48-.709.48-1.232 0-.469-.154-.864-.464-1.184-.309-.32-.746-.48-1.312-.48h-2.272zm16.436 1.328v4.944h-1.84v-4.874l-4.112-6.326h2.128l2.912 4.58 2.912-4.58h2.096zm11.775-4.576v9.52h1.84v-9.52h3.648v-1.68h-9.136v1.68zm12.354-1.68h-1.264v11.2h1.264.576 5.696v-1.68h-5.696v-3.232h5.152v-1.616h-5.152v-2.992h5.616v-1.68h-5.616zm14.013 0h-1.84v11.2h1.264.576 5.28v-1.68h-5.28zm12.797 0h-1.84v11.2h1.264.576 5.28v-1.68h-5.28zm12.797 0h-1.84v11.2h1.84zm7.706 0h-1.28v11.2h1.84v-7.729l5.92 7.729h1.28v-11.2h-1.84v7.729zm17.068 10.912c.683.299 1.408.448 2.176.448 1.056 0 1.995-.219 2.816-.656.822-.437 1.467-1.099 1.936-1.984.48-.885.72-1.995.72-3.328v-.256h-5.536v1.68h3.572c-.067.438-.191.827-.372 1.168-.288.533-.704.939-1.248 1.216-.533.267-1.173.4-1.92.4-.704 0-1.333-.171-1.888-.512-.554-.341-.997-.811-1.328-1.408-.32-.608-.48-1.307-.48-2.096s.16-1.483.48-2.08.768-1.061 1.344-1.392c.587-.341 1.264-.512 2.032-.512.64 0 1.238.128 1.792.384.555.245.998.603 1.328 1.072l1.248-1.248c-.512-.629-1.146-1.115-1.904-1.456-.757-.341-1.578-.512-2.464-.512-.81 0-1.568.149-2.272.448-.693.288-1.301.699-1.824 1.232-.512.523-.917 1.131-1.216 1.824-.288.693-.432 1.44-.432 2.24s.144 1.552.432 2.256c.299.693.704 1.307 1.216 1.84.512.523 1.11.933 1.792 1.232z" fill="#211f1f" fill-rule="evenodd"/></svg>