<svg fill="none" height="420" viewBox="0 0 420 420" width="420" xmlns="http://www.w3.org/2000/svg"><g clip-rule="evenodd" fill-rule="evenodd"><path d="m148.439 135.052c-2.623-1.514-5.856-1.514-8.48 0l-58.3196 33.671c-2.6237 1.515-4.24 4.315-4.24 7.344v67.342c0 3.03 1.6163 5.83 4.24 7.344l58.3196 33.671c2.624 1.515 5.857 1.515 8.48 0l58.32-33.671c1.386-.8 3.094-.8 4.48 0l58.32 33.671c2.624 1.515 5.857 1.515 8.48 0l58.32-33.671c2.624-1.514 4.24-4.314 4.24-7.344v-67.342c0-3.029-1.616-5.829-4.24-7.344l-58.32-33.671c-2.623-1.514-5.856-1.514-8.48 0l-58.32 33.671c-1.386.801-3.094.801-4.48 0zm-6.48 3.464c1.386-.8 3.094-.8 4.48 0l58.32 33.672c2.624 1.514 5.857 1.514 8.48 0l58.32-33.672c1.386-.8 3.094-.8 4.48 0l58.32 33.672c1.386.8 2.24 2.279 2.24 3.879v67.342c0 .8-.213 1.569-.599 2.239l-59.907-34.588c.2-.36.497-.667.867-.881l53.848-31.089c.957-.552 1.285-1.776.732-2.732-.552-.957-1.775-1.285-2.732-.732l-53.848 31.089c-1.955 1.129-3.16 3.215-3.16 5.473v68.902c-.081-.041-.161-.084-.241-.13l-58.32-33.671c-1.76-1.016-3.794-1.35-5.734-1.003l-60.965-35.198c.199-.326.478-.604.821-.801l53.848-31.089c.956-.553 1.284-1.776.732-2.732-.553-.957-1.776-1.285-2.732-.732l-53.848 31.089c-1.956 1.129-3.16 3.215-3.16 5.473v68.794c-.082-.041-.162-.084-.242-.13l-58.3196-33.671c-1.3861-.8-2.24-2.279-2.24-3.88v-67.342c0-1.6.8539-3.079 2.24-3.879zm69.04 40.024c0-1.104-.895-2-2-2-1.104 0-2 .896-2 2v62.484c0 1.104.896 2 2 2 1.105 0 2-.896 2-2zm-124.5849-2.18c.5507-.957 1.7734-1.287 2.7309-.736l49.572 28.512c.957.551 1.287 1.773.736 2.731-.55.957-1.773 1.287-2.73.736l-49.5724-28.512c-.9574-.551-1.2872-1.773-.7365-2.731zm132.3279-.736c-.958-.551-2.181-.221-2.731.737-.551.957-.221 2.18.736 2.73l49.572 28.512c.958.551 2.18.221 2.731-.736.551-.958.221-2.18-.736-2.731z" fill="#a5cec2"/><path d="m205.24 221.2c-.338-.54-.339-1.225-.001-1.765l2.914-4.668c.512-.797 1.674-.802 2.193-.01l8.408 12.832c.327.529.49 1.017.49 1.465 0 .732-.286 1.404-.857 2.014-.571.57-1.265 1.038-2.081 1.404s-1.591.549-2.326.549c-.449 0-.857-.122-1.224-.366-.408-.244-.714-.549-.918-.916zm-4.368-21.368c.328.535.329 1.208.001 1.743l-2.703 4.407c-.613.938-1.989.934-2.596-.008l-8.219-12.752c-.367-.57-.551-1.14-.551-1.71 0-.691.266-1.322.796-1.892.531-.57 1.183-1.017 1.959-1.343.775-.325 1.55-.488 2.326-.488.612 0 1.142.163 1.591.488.408.285.755.692 1.04 1.221zm-11.13 32.76c.816.368 1.591.551 2.325.551.449 0 .857-.122 1.225-.367.408-.245.714-.551.918-.918l11.598-18.576 12.884-20.046c.368-.571.551-1.142.551-1.713 0-.694-.265-1.326-.796-1.898-.53-.571-1.183-1.02-1.958-1.346-.775-.327-1.551-.49-2.326-.49-.612 0-1.142.163-1.591.49-.408.285-.755.693-1.041 1.224l-11.017 17.964-13.221 20.229c-.326.53-.489 1.02-.489 1.469 0 .734.285 1.408.857 2.02.571.571 1.264 1.04 2.081 1.407zm-96.8017.556c-.7345 0-1.5098-.183-2.3259-.55-.816-.368-1.5097-.837-2.081-1.408-.5712-.612-.8569-1.286-.8569-2.02 0-.449.1632-.938.4897-1.469l10.5887-17.26-10.2215-17.199c-.3672-.572-.5508-1.143-.5508-1.714 0-.694.2652-1.326.7956-1.897.5305-.572 1.1834-1.021 1.9587-1.347.816-.326 1.5913-.49 2.3258-.49.6529 0 1.1833.164 1.5914.49.4488.286.7957.694 1.0405 1.224l8.3244 14.996 8.385-14.996c.286-.53.632-.938 1.041-1.224.448-.326.979-.49 1.591-.49.775 0 1.55.164 2.326.49.775.326 1.428.775 1.958 1.347.531.571.796 1.203.796 1.897 0 .571-.184 1.142-.551 1.714l-10.221 17.199 10.588 17.26c.327.531.49 1.02.49 1.469 0 .734-.286 1.408-.857 2.02-.571.571-1.265 1.04-2.081 1.408-.775.367-1.55.55-2.326.55-.449 0-.877-.122-1.285-.367-.367-.245-.653-.551-.857-.918l-8.997-15.73-8.9365 15.73c-.204.367-.51.673-.9181.918-.3672.245-.7753.367-1.2241.367zm-20.5321.062c-2.6931 0-5.121-.449-7.2836-1.347-2.1627-.938-3.8968-2.428-5.2026-4.468-1.2649-2.081-1.8974-4.835-1.8974-8.263v-16.954c0-3.428.6325-6.162 1.8974-8.202 1.3058-2.081 3.0195-3.57 5.1414-4.468 2.1626-.938 4.6109-1.408 7.3448-1.408 2.6931 0 5.1209.47 7.2836 1.408 2.2034.898 3.9376 2.387 5.2025 4.468 1.265 2.04 1.8974 4.774 1.8974 8.202v16.954c0 3.428-.6324 6.182-1.8974 8.263-1.2649 2.04-2.9991 3.53-5.2025 4.468-2.1627.898-4.5905 1.347-7.2836 1.347zm0-6.978c1.9994 0 3.5704-.571 4.7129-1.714 1.1425-1.142 1.7138-2.938 1.7138-5.386v-16.954c0-2.448-.5713-4.244-1.7138-5.386-1.1425-1.143-2.7135-1.714-4.7129-1.714s-3.5704.571-4.7129 1.714c-1.1018 1.142-1.6526 2.938-1.6526 5.386v16.954c0 2.448.5508 4.244 1.6526 5.386 1.1425 1.143 2.7135 1.714 4.7129 1.714zm-44.8964 5.876c.6529.49 1.5098.734 2.5707.734h13.037c2.2851 0 4.3457-.408 6.1819-1.224 1.877-.857 3.346-2.224 4.4069-4.101 1.1017-1.917 1.6526-4.468 1.6526-7.65v-1.286c0-2.04-.2653-3.693-.7957-4.957-.5305-1.306-1.265-2.347-2.2035-3.122-.9385-.816-2.0402-1.449-3.3051-1.897 1.5914-.694 2.8563-1.857 3.7948-3.489.9385-1.673 1.4077-3.754 1.4077-6.243 0-2.897-.5916-5.121-1.7749-6.672-1.1834-1.55-2.7135-2.611-4.5905-3.183-1.877-.612-3.8561-.918-5.9371-.918h-11.8741c-.8569 0-1.6526.225-2.387.674-.7345.408-1.1017 1.04-1.1017 1.897v39.662c0 .694.306 1.285.918 1.775zm13.894-6.243h-6.8552v-14.139h6.8552c1.877 0 3.3459.49 4.4068 1.469 1.0609.939 1.5914 2.612 1.5914 5.019v.979c0 2.326-.5305 4.02-1.5914 5.08-1.0609 1.061-2.5298 1.592-4.4068 1.592zm0-20.382h-6.8552v-10.405h6.794c1.0201 0 1.8974.204 2.6318.612.7345.408 1.3058 1 1.7138 1.775.4081.734.6121 1.653.6121 2.754 0 1.551-.4081 2.816-1.2241 3.795-.7753.979-1.9995 1.469-3.6724 1.469zm130.1282 27.727c-2.693 0-5.121-.449-7.283-1.347-2.163-.938-3.897-2.428-5.203-4.468-1.265-2.081-1.897-4.835-1.897-8.263v-16.954c0-3.428.632-6.162 1.897-8.202 1.306-2.081 3.019-3.57 5.141-4.468 2.163-.938 4.611-1.408 7.345-1.408 2.693 0 5.121.47 7.284 1.408 2.203.898 3.937 2.387 5.202 4.468 1.265 2.04 1.898 4.774 1.898 8.202v16.954c0 3.428-.633 6.182-1.898 8.263-1.265 2.04-2.999 3.53-5.202 4.468-2.163.898-4.591 1.347-7.284 1.347zm0-6.978c2 0 3.57-.571 4.713-1.714 1.143-1.142 1.714-2.938 1.714-5.386v-16.954c0-2.448-.571-4.244-1.714-5.386-1.143-1.143-2.713-1.714-4.713-1.714-1.999 0-3.57.571-4.713 1.714-1.102 1.142-1.652 2.938-1.652 5.386v16.954c0 2.448.55 4.244 1.652 5.386 1.143 1.143 2.714 1.714 4.713 1.714zm-44.896 5.876c.653.49 1.51.734 2.57.734h13.037c2.286 0 4.346-.408 6.182-1.224 1.877-.857 3.346-2.224 4.407-4.101 1.102-1.917 1.653-4.468 1.653-7.65v-1.286c0-2.04-.265-3.692-.796-4.957-.53-1.306-1.265-2.347-2.203-3.122-.939-.816-2.041-1.449-3.305-1.897 1.591-.694 2.856-1.857 3.794-3.489.939-1.673 1.408-3.754 1.408-6.243 0-2.897-.592-5.121-1.775-6.672-1.183-1.55-2.713-2.611-4.59-3.182-1.877-.613-3.856-.919-5.937-.919h-11.875c-.856 0-1.652.225-2.387.674-.734.408-1.101 1.04-1.101 1.897v39.662c0 .694.306 1.285.918 1.775zm13.894-6.243h-6.855v-14.139h6.855c1.877 0 3.346.49 4.407 1.469 1.06.939 1.591 2.612 1.591 5.019v.979c0 2.326-.531 4.02-1.591 5.081-1.061 1.06-2.53 1.591-4.407 1.591zm0-20.382h-6.855v-10.405h6.793c1.021 0 1.898.204 2.632.612.735.408 1.306 1 1.714 1.775.408.735.612 1.653.612 2.754 0 1.551-.408 2.816-1.224 3.795-.775.979-1.999 1.469-3.672 1.469zm225.939 27.359c-.979 0-1.897-.204-2.754-.612-.816-.448-1.225-1.101-1.225-1.958v-39.662c0-.857.409-1.489 1.225-1.898.857-.408 1.775-.612 2.754-.612s1.775.102 2.387.306c.653.204 1.245.613 1.775 1.225.571.571 1.163 1.469 1.775 2.693l11.813 22.83v-24.544c0-.898.408-1.53 1.224-1.898.857-.408 1.775-.612 2.754-.612 1.02 0 1.939.204 2.755.612.816.368 1.224 1 1.224 1.898v39.662c0 .857-.408 1.51-1.224 1.958-.816.408-1.735.612-2.755.612-.938 0-1.815-.183-2.632-.55-.775-.368-1.407-1.021-1.897-1.959l-13.221-24.605v24.544c0 .857-.408 1.51-1.224 1.958-.816.408-1.734.612-2.754.612zm-29.468-.979c2.162.898 4.59 1.347 7.283 1.347s5.121-.449 7.284-1.347c2.203-.938 3.937-2.428 5.202-4.468 1.265-2.081 1.898-4.835 1.898-8.263v-7.161c0-.734-.225-1.347-.674-1.836-.408-.531-1.02-.796-1.836-.796h-10.405c-.775 0-1.387.327-1.836.979-.408.653-.612 1.367-.612 2.143 0 .775.204 1.489.612 2.142.449.653 1.061.979 1.836.979h4.958v3.55c0 2.408-.571 4.203-1.714 5.386-1.142 1.143-2.713 1.714-4.713 1.714-1.999 0-3.57-.571-4.713-1.714-1.102-1.183-1.652-2.978-1.652-5.386v-16.954c0-2.408.55-4.183 1.652-5.325 1.143-1.183 2.714-1.775 4.713-1.775 1.795 0 3.122.306 3.979.918.897.612 1.509 1.387 1.836 2.326.367.898.571 1.836.612 2.815.041.939.449 1.592 1.224 1.959s1.693.551 2.754.551c1.347 0 2.346-.245 2.999-.735.653-.53.98-1.55.98-3.06 0-2.448-.633-4.55-1.898-6.304-1.265-1.755-2.999-3.101-5.202-4.04-2.163-.938-4.672-1.408-7.529-1.408-2.57 0-4.937.47-7.1 1.408-2.122.898-3.835 2.387-5.141 4.468-1.265 2.04-1.897 4.774-1.897 8.202v16.954c0 3.428.632 6.182 1.897 8.263 1.306 2.04 3.04 3.53 5.203 4.468zm-15.546.979c-.979 0-1.897-.204-2.754-.612-.816-.448-1.224-1.101-1.224-1.958v-39.662c0-.898.408-1.53 1.224-1.898.857-.408 1.775-.612 2.754-.612 1.02 0 1.938.204 2.754.612.817.368 1.225 1 1.225 1.898v39.662c0 .857-.408 1.51-1.225 1.958-.816.408-1.734.612-2.754.612zm-28.794-.612c2.162.776 4.57 1.163 7.222 1.163 2.816 0 5.305-.489 7.467-1.469 2.204-1.02 3.938-2.509 5.203-4.468 1.265-1.999 1.897-4.447 1.897-7.345 0-2.285-.347-4.202-1.04-5.753-.694-1.591-1.632-2.917-2.816-3.978-1.183-1.061-2.489-1.959-3.917-2.693-1.387-.776-2.775-1.449-4.162-2.02-1.387-.572-2.673-1.143-3.856-1.714-1.143-.571-2.081-1.224-2.816-1.959-.693-.734-1.04-1.632-1.04-2.693 0-1.02.265-1.856.796-2.509.53-.694 1.326-1.224 2.387-1.592 1.061-.367 2.305-.55 3.733-.55 1.714 0 3.061.204 4.04.612 1.02.367 1.836.754 2.448 1.163.653.367 1.306.55 1.959.55.734 0 1.326-.265 1.775-.795.489-.531.836-1.122 1.04-1.775.245-.653.367-1.204.367-1.653 0-1.02-.428-1.836-1.285-2.448-.816-.653-1.877-1.163-3.183-1.53-1.265-.368-2.55-.612-3.856-.735-1.265-.163-2.366-.245-3.305-.245-1.754 0-3.509.225-5.264.674-1.754.408-3.366 1.101-4.835 2.081-1.428.938-2.591 2.183-3.489 3.733-.857 1.551-1.285 3.469-1.285 5.754 0 2.081.347 3.835 1.041 5.263.734 1.429 1.672 2.632 2.815 3.612 1.183.979 2.469 1.815 3.856 2.509 1.428.694 2.836 1.347 4.223 1.959 1.388.612 2.673 1.244 3.856 1.897 1.184.653 2.122 1.428 2.816 2.326.693.898 1.04 1.999 1.04 3.305 0 1.224-.326 2.224-.979 2.999-.612.776-1.449 1.367-2.509 1.775-1.021.368-2.143.551-3.367.551-1.55 0-2.856-.224-3.917-.673-1.061-.49-1.959-1.041-2.693-1.653-.735-.653-1.387-1.203-1.959-1.652-.571-.49-1.183-.735-1.836-.735s-1.244.245-1.775.735c-.53.449-.959 1.02-1.285 1.714-.286.652-.429 1.264-.429 1.836 0 1.183.612 2.366 1.836 3.55 1.265 1.142 2.959 2.101 5.081 2.876zm-31.233.613c-.857 0-1.652-.204-2.387-.613-.734-.448-1.102-1.101-1.102-1.958v-39.601c0-.857.368-1.489 1.102-1.897.735-.449 1.53-.674 2.387-.674h21.79c.897 0 1.53.368 1.897 1.102.408.735.612 1.51.612 2.326 0 .979-.224 1.816-.673 2.51-.408.693-1.02 1.04-1.836 1.04h-17.322v12.241h9.304c.816 0 1.428.327 1.836.98.449.612.673 1.346.673 2.203 0 .694-.204 1.387-.612 2.081-.367.653-1 .979-1.897.979h-9.304v12.303h17.322c.816 0 1.428.347 1.836 1.04.449.694.673 1.531.673 2.51 0 .816-.204 1.591-.612 2.326-.367.734-1 1.102-1.897 1.102zm-35.686-.735c.652.49 1.509.734 2.57.734h10.834c2.734 0 5.182-.448 7.345-1.346 2.162-.939 3.876-2.428 5.141-4.468 1.306-2.081 1.959-4.835 1.959-8.263v-16.587c0-3.428-.653-6.162-1.959-8.202-1.265-2.081-2.979-3.57-5.141-4.468-2.163-.938-4.611-1.408-7.345-1.408h-10.834c-1.061 0-1.918.245-2.57.735-.613.49-.919 1.081-.919 1.775v39.723c0 .694.306 1.285.919 1.775zm13.404-6.243h-6.366v-30.787h6.427c1.999 0 3.57.592 4.713 1.775 1.142 1.143 1.714 2.917 1.714 5.325v16.587c0 2.407-.572 4.203-1.714 5.386-1.143 1.143-2.734 1.714-4.774 1.714z" fill="#304f70"/><path d="m59.4273 109.4h-2.64v-3.488h2.64c.3733 0 .6933.08.96.24.2666.16.4693.373.608.64.1386.267.208.555.208.864 0 .459-.1547.864-.464 1.216-.3094.352-.7467.528-1.312.528zm-2.64-5.088h2.368c.48 0 .864-.123 1.152-.368s.432-.608.432-1.088-.144-.843-.432-1.088-.672-.368-1.152-.368h-2.368zm0-4.512h2.416c.7573 0 1.3866.1387 1.888.416.5013.277.8746.635 1.12 1.072.2453.437.368.907.368 1.408 0 .587-.1654 1.104-.496 1.552-.2017.282-.4648.531-.7894.745.4738.261.8596.589 1.1574.983.3946.523.592 1.136.592 1.84 0 .576-.144 1.104-.432 1.584-.2774.48-.6934.869-1.248 1.168-.544.288-1.216.432-2.016.432h-2.56-.576-1.264v-11.2h1.264zm13.9531 6.448v4.752h-1.84v-11.2h1.264.576 2.352c.704 0 1.3227.144 1.856.432.5333.277.944.661 1.232 1.152.2987.48.448 1.029.448 1.648 0 .651-.1493 1.216-.448 1.696-.288.48-.6987.853-1.232 1.12-.4452.223-.9497.352-1.5138.389l3.9298 4.763h-2.32l-3.8297-4.752zm0-1.52h2.256c.5653 0 1.0027-.144 1.312-.432.32-.299.48-.709.48-1.232 0-.469-.1547-.864-.464-1.184s-.7467-.48-1.312-.48h-2.272zm15.4047-4.928-4.608 11.2h1.952l.861-2.16h4.8137l.8533 2.16h1.984l-4.576-11.2zm2.3866 7.44-1.7641-4.465-1.7798 4.465zm8.9468-7.44v11.2h1.84v-7.728l5.9205 7.728h1.28v-11.2h-1.84v7.728l-5.9205-7.728zm19.6765 9.52h-2.368v-7.84h2.368c.758 0 1.424.165 2 .496.587.331 1.046.789 1.376 1.376.331.587.496 1.264.496 2.032 0 .779-.165 1.467-.496 2.064-.32.587-.773 1.045-1.36 1.376-.576.331-1.248.496-2.016.496zm-2.368-9.52h2.416c.811 0 1.563.144 2.256.432.694.277 1.296.672 1.808 1.184.523.501.928 1.093 1.216 1.776.288.672.432 1.408.432 2.208 0 .789-.144 1.525-.432 2.208s-.688 1.28-1.2 1.792c-.512.501-1.114.896-1.808 1.184-.693.277-1.44.416-2.24.416h-2.448-.576-1.264v-11.2h1.264zm15.844 0h-1.84v11.2h1.84zm7.706 0h-1.28v11.2h1.84v-7.728l5.92 7.728h1.28v-11.2h-1.84v7.728zm17.068 10.912c.683.299 1.408.448 2.176.448 1.056 0 1.995-.219 2.816-.656.822-.437 1.467-1.099 1.936-1.984.48-.885.72-1.995.72-3.328v-.256h-5.536v1.68h3.572c-.067.438-.191.827-.372 1.168-.288.533-.704.939-1.248 1.216-.533.267-1.173.4-1.92.4-.704 0-1.333-.171-1.888-.512-.554-.341-.997-.811-1.328-1.408-.32-.608-.48-1.307-.48-2.096s.16-1.483.48-2.08.768-1.061 1.344-1.392c.587-.341 1.264-.512 2.032-.512.64 0 1.238.128 1.792.384.555.245.998.603 1.328 1.072l1.248-1.248c-.512-.629-1.146-1.115-1.904-1.456-.757-.3413-1.578-.512-2.464-.512-.81 0-1.568.1493-2.272.448-.693.288-1.301.699-1.824 1.232-.512.523-.917 1.131-1.216 1.824-.288.693-.432 1.44-.432 2.24s.144 1.552.432 2.256c.299.693.704 1.307 1.216 1.84.512.523 1.11.933 1.792 1.232zm27.903-.128c.672.384 1.429.576 2.272.576.853 0 1.61-.192 2.272-.576.661-.384 1.184-.907 1.568-1.568s.576-1.413.576-2.256v-6.96h-1.84v6.944c0 .533-.112 1.003-.336 1.408-.224.395-.528.704-.912.928-.384.213-.827.32-1.328.32-.491 0-.934-.107-1.328-.32-.395-.224-.71-.533-.944-.928-.224-.405-.336-.88-.336-1.424v-6.928h-1.84v6.944c0 .843.192 1.6.576 2.272.394.661.928 1.184 1.6 1.568zm14.839-10.784h-1.84v11.2h1.84zm18.925 0h1.84v11.2h-1.84zm8.266 0h1.28l5.92 7.729v-7.729h1.84v11.2h-1.28l-5.92-7.729v7.729h-1.84zm15.469 0h1.264.576 5.392v1.68h-5.392v3.04h5.12v1.68h-5.12v4.8h-1.84zm18.058 11.36c-.8 0-1.547-.149-2.24-.448s-1.301-.709-1.824-1.232c-.523-.533-.933-1.147-1.232-1.84-.288-.704-.432-1.456-.432-2.256s.144-1.547.432-2.24c.299-.693.704-1.301 1.216-1.824.523-.533 1.125-.944 1.808-1.232.693-.2987 1.44-.448 2.24-.448s1.541.1493 2.224.448c.693.288 1.301.699 1.824 1.232.523.523.928 1.136 1.216 1.84.299.693.448 1.44.448 2.24s-.149 1.552-.448 2.256c-.288.693-.693 1.301-1.216 1.824-.512.523-1.115.933-1.808 1.232-.683.299-1.419.448-2.208.448zm-.032-1.76c.757 0 1.419-.171 1.984-.512.576-.341 1.024-.811 1.344-1.408.331-.608.496-1.307.496-2.096 0-.587-.096-1.12-.288-1.6-.181-.491-.443-.912-.784-1.264-.341-.363-.747-.64-1.216-.832-.459-.192-.971-.288-1.536-.288-.747 0-1.408.171-1.984.512-.565.331-1.013.795-1.344 1.392-.32.597-.48 1.291-.48 2.08 0 .587.091 1.131.272 1.632.192.491.453.912.784 1.264.341.352.747.629 1.216.832.469.192.981.288 1.536.288zm13.423 1.6v-4.752h.474l3.83 4.752h2.32l-3.93-4.763c.564-.037 1.069-.166 1.514-.389.533-.267.944-.64 1.232-1.12.299-.48.448-1.045.448-1.696 0-.619-.149-1.168-.448-1.648-.288-.491-.699-.875-1.232-1.152-.533-.288-1.152-.432-1.856-.432h-2.352-.576-1.264v11.2zm2.256-6.272h-2.256v-3.328h2.272c.565 0 1.003.16 1.312.48s.464.715.464 1.184c0 .523-.16.933-.48 1.232-.309.288-.747.432-1.312.432zm9.732-4.928h1.28l4.24 6.979 4.24-6.979h1.28v11.2h-1.84v-7.172l-3.04 4.996h-1.28l-3.04-4.996v7.172h-1.84zm21.245 0h1.28l4.576 11.2h-1.984l-.853-2.16h-4.814l-.861 2.16h-1.952zm.622 2.975 1.764 4.465h-3.543zm12.121 8.225v-9.52h-3.648v-1.68h9.136v1.68h-3.648v9.52zm11.09-11.2h1.84v11.2h-1.84zm13.418 11.36c-.8 0-1.547-.149-2.24-.448s-1.301-.709-1.824-1.232c-.523-.533-.933-1.147-1.232-1.84-.288-.704-.432-1.456-.432-2.256s.144-1.547.432-2.24c.299-.693.704-1.301 1.216-1.824.523-.533 1.125-.944 1.808-1.232.693-.2987 1.44-.448 2.24-.448s1.541.1493 2.224.448c.693.288 1.301.699 1.824 1.232.523.523.928 1.136 1.216 1.84.299.693.448 1.44.448 2.24s-.149 1.552-.448 2.256c-.288.693-.693 1.301-1.216 1.824-.512.523-1.115.933-1.808 1.232-.683.299-1.419.448-2.208.448zm-.032-1.76c.757 0 1.419-.171 1.984-.512.576-.341 1.024-.811 1.344-1.408.331-.608.496-1.307.496-2.096 0-.587-.096-1.12-.288-1.6-.181-.491-.443-.912-.784-1.264-.341-.363-.747-.64-1.216-.832-.459-.192-.971-.288-1.536-.288-.747 0-1.408.171-1.984.512-.565.331-1.013.795-1.344 1.392-.32.597-.48 1.291-.48 2.08 0 .587.091 1.131.272 1.632.192.491.453.912.784 1.264.341.352.747.629 1.216.832.469.192.981.288 1.536.288zm11.583-9.6h1.28l5.92 7.729v-7.729h1.84v11.2h-1.28l-5.92-7.728v7.728h-1.84zm-290.621 23 4.528 11.2h1.28l4.56-11.2h-1.968l-3.2145 8.173-3.1855-8.173zm15.9726 0v11.2h1.84v-11.2zm8.9109 10.88c.6186.32 1.3706.48 2.256.48 1.2053 0 2.16-.293 2.864-.88.7146-.587 1.072-1.381 1.072-2.384 0-.597-.096-1.093-.288-1.488s-.448-.715-.768-.96c-.3094-.256-.656-.464-1.04-.624-.3734-.16-.752-.304-1.136-.432-.3734-.128-.72-.261-1.04-.4-.3094-.149-.56-.325-.752-.528-.192-.213-.288-.491-.288-.832 0-.405.1546-.72.464-.944.32-.224.7573-.336 1.312-.336.448 0 .8426.091 1.184.272.352.171.688.437 1.008.8l1.248-1.248c-.3627-.448-.8374-.816-1.424-1.104-.576-.288-1.232-.432-1.968-.432-.6827 0-1.3014.123-1.856.368-.5547.245-.9974.603-1.328 1.072-.32.459-.48 1.019-.48 1.68 0 .576.096 1.051.288 1.424s.4426.677.752.912c.32.235.6666.432 1.04.592.384.149.7626.288 1.136.416.384.117.7306.256 1.04.416.32.149.576.341.768.576s.288.539.288.912c0 .448-.1867.8-.56 1.056-.3627.256-.8534.384-1.472.384-.6614 0-1.2054-.123-1.632-.368-.4267-.256-.7947-.608-1.104-1.056l-1.248 1.248c.4906.619 1.0453 1.088 1.664 1.408zm14.2625-.096c.672.384 1.429.576 2.272.576.853 0 1.61-.192 2.272-.576.661-.384 1.184-.907 1.568-1.568s.576-1.413.576-2.256v-6.96h-1.84v6.944c0 .533-.112 1.003-.336 1.408-.224.395-.528.704-.912.928-.384.213-.827.32-1.328.32-.491 0-.934-.107-1.328-.32-.395-.224-.71-.533-.944-.928-.224-.405-.336-.88-.336-1.424v-6.928h-1.84v6.944c0 .843.192 1.6.576 2.272.394.661.928 1.184 1.6 1.568zm16.384-10.784-4.608 11.2h1.952l.861-2.16h4.813l.854 2.16h1.984l-4.576-11.2zm2.386 7.44-1.764-4.465-1.779 4.465zm8.947-7.44v11.2h1.264.576 5.28v-1.68h-5.28v-9.52zm29.234 11.36c-.842 0-1.6-.192-2.272-.576s-1.205-.907-1.6-1.568c-.384-.672-.576-1.429-.576-2.272v-6.944h1.84v6.928c0 .544.112 1.019.336 1.424.235.395.55.704.944.928.395.213.838.32 1.328.32.502 0 .944-.107 1.328-.32.384-.224.688-.533.912-.928.224-.405.336-.875.336-1.408v-6.944h1.84v6.96c0 .843-.192 1.595-.576 2.256s-.906 1.184-1.568 1.568c-.661.384-1.418.576-2.272.576zm17.87-.16-2.998-4.54-3.194 4.54h-2.064l4.086-5.745-3.894-5.455h2.176l2.928 4.159 2.848-4.159h2.064l-3.74 5.374 3.932 5.826zm20.87-.32c.618.32 1.37.48 2.256.48 1.205 0 2.16-.293 2.864-.88.714-.587 1.072-1.381 1.072-2.384 0-.597-.096-1.093-.288-1.488s-.448-.715-.768-.96c-.31-.256-.656-.464-1.04-.624-.374-.16-.752-.304-1.136-.432-.374-.128-.72-.261-1.04-.4-.31-.149-.56-.325-.752-.528-.192-.213-.288-.491-.288-.832 0-.405.154-.72.464-.944.32-.224.757-.336 1.312-.336.448 0 .842.091 1.184.272.352.171.688.437 1.008.8l1.248-1.248c-.363-.448-.838-.816-1.424-1.104-.576-.288-1.232-.432-1.968-.432-.683 0-1.302.123-1.856.368-.555.245-.998.603-1.328 1.072-.32.459-.48 1.019-.48 1.68 0 .576.096 1.051.288 1.424s.442.677.752.912c.32.235.666.432 1.04.592.384.149.762.288 1.136.416.384.117.73.256 1.04.416.32.149.576.341.768.576s.288.539.288.912c0 .448-.187.8-.56 1.056-.363.256-.854.384-1.472.384-.662 0-1.206-.123-1.632-.368-.427-.256-.795-.608-1.104-1.056l-1.248 1.248c.49.619 1.045 1.088 1.664 1.408zm14.358-9.2v9.52h1.84v-9.52h3.648v-1.68h-9.136v1.68zm13.268 9.232c.693.299 1.44.448 2.24.448.789 0 1.525-.149 2.208-.448.693-.299 1.296-.709 1.808-1.232.522-.523.928-1.131 1.216-1.824.298-.704.448-1.456.448-2.256s-.15-1.547-.448-2.24c-.288-.704-.694-1.317-1.216-1.84-.523-.533-1.131-.944-1.824-1.232-.683-.299-1.424-.448-2.224-.448s-1.547.149-2.24.448c-.683.288-1.286.699-1.808 1.232-.512.523-.918 1.131-1.216 1.824-.288.693-.432 1.44-.432 2.24s.144 1.552.432 2.256c.298.693.709 1.307 1.232 1.84.522.523 1.13.933 1.824 1.232zm4.192-1.824c-.566.341-1.227.512-1.984.512-.555 0-1.067-.096-1.536-.288-.47-.203-.875-.48-1.216-.832-.331-.352-.592-.773-.784-1.264-.182-.501-.272-1.045-.272-1.632 0-.789.16-1.483.48-2.08.33-.597.778-1.061 1.344-1.392.576-.341 1.237-.512 1.984-.512.565 0 1.077.096 1.536.288.469.192.874.469 1.216.832.341.352.602.773.784 1.264.192.48.288 1.013.288 1.6 0 .789-.166 1.488-.496 2.096-.32.597-.768 1.067-1.344 1.408zm11.439-2.64v4.752h-1.84v-11.2h1.264.576 2.352c.704 0 1.323.144 1.856.432.533.277.944.661 1.232 1.152.299.48.448 1.029.448 1.648 0 .651-.149 1.216-.448 1.696-.288.48-.699.853-1.232 1.12-.445.223-.95.352-1.514.389l3.93 4.763h-2.32l-3.83-4.752zm0-1.52h2.256c.565 0 1.003-.144 1.312-.432.32-.299.48-.709.48-1.232 0-.469-.155-.864-.464-1.184s-.747-.48-1.312-.48h-2.272zm16.435 1.328v4.944h-1.84v-4.874l-4.112-6.326h2.128l2.912 4.58 2.912-4.58h2.096zm11.775-4.576v9.52h1.84v-9.52h3.648v-1.68h-9.136v1.68zm12.354-1.68h-1.264v11.2h1.264.576 5.696v-1.68h-5.696v-3.232h5.152v-1.616h-5.152v-2.992h5.616v-1.68h-5.616zm14.014 0h-1.84v11.2h1.264.576 5.28v-1.68h-5.28zm12.797 0h-1.84v11.2h1.264.576 5.28v-1.68h-5.28zm12.797 0h-1.84v11.2h1.84zm7.705 0h-1.28v11.2h1.84v-7.728l5.92 7.728h1.28v-11.2h-1.84v7.729zm17.069 10.912c.683.299 1.408.448 2.176.448 1.056 0 1.995-.219 2.816-.656s1.467-1.099 1.936-1.984c.48-.885.72-1.995.72-3.328v-.256h-5.536v1.68h3.572c-.067.438-.191.827-.372 1.168-.288.533-.704.939-1.248 1.216-.533.267-1.173.4-1.92.4-.704 0-1.333-.171-1.888-.512s-.997-.811-1.328-1.408c-.32-.608-.48-1.307-.48-2.096s.16-1.483.48-2.08.768-1.061 1.344-1.392c.587-.341 1.264-.512 2.032-.512.64 0 1.237.128 1.792.384.555.245.997.603 1.328 1.072l1.248-1.248c-.512-.629-1.147-1.115-1.904-1.456s-1.579-.512-2.464-.512c-.811 0-1.568.149-2.272.448-.693.288-1.301.699-1.824 1.232-.512.523-.917 1.131-1.216 1.824-.288.693-.432 1.44-.432 2.24s.144 1.552.432 2.256c.299.693.704 1.307 1.216 1.84.512.523 1.109.933 1.792 1.232zm-244.157 174.008c-.865 2.734-1.331 5.609-1.398 8.623-.877.936-1.5745 1.634-2.091 2.093-.6587.582-1.2033.874-1.634.874-.4813 0-.8233-.203-1.026-.608-.2026-.406-.304-.988-.304-1.748 0-.684.228-2.103.684-4.256.2027-1.039.38-2.078.532-3.116.1774-1.039.266-1.812.266-2.318 0-.76-.228-1.267-.684-1.52-.456-.279-1.0386-.418-1.748-.418-1.9 0-4.3953.063-7.486.19 4.104-3.572 6.156-7.904 6.156-12.996 0-1.444-.3293-2.622-.988-3.534-.6333-.938-1.5453-1.406-2.736-1.406-1.52 0-2.964.823-4.332 2.47-1.368 1.621-2.584 3.825-3.648 6.612-1.064 2.786-1.938 5.89-2.622 9.31-.38 0-.6586.012-.836.038-.9627.076-1.6213.304-1.976.684-.3293.38-.494.886-.494 1.52 0 .582.1267 1.013.38 1.292.2787.278.8107.418 1.596.418.2787 0 .5067-.013.684-.038-.4813 3.496-.722 6.776-.722 9.842 0 5.193.3927 9.082 1.178 11.666.7853 2.609 2.0773 3.914 3.876 3.914 2.1027 0 3.648-1.47 4.636-4.408 1.0133-2.939 1.52-6.473 1.52-10.602 0-2.559-.0633-4.763-.19-6.612-.0507-.659-.2026-1.128-.456-1.406-.2533-.279-.646-.418-1.178-.418-.5827 0-1.026.177-1.33.532-.2786.329-.3926.848-.342 1.558.228 2.381.342 4.598.342 6.65 0 1.874-.0887 3.584-.266 5.13-.1773 1.545-.4053 2.761-.684 3.648-.2786.886-.5447 1.33-.798 1.33-.532 0-.9373-1.292-1.216-3.876-.2533-2.559-.38-5.016-.38-7.372 0-3.066.2787-6.372.836-9.918 3.4707-.228 6.4727-.342 9.006-.342-.3547 1.393-.646 2.812-.874 4.256-.2026 1.444-.304 2.66-.304 3.648 0 1.925.3674 3.47 1.102 4.636.76 1.165 1.9634 1.748 3.61 1.748 1.2667 0 2.5207-.444 3.762-1.33.507-.365.996-.759 1.467-1.181.076.377.168.708.274.991.405 1.013 1.089 1.52 2.052 1.52.785 0 1.355-.203 1.71-.608.38-.431.709-1.242.988-2.432.38-1.546.874-3.015 1.482-4.408.633-1.394 1.241-2.508 1.824-3.344.608-.862 1.077-1.292 1.406-1.292.279 0 .418.202.418.608 0 .608-.165 1.71-.494 3.306-.355 1.824-.532 3.09-.532 3.8 0 1.418.329 2.508.988 3.268.659.734 1.634 1.102 2.926 1.102 1.596 0 3.015-.431 4.256-1.292.698-.475 1.37-1.023 2.014-1.645.186.271.389.528.611.771 1.343 1.444 3.23 2.166 5.662 2.166 1.596 0 2.964-.304 4.104-.912 1.166-.608 2.103-1.457 2.812-2.546.431-.659.646-1.444.646-2.356 0-.532-.101-.95-.304-1.254-.177-.304-.43-.456-.76-.456-.38 0-.722.19-1.026.57-.886 1.14-1.672 1.95-2.356 2.432-.658.481-1.507.722-2.546.722-1.444 0-2.47-.583-3.078-1.748 3.015-.735 5.143-1.723 6.384-2.964 1.267-1.267 1.9-2.774 1.9-4.522 0-1.495-.443-2.673-1.33-3.534-.886-.887-2.064-1.33-3.534-1.33-1.646 0-3.128.443-4.446 1.33-1.292.886-2.305 2.09-3.04 3.61-.734 1.494-1.102 3.116-1.102 4.864 0 .569.036 1.111.106 1.627-.522.571-.976 1.03-1.363 1.375-.684.608-1.279.912-1.786.912-.735 0-1.102-.507-1.102-1.52 0-.71.241-2.166.722-4.37.557-2.584.836-4.37.836-5.358 0-1.647-.823-2.47-2.47-2.47-.836 0-1.761.291-2.774.874-.988.582-2.001 1.558-3.04 2.926s-1.976 3.141-2.812 5.32c.101-1.115.228-2.052.38-2.812s.355-1.647.608-2.66c.38-1.419.57-2.331.57-2.736 0-.355-.101-.596-.304-.722-.203-.127-.557-.19-1.064-.19-.937 0-1.672.177-2.204.532-.507.329-.874.861-1.102 1.596zm-13.179-16.492c-.608 0-1.3806 1.317-2.318 3.952-.9373 2.634-1.786 5.826-2.546 9.576 1.2667-.887 2.318-1.989 3.154-3.306.8613-1.318 1.4947-2.673 1.9-4.066.4307-1.419.646-2.724.646-3.914 0-1.495-.2786-2.242-.836-2.242zm7.372 11.856c-1.064 0-1.862-.241-2.394-.722-.532-.507-.798-1.204-.798-2.09 0-.887.342-1.622 1.026-2.204.7094-.608 1.5834-.912 2.622-.912.9374 0 1.6974.228 2.28.684.583.456.874 1.102.874 1.938 0 1.013-.329 1.824-.988 2.432-.6586.582-1.5326.874-2.622.874zm30.548 6.232c-.937 0-1.735.544-2.394 1.634-.633 1.089-.95 2.406-.95 3.952v.076c1.495-.355 2.673-.887 3.534-1.596.862-.71 1.292-1.533 1.292-2.47 0-.482-.139-.862-.418-1.14-.253-.304-.608-.456-1.064-.456zm38.245 3.42c-.236 1.497-.371 2.769-.408 3.815-.723.81-1.329 1.426-1.821 1.847-.709.608-1.406.912-2.09.912-.532 0-.975-.317-1.33-.95-.329-.634-.545-1.685-.646-3.154 2.331-4.003 4.193-7.904 5.586-11.704s2.09-7.119 2.09-9.956c0-2.002-.367-3.496-1.102-4.484-.709-.988-1.609-1.482-2.698-1.482-2.204 0-3.99 1.748-5.358 5.244-1.343 3.47-2.255 7.663-2.736 12.578-1.875.202-3.572.861-5.092 1.976-1.495 1.089-2.673 2.508-3.534 4.256-.861 1.722-1.292 3.597-1.292 5.624 0 1.849.494 3.356 1.482 4.522 1.013 1.14 2.293 1.71 3.838 1.71 1.064 0 1.989-.228 2.774-.684.811-.456 1.748-1.356 2.812-2.698 1.013 2.254 2.483 3.382 4.408 3.382 1.216 0 2.445-.444 3.686-1.33.566-.416 1.111-.869 1.635-1.358.137.337.297.65.48.94.76 1.165 1.963 1.748 3.61 1.748 1.598 0 3.285-.825 5.061-2.475.155.27.332.525.528.765.938 1.14 2.192 1.71 3.762 1.71.684 0 1.368-.178 2.052-.532.71-.38 1.28-.912 1.71-1.596l-.228 1.482c-3.901 3.014-6.561 5.548-7.98 7.6-1.418 2.077-2.128 4.015-2.128 5.814 0 1.292.406 2.33 1.216 3.116.811.81 1.862 1.216 3.154 1.216 2.407 0 4.383-1.508 5.928-4.522 1.571-2.99 2.838-7.106 3.8-12.35l2.432-1.634c.784-.549 1.915-1.324 3.395-2.326.184.752.455 1.413.815 1.984.76 1.165 1.963 1.748 3.61 1.748 2.178 0 4.522-1.533 7.03-4.598.028-.033.056-.067.082-.101 1.166 3.132 3.445 4.699 6.837 4.699 1.672 0 3.154-.431 4.446-1.292.541-.361 1.064-.763 1.569-1.208.159.28.34.543.543.79.938 1.14 2.192 1.71 3.762 1.71 2.002 0 3.661-1.064 4.978-3.192.355.988.874 1.773 1.558 2.356.71.557 1.482.836 2.318.836 1.09 0 2.217-.444 3.382-1.33.881-.67 1.725-1.456 2.533-2.357.108.236.223.464.345.685 1.115 2.001 2.875 3.002 5.282 3.002 1.672 0 3.167-.545 4.484-1.634.76-.634 1.14-1.482 1.14-2.546 0-.482-.101-.887-.304-1.216-.177-.355-.418-.532-.722-.532-.279 0-.557.126-.836.38-.456.405-.963.734-1.52.988-.532.253-1.013.38-1.444.38-.785 0-1.406-.228-1.862-.684s-.773-1.204-.95-2.242c2.863-3.876 5.117-7.803 6.764-11.78 1.672-3.978 2.508-7.474 2.508-10.488 0-2.103-.355-3.712-1.064-4.826-.684-1.14-1.634-1.71-2.85-1.71-2.153 0-4.015 1.418-5.586 4.256-1.545 2.837-2.723 6.232-3.534 10.184-.785 3.952-1.178 7.473-1.178 10.564 0 1.206.077 2.329.231 3.367-.932 1.091-1.69 1.907-2.273 2.447-.684.608-1.266.912-1.748.912-.304 0-.557-.114-.76-.342-.177-.228-.266-.532-.266-.912 0-1.14.292-3.167.874-6.08.38-2.002.57-3.268.57-3.8 0-.887-.62-1.33-1.862-1.33-.582 0-1.14.05-1.672.152-.126-.558-.291-.938-.494-1.14-.177-.228-.544-.342-1.102-.342-1.748 0-3.407.557-4.978 1.672-1.545 1.089-2.786 2.546-3.724 4.37-.889 1.706-1.356 3.515-1.402 5.426-.533.54-1.023.986-1.47 1.338-.836.658-1.798.988-2.888.988-1.342 0-2.33-.532-2.964-1.596-.608-1.064-.912-2.914-.912-5.548 0-.71.026-1.698.076-2.964h4.636c2.863 0 4.294-.874 4.294-2.622 0-.482-.088-.811-.266-.988-.177-.178-.468-.266-.874-.266h-4.256c3.294-2.914 4.94-6.334 4.94-10.26 0-1.419-.304-2.597-.912-3.534-.608-.938-1.444-1.406-2.508-1.406-1.444 0-2.799.684-4.066 2.052-1.241 1.368-2.305 3.204-3.192 5.51-.886 2.305-1.545 4.851-1.976 7.638h-2.166c-1.14 0-1.71.709-1.71 2.128 0 .608.127 1.051.38 1.33.279.278.798.418 1.558.418h1.482c-.076 1.14-.114 2.267-.114 3.382 0 .816.033 1.586.098 2.31-.227.081-.438.236-.633.464-1.14 1.368-2.052 2.368-2.736 3.002-.684.633-1.254.95-1.71.95-.482 0-.824-.203-1.026-.608-.203-.406-.304-.988-.304-1.748 0-.988.304-2.876.912-5.662.481-2.306.722-3.775.722-4.408 0-.862-.646-1.292-1.938-1.292-.836 0-1.444.152-1.824.456s-.684.861-.912 1.672c-.456 1.545-.836 3.217-1.14 5.016-.177 1.123-.297 2.119-.362 2.989-1.556 1.04-3.168 2.21-4.836 3.509.127-.811.241-1.571.342-2.28.127-.735.241-1.406.342-2.014.532-3.192.849-5.181.95-5.966.026-.178.038-.418.038-.722 0-.558-.139-.925-.418-1.102-.253-.203-.696-.304-1.33-.304-.633 0-1.19.05-1.672.152-.126-.558-.291-.938-.494-1.14-.177-.228-.544-.342-1.102-.342-1.748 0-3.407.557-4.978 1.672-1.545 1.089-2.786 2.546-3.724 4.37-.901 1.73-1.369 3.566-1.404 5.507-.482.532-.902.964-1.259 1.295-.684.633-1.254.95-1.71.95-.482 0-.824-.203-1.026-.608-.203-.406-.304-.988-.304-1.748 0-.988.304-2.876.912-5.662.481-2.306.722-3.775.722-4.408 0-.862-.646-1.292-1.938-1.292-.836 0-1.444.152-1.824.456s-.684.861-.912 1.672c-.456 1.545-.836 3.217-1.14 5.016zm-2.837-21.432c-.481 0-.963.861-1.444 2.584-.481 1.697-.899 3.926-1.254 6.688-.329 2.761-.57 5.649-.722 8.664 2.837-6.182 4.256-11.147 4.256-14.896 0-.963-.089-1.71-.266-2.242-.152-.532-.342-.798-.57-.798zm-10.944 28.348c.481 0 .963-.19 1.444-.57.481-.406 1.089-1.14 1.824-2.204-.253-1.368-.38-2.901-.38-4.598 0-.608.025-1.596.076-2.964-1.393.43-2.559 1.368-3.496 2.812-.912 1.418-1.368 3.002-1.368 4.75 0 1.849.633 2.774 1.9 2.774zm18.379-16.568c-1.064 0-1.862-.241-2.394-.722-.532-.507-.798-1.204-.798-2.09 0-.887.342-1.622 1.026-2.204.709-.608 1.583-.912 2.622-.912.937 0 1.697.228 2.28.684.582.456.874 1.102.874 1.938 0 1.013-.33 1.824-.988 2.432-.659.582-1.533.874-2.622.874zm10.415 16.568c.583 0 1.14-.355 1.672-1.064.532-.71.912-1.723 1.14-3.04l1.216-6.498c-1.038.025-2.001.43-2.888 1.216-.886.76-1.596 1.773-2.128 3.04-.532 1.266-.798 2.609-.798 4.028 0 .785.152 1.368.456 1.748.33.38.773.57 1.33.57zm-3.154 17.252c.634 0 1.343-.76 2.128-2.28.811-1.52 1.584-3.94 2.318-7.258-1.95 1.672-3.356 3.179-4.218 4.522-.861 1.342-1.292 2.52-1.292 3.534 0 .43.076.785.228 1.064.178.278.456.418.836.418zm19.866-33.82c-1.064 0-1.862-.241-2.394-.722-.532-.507-.798-1.204-.798-2.09 0-.887.342-1.622 1.026-2.204.709-.608 1.583-.912 2.622-.912.937 0 1.697.228 2.28.684.582.456.874 1.102.874 1.938 0 1.013-.33 1.824-.988 2.432-.659.582-1.533.874-2.622.874zm14.671-9.31c-.38 0-.81.481-1.292 1.444-.456.937-.899 2.254-1.33 3.952-.405 1.672-.747 3.534-1.026 5.586 1.495-1.292 2.61-2.736 3.344-4.332.76-1.622 1.14-3.091 1.14-4.408 0-1.495-.278-2.242-.836-2.242zm10.662 25.878c.558 0 1.09-.33 1.596-.988.507-.659.874-1.533 1.102-2.622l1.406-6.992c-1.064.025-2.052.43-2.964 1.216-.886.76-1.596 1.773-2.128 3.04-.532 1.266-.798 2.609-.798 4.028 0 .785.152 1.368.456 1.748.33.38.773.57 1.33.57zm21.536-28.31c-.583 0-1.241 1.051-1.976 3.154-.735 2.102-1.381 4.712-1.938 7.828s-.861 6.105-.912 8.968c1.799-2.964 3.23-5.928 4.294-8.892 1.064-2.99 1.596-5.713 1.596-8.17 0-1.926-.355-2.888-1.064-2.888zm31.932 24.168c0 .111.002.222.005.332-1.502 1.011-3.055 2.141-4.66 3.392.126-.811.24-1.571.342-2.28.126-.735.24-1.406.342-2.014.532-3.192.848-5.181.95-5.966.025-.178.038-.418.038-.722 0-.558-.14-.925-.418-1.102-.254-.203-.697-.304-1.33-.304-.634 0-1.191.05-1.672.152-.127-.558-.292-.938-.494-1.14-.178-.228-.545-.342-1.102-.342-1.748 0-3.408.557-4.978 1.672-1.546 1.089-2.787 2.546-3.724 4.37-.938 1.798-1.406 3.711-1.406 5.738 0 1.849.468 3.344 1.406 4.484.937 1.14 2.191 1.71 3.762 1.71.684 0 1.368-.178 2.052-.532.709-.38 1.279-.912 1.71-1.596l-.228 1.482c-3.902 3.014-6.562 5.548-7.98 7.6-1.419 2.077-2.128 4.015-2.128 5.814 0 1.292.405 2.33 1.216 3.116.81.81 1.862 1.216 3.154 1.216 2.406 0 4.382-1.508 5.928-4.522 1.57-2.99 2.837-7.106 3.8-12.35l2.432-1.634c.857-.6 2.131-1.472 3.822-2.616.557 1.213 1.367 2.186 2.429 2.92 1.09.734 2.394 1.102 3.914 1.102 1.799 0 3.408-.634 4.826-1.9 1.419-1.292 2.369-3.002 2.85-5.13.8-.034 1.57-.111 2.311-.232.079 1.148.35 2.226.812 3.234.557 1.216 1.368 2.191 2.432 2.926 1.089.734 2.394 1.102 3.914 1.102 1.799 0 3.407-.634 4.826-1.9 1.419-1.292 2.369-3.002 2.85-5.13.832-.035 1.633-.117 2.402-.247-.027.344-.04.692-.04 1.045 0 1.849.494 3.356 1.482 4.522 1.014 1.14 2.293 1.71 3.838 1.71 1.064 0 1.989-.228 2.774-.684.811-.456 1.748-1.356 2.812-2.698 1.014 2.254 2.483 3.382 4.408 3.382 1.216 0 2.445-.444 3.686-1.33 1.242-.912 2.382-2.002 3.42-3.268.14-.162.259-.343.359-.543.118-.147.235-.296.35-.445.785-.988 1.571-2.23 2.356-3.724.355.405.735.886 1.14 1.444.405.532.735 1.089.988 1.672.279.582.431 1.203.456 1.862l-1.026-.114c-.431-.076-.811-.114-1.14-.114-.937 0-1.647.24-2.128.722-.481.481-.722 1.051-.722 1.71 0 .76.342 1.444 1.026 2.052.709.608 1.723.912 3.04.912 1.14 0 2.153-.292 3.04-.874.887-.583 1.571-1.343 2.052-2.28.507-.963.76-1.976.76-3.04 0-.887-.215-1.698-.646-2.432-.405-.76-1.013-1.672-1.824-2.736-.557-.684-.975-1.254-1.254-1.71-.253-.456-.38-.874-.38-1.254 0-.634.228-1.406.684-2.318.177-.33.317-.659.418-.988.101-.33.152-.57.152-.722 0-.279-.139-.482-.418-.608-.279-.127-.773-.19-1.482-.19-1.52 0-2.521.557-3.002 1.672-.76 1.748-1.381 3.128-1.862 4.142-.456 1.013-.912 1.887-1.368 2.622-.67 1.053-1.645 2.376-2.925 3.971-.318.325-.606.597-.862.817-.709.608-1.406.912-2.09.912-.532 0-.975-.317-1.33-.95-.329-.634-.544-1.685-.646-3.154 2.331-4.003 4.193-7.904 5.586-11.704 1.394-3.8 2.09-7.119 2.09-9.956 0-2.002-.367-3.496-1.102-4.484-.709-.988-1.608-1.482-2.698-1.482-2.204 0-3.99 1.748-5.358 5.244-1.342 3.47-2.254 7.663-2.736 12.578-1.874.202-3.572.861-5.092 1.976-1.494 1.089-2.672 2.508-3.534 4.256-.056.112-.11.224-.162.338-1.2.273-2.263.439-3.188.498-.203-1.951-.899-3.585-2.09-4.902-1.165-1.343-2.711-2.014-4.636-2.014-1.571 0-3.002.43-4.294 1.292-1.292.836-2.305 2.014-3.04 3.534-.273.555-.496 1.141-.667 1.756-.89.176-1.696.288-2.418.334-.202-1.951-.899-3.585-2.09-4.902-1.165-1.343-2.71-2.014-4.636-2.014-1.57 0-3.002.43-4.294 1.292-1.292.836-2.305 2.014-3.04 3.534-.734 1.494-1.102 3.204-1.102 5.13zm-11.571 4.142c.582 0 1.14-.355 1.672-1.064.532-.71.912-1.723 1.14-3.04l1.216-6.498c-1.039.025-2.002.43-2.888 1.216-.887.76-1.596 1.773-2.128 3.04-.532 1.266-.798 2.609-.798 4.028 0 .785.152 1.368.456 1.748.329.38.772.57 1.33.57zm-3.154 17.252c.633 0 1.342-.76 2.128-2.28.81-1.52 1.583-3.94 2.318-7.258-1.951 1.672-3.357 3.179-4.218 4.522-.862 1.342-1.292 2.52-1.292 3.534 0 .43.076.785.228 1.064.177.278.456.418.836.418zm22.211-17.442c.811 0 1.508-.33 2.09-.988.608-.659 1.014-1.609 1.216-2.85-.785-.532-1.393-1.229-1.824-2.09-.405-.862-.608-1.774-.608-2.736 0-.406.038-.811.114-1.216h-.19c-1.013 0-1.862.494-2.546 1.482-.658.962-.988 2.33-.988 4.104 0 1.393.266 2.457.798 3.192.558.734 1.204 1.102 1.938 1.102zm17.145 0c.811 0 1.507-.33 2.09-.988.608-.659 1.013-1.609 1.216-2.85-.785-.532-1.393-1.229-1.824-2.09-.405-.862-.608-1.774-.608-2.736 0-.406.038-.811.114-1.216h-.19c-1.013 0-1.862.494-2.546 1.482-.659.962-.988 2.33-.988 4.104 0 1.393.266 2.457.798 3.192.557.734 1.203 1.102 1.938 1.102zm27.328-28.158c-.481 0-.962.861-1.444 2.584-.481 1.697-.899 3.926-1.254 6.688-.329 2.761-.57 5.649-.722 8.664 2.838-6.182 4.256-11.147 4.256-14.896 0-.963-.088-1.71-.266-2.242-.152-.532-.342-.798-.57-.798zm-10.944 28.348c.482 0 .963-.19 1.444-.57.482-.406 1.09-1.14 1.824-2.204-.253-1.368-.38-2.901-.38-4.598 0-.608.026-1.596.076-2.964-1.393.43-2.558 1.368-3.496 2.812-.912 1.418-1.368 3.002-1.368 4.75 0 1.849.634 2.774 1.9 2.774zm-163.348-43.876v1.128h5.172v-1.128zm14.015-4.776v8.4h1.38v-5.379l2.28 3.747h.96l2.28-3.747v5.379h1.38v-8.4h-.96l-3.18 5.234-3.18-5.234zm15.334 0-3.456 8.4h1.464l.645-1.62h3.611l.64 1.62h1.488l-3.432-8.4zm1.79 5.58-1.323-3.349-1.335 3.349zm7.49-1.344 3.696 4.164h1.8l-3.968-4.398 3.848-4.002h-1.764l-3.612 3.817v-3.817h-1.38v8.4h1.38zm8.871-4.236v8.4h.948.432 4.272v-1.26h-4.272v-2.424h3.864v-1.212h-3.864v-2.244h4.212v-1.26h-4.212-.432zm10.858 4.836v3.564h-1.38v-8.4h.948.432 1.764c.528 0 .992.108 1.392.324.4.208.708.496.924.864.224.36.336.772.336 1.236 0 .488-.112.912-.336 1.272-.216.36-.524.64-.924.84-.333.167-.712.264-1.135.292l2.947 3.572h-1.74l-2.872-3.564zm0-1.14h1.692c.424 0 .752-.108.984-.324.24-.224.36-.532.36-.924 0-.352-.116-.648-.348-.888s-.56-.36-.984-.36h-1.704zm8.793 4.464c.464.24 1.028.36 1.692.36.904 0 1.62-.22 2.148-.66.536-.44.804-1.036.804-1.788 0-.448-.072-.82-.216-1.116s-.336-.536-.576-.72c-.232-.192-.492-.348-.78-.468-.28-.12-.564-.228-.852-.324-.28-.096-.54-.196-.78-.3-.232-.112-.42-.244-.564-.396-.144-.16-.216-.368-.216-.624 0-.304.116-.54.348-.708.24-.168.568-.252.984-.252.336 0 .632.068.888.204.264.128.516.328.756.6l.936-.936c-.272-.336-.628-.612-1.068-.828-.432-.216-.924-.324-1.476-.324-.512 0-.976.092-1.392.276s-.748.452-.996.804c-.24.344-.36.764-.36 1.26 0 .432.072.788.216 1.068s.332.508.564.684c.24.176.5.324.78.444.288.112.572.216.852.312.288.088.548.192.78.312.24.112.432.256.576.432s.216.404.216.684c0 .336-.14.6-.42.792-.272.192-.64.288-1.104.288-.496 0-.904-.092-1.224-.276-.32-.192-.596-.456-.828-.792l-.936.936c.368.464.784.816 1.248 1.056zm15.407.024c.52.224 1.08.336 1.68.336.592 0 1.144-.112 1.656-.336.52-.224.972-.532 1.356-.924.392-.392.696-.848.912-1.368.224-.528.336-1.092.336-1.692s-.112-1.16-.336-1.68c-.216-.528-.52-.988-.912-1.38-.392-.4-.848-.708-1.368-.924-.512-.224-1.068-.336-1.668-.336s-1.16.112-1.68.336c-.512.216-.964.524-1.356.924-.384.392-.688.848-.912 1.368-.216.52-.324 1.08-.324 1.68s.108 1.164.324 1.692c.224.52.532.98.924 1.38.392.392.848.7 1.368.924zm3.144-1.368c-.424.256-.92.384-1.488.384-.416 0-.8-.072-1.152-.216-.352-.152-.656-.36-.912-.624-.248-.264-.444-.58-.588-.948-.136-.376-.204-.784-.204-1.224 0-.592.12-1.112.36-1.56.248-.448.584-.796 1.008-1.044.432-.256.928-.384 1.488-.384.424 0 .808.072 1.152.216.352.144.656.352.912.624.256.264.452.58.588.948.144.36.216.76.216 1.2 0 .592-.124 1.116-.372 1.572-.24.448-.576.8-1.008 1.056zm7.547-6.816h-.948v8.4h1.38v-3.6h3.84v-1.26h-3.84v-2.28h4.044v-1.26h-4.044zm12.754 4.776v1.128h5.172v-1.128z" fill="#4d9395"/><path d="m337.859 93c.87 0 1.328-1.0267.741-1.6682-32.126-35.065-78.295-57.0518-129.599-57.0518s-97.473 21.9868-129.5983 57.0518c-.5877.6415-.1296 1.6682.7403 1.6682.2832 0 .5532-.1194.7445-.3282 31.7595-34.6597 77.3985-56.3918 128.1135-56.3918s96.355 21.7321 128.114 56.3918c.191.2088.461.3282.744.3282zm-280.3585 31.93c.3609-.641-.0666-1.443-.8007-1.495-.3831-.027-.7479.168-.9363.503-9.1221 16.207-15.7473 34.008-19.3539 52.88-.1174.614.355 1.182.9806 1.182.4823 0 .8958-.344.9864-.818 3.5652-18.647 10.1115-36.236 19.1239-52.252zm323.1115 53.07c-.482 0-.896-.344-.986-.818-3.591-18.778-10.204-36.483-19.315-52.589-.362-.642.065-1.446.8-1.498.382-.027.746.168.935.501 9.222 16.299 15.915 34.217 19.547 53.222.117.614-.355 1.182-.981 1.182zm-342.0422 65.813c-.093-.472-.5053-.813-.9854-.813-.628 0-1.101.572-.9795 1.188 5.3585 27.174 16.9818 52.099 33.3029 73.206.2096.271.5442.414.885.38.7824-.079 1.17-.992.6891-1.614-16.1279-20.861-27.6145-45.493-32.9121-72.347zm311.4702 70.24c-.786-.055-1.2-.959-.735-1.595 14.667-20.051 25.14-43.363 30.128-68.646.092-.471.505-.812.985-.812.628 0 1.101.572.979 1.188-5.045 25.584-15.643 49.174-30.486 69.462-.201.275-.531.427-.871.403zm-260.0376 22.907c.2642-.007.5204.09.714.271 31.0136 28.846 72.5886 46.489 118.2846 46.489 48.843 0 92.978-20.157 124.54-52.606.184-.19.435-.3.699-.306.897-.023 1.371 1.046.746 1.689-31.927 32.829-76.574 53.223-125.985 53.223-46.228 0-88.286-17.851-119.6585-47.036-.6566-.611-.2366-1.702.6599-1.724z" fill="#304f70"/><path d="m329.076 93c.443 0 .668-.5312.358-.8478-30.588-31.2554-73.246-50.6522-120.433-50.6522-47.188 0-89.845 19.3968-120.4333 50.6522-.3099.3166-.0848.8478.3582.8478.1352 0 .2647-.0546.3593-.1512 30.4068-31.0683 72.8098-50.3488 119.7158-50.3488s89.309 19.2805 119.716 50.3488c.094.0966.224.1512.359.1512zm-270.862 43.977c.1571-.324-.0678-.703-.4273-.72-.1989-.009-.3842.101-.4712.28-6.2114 12.802-10.8499 26.508-13.6644 40.868-.0605.309.176.595.4903.595.2397 0 .4457-.17.4918-.405 2.7976-14.272 7.4077-27.895 13.5808-40.618zm315.647 41.023c-.24 0-.446-.17-.492-.405-2.814-14.355-7.462-28.053-13.689-40.839-.157-.324.068-.704.427-.721.199-.009.384.101.471.28 6.266 12.865 10.942 26.647 13.773 41.09.06.309-.176.595-.49.595zm-329.0292 65.403c-.0473-.234-.2527-.403-.4913-.403-.3155 0-.5522.289-.4896.598 4.6418 22.94 13.9435 44.19 26.8745 62.72.0939.134.2481.214.4122.212.4027-.003.6364-.457.4059-.788-12.8522-18.417-22.0975-39.538-26.7117-62.339zm302.0172 63.15c-.403-.003-.637-.458-.406-.788 12.86-18.423 22.111-39.552 26.727-62.362.047-.234.253-.403.491-.403.316 0 .553.289.49.598-4.644 22.95-13.951 44.208-26.89 62.742-.094.135-.248.214-.412.213zm-253.4973 24.81c.1301-.001.2556.048.35.138 30.0313 28.508 70.6223 45.999 115.2993 45.999 45.587 0 86.92-18.211 117.122-47.756.093-.091.218-.142.348-.143.45-.003.676.541.354.855-30.382 29.723-71.964 48.044-117.824 48.044-44.945 0-85.78-17.597-115.9908-46.277-.3265-.31-.1086-.857.3415-.86z" fill="#a5cec2"/></g></svg>